<?xml version="1.0" encoding="UTF-8"?>
<svg id="Layer_2" data-name="Layer 2" xmlns="http://www.w3.org/2000/svg" xmlns:xlink="http://www.w3.org/1999/xlink" viewBox="0 0 310 76">
  <defs>
    <style>
      .cls-1 {
        fill: #f2a368;
        filter: url(#drop-shadow-1);
      }

      .cls-1, .cls-2 {
        stroke-width: 0px;
      }

      .cls-2 {
        fill: #fff;
      }
    </style>
    <filter id="drop-shadow-1" filterUnits="userSpaceOnUse">
      <feOffset dx="0" dy="6"/>
      <feGaussianBlur result="blur" stdDeviation="0"/>
      <feFlood flood-color="#000" flood-opacity=".2"/>
      <feComposite in2="blur" operator="in"/>
      <feComposite in="SourceGraphic"/>
    </filter>
  </defs>
  <g id="design">
    <g>
      <rect class="cls-1" y="0" width="310" height="70" rx="35" ry="35"/>
      <g>
        <path class="cls-2" d="m130.15,40.51c.47-.45,1.01-1,1.64-1.64.62-.64,1.29-1.33,1.99-2.07.7-.74,1.39-1.49,2.07-2.24l1.7,2.58c-.85,1.02-1.76,2.05-2.74,3.09-.97,1.04-1.89,2-2.74,2.86l-1.92-2.58Zm.7-13.62l2.12-2.22c.52.33,1.06.7,1.64,1.11.57.41,1.12.83,1.62,1.25.51.42.92.82,1.24,1.19l-2.25,2.47c-.28-.37-.67-.77-1.16-1.22s-1.02-.9-1.59-1.36c-.57-.46-1.11-.86-1.62-1.21Zm13.85,3.35h1.58v2.75c0,.55.07,1.19.2,1.92s.37,1.5.71,2.31.8,1.62,1.38,2.44c.58.82,1.3,1.59,2.19,2.31.88.72,1.95,1.35,3.2,1.89-.2.23-.42.52-.66.86-.24.34-.48.67-.7,1-.23.33-.42.62-.59.89-.92-.42-1.73-.91-2.45-1.49-.72-.57-1.36-1.19-1.93-1.84-.57-.65-1.05-1.3-1.46-1.96-.41-.66-.73-1.29-.98-1.89-.24-.6-.41-1.12-.51-1.57-.12.45-.31.97-.59,1.56-.28.59-.64,1.21-1.09,1.86-.45.65-.99,1.3-1.62,1.95-.63.65-1.36,1.26-2.17,1.84-.82.58-1.73,1.09-2.75,1.54-.1-.23-.26-.51-.49-.84-.23-.33-.45-.64-.69-.95-.23-.31-.44-.55-.62-.74,1.35-.53,2.51-1.17,3.47-1.9.97-.73,1.77-1.52,2.41-2.35.64-.83,1.15-1.67,1.52-2.5.38-.83.64-1.62.79-2.36s.23-1.4.23-1.96v-2.77h1.62Zm-4.62-7.03l3.12.58c-.32,1.47-.71,2.9-1.19,4.29s-1.01,2.68-1.6,3.86-1.23,2.22-1.91,3.1c-.2-.17-.48-.35-.84-.56s-.72-.41-1.07-.6c-.36-.19-.67-.35-.94-.46.7-.77,1.34-1.69,1.91-2.78.58-1.08,1.08-2.26,1.5-3.52.43-1.27.76-2.57,1.01-3.9Zm1.08,4.22h10.27v3h-11.75l1.48-3Zm9.27,0h.42l.58-.15,2.23,1.3c-.23.83-.51,1.67-.84,2.5-.32.83-.66,1.62-1.01,2.38s-.7,1.42-1.05,2.03c-.2-.12-.45-.25-.76-.41-.31-.16-.62-.31-.94-.46-.32-.15-.59-.27-.83-.35.27-.52.55-1.13.84-1.84.29-.71.56-1.44.8-2.2.24-.76.43-1.46.56-2.11v-.68Z"/>
        <path class="cls-2" d="m156.62,36.91c.38-.3.74-.6,1.06-.91.33-.31.68-.65,1.06-1.04.28-.3.61-.67.98-1.11s.76-.92,1.18-1.44c.42-.52.84-1.04,1.26-1.56.43-.53.83-1.01,1.21-1.46.88-1,1.74-1.54,2.58-1.61.83-.08,1.71.34,2.62,1.24.57.55,1.15,1.17,1.76,1.88.61.7,1.2,1.4,1.79,2.1.58.7,1.12,1.32,1.62,1.85.4.45.83.92,1.29,1.4s.95.99,1.46,1.52c.52.53,1.06,1.07,1.62,1.6s1.14,1.07,1.73,1.6l-2.57,3c-.58-.58-1.2-1.22-1.85-1.9-.65-.68-1.29-1.38-1.91-2.1s-1.21-1.38-1.76-1.97c-.5-.62-1.03-1.27-1.59-1.96-.56-.69-1.1-1.35-1.61-1.99-.52-.63-.98-1.17-1.38-1.6-.28-.33-.54-.54-.76-.62-.23-.08-.44-.07-.65.05-.21.12-.43.33-.66.65-.25.32-.54.69-.86,1.12-.33.43-.67.9-1.02,1.39-.36.49-.7.97-1.04,1.42-.33.46-.64.86-.93,1.21-.28.42-.56.83-.84,1.25s-.52.79-.74,1.12l-3.05-3.12Z"/>
      </g>
    </g>
  </g>
</svg>
