<?xml version="1.0" encoding="UTF-8"?>
<svg id="Layer_2" data-name="Layer 2" xmlns="http://www.w3.org/2000/svg" xmlns:xlink="http://www.w3.org/1999/xlink" viewBox="0 0 300 121">
  <defs>
    <style>
      .cls-1 {
        letter-spacing: -.05em;
      }

      .cls-2 {
        letter-spacing: .09em;
      }

      .cls-3 {
        letter-spacing: .12em;
      }

      .cls-4 {
        letter-spacing: .12em;
      }

      .cls-5 {
        letter-spacing: -.03em;
      }

      .cls-6 {
        fill: #68584b;
        font-family: NotoSansJP-Bold, 'Noto Sans JP';
        font-size: 14px;
        font-variation-settings: 'wght' 700;
        font-weight: 700;
      }

      .cls-7 {
        letter-spacing: .04em;
      }

      .cls-8 {
        fill: url(#_新規グラデーションスウォッチ_5);
      }

      .cls-8, .cls-9 {
        stroke-width: 0px;
      }

      .cls-10 {
        letter-spacing: .04em;
      }

      .cls-11 {
        letter-spacing: .07em;
      }

      .cls-12 {
        letter-spacing: .02em;
      }

      .cls-13 {
        letter-spacing: .11em;
      }

      .cls-14 {
        letter-spacing: .07em;
      }

      .cls-15 {
        letter-spacing: -.06em;
      }

      .cls-16 {
        letter-spacing: .07em;
      }

      .cls-17 {
        letter-spacing: 0em;
      }

      .cls-18 {
        letter-spacing: .12em;
      }

      .cls-19 {
        letter-spacing: -.38em;
      }

      .cls-20 {
        letter-spacing: .09em;
      }

      .cls-9 {
        fill: #fffdcd;
      }

      .cls-21 {
        letter-spacing: -.03em;
      }
    </style>
    <linearGradient id="_新規グラデーションスウォッチ_5" data-name="新規グラデーションスウォッチ 5" x1="150" y1="81.95" x2="150" y2="58.65" gradientUnits="userSpaceOnUse">
      <stop offset=".5" stop-color="#f2739d"/>
      <stop offset=".5" stop-color="#f596b5"/>
    </linearGradient>
  </defs>
  <g id="design">
    <g>
      <rect class="cls-9" x="0" y="21" width="300" height="100"/>
      <text class="cls-6" transform="translate(100.26 51.11)"><tspan class="cls-18" x="0" y="0">設</tspan><tspan class="cls-16" x="15.68" y="0">置</tspan><tspan class="cls-7" x="30.65" y="0">す</tspan><tspan class="cls-17" x="45.21" y="0">る</tspan><tspan class="cls-21" x="59.19" y="0">こ</tspan><tspan class="cls-15" x="72.83" y="0">と</tspan><tspan class="cls-11" x="85.96" y="0">で</tspan></text>
      <g>
        <path class="cls-8" d="m49.54,74.33c-.22,0-.4-.18-.4-.4v-14.7c0-.22.18-.4.4-.4h7.25c.22,0,.4.18.4.4v1.81c0,.22-.18.4-.4.4h-4.36c-.22,0-.41.18-.41.4v12.08c0,.22-.18.4-.4.4h-2.08Z"/>
        <path class="cls-8" d="m73.87,81.61c-1.11,0-1.96-.1-2.6-.29-.64-.2-1.07-.52-1.32-.99-.22-.42-.35-.97-.37-1.67,0-.22-.19-.39-.4-.39h-3.23c-.22,0-.41.18-.41.4v.28c0,.22-.18.4-.4.4h-1.98c-.22,0-.4-.18-.4-.4v-8.08c0-.22.18-.4.4-.4h6.24c.15,0,.3-.09.36-.23.05-.11.05-.25,0-.36-.03-.06-.04-.12-.04-.18v-4.55c0-.22-.18-.4-.41-.4h-5.79c-.22,0-.41.18-.41.4v2.23c0,.11-.04.21-.12.29-.08.08-.18.12-.29.12h-1.79c-.22,0-.4-.19-.4-.41v-4.17c0-.22.18-.4.4-.4h8.39c.22,0,.41-.18.41-.4,0-.24-.21-.49-.41-.49h-6.71c-.22,0-.4-.18-.4-.4v-1.35c0-.22.18-.4.4-.4h17.2c.22,0,.4.18.4.4v1.35c0,.22-.18.4-.4.4h-6.81c-.22,0-.41.18-.41.4,0,.24.21.49.41.49h8.56c.22,0,.4.18.4.4v4.17c0,.22-.18.4-.4.4h-1.88c-.22,0-.4-.18-.4-.41v-2.22c0-.22-.18-.4-.41-.4h-5.87c-.22,0-.41.18-.41.4v4.55c0,.06-.01.12-.04.18-.06.11-.06.25,0,.36.07.14.21.23.36.23h6.37c.22,0,.4.18.4.4v5.78c0,.16.1.31.24.37.05.02.11.03.16.03.05,0,.09,0,.13-.02.04-.02.09-.02.13-.02.07,0,.14.02.2.05.26.15.59.3.96.44.33.12.64.22.92.29.2.05.33.24.3.45-.11.8-.28,1.42-.51,1.89-.26.55-.64.92-1.15,1.14-.52.22-1.2.33-2.1.33h-5.1Zm-1.07-3.35c-.12,0-.24.06-.32.15-.08.1-.11.22-.08.34.05.21.14.36.28.44.14.08.45.18,1.43.18h4.64c.41,0,.71-.06.92-.17.13-.07.24-.19.33-.35.07-.13.06-.28-.01-.4-.07-.12-.2-.2-.35-.2h-6.84Zm-.04-3.01c-.22,0-.41.18-.41.4v.26c0,.22.18.4.41.4h3.61c.22,0,.41-.18.41-.4v-.26c0-.22-.18-.4-.41-.4h-3.61Zm-6.82,0c-.22,0-.41.18-.41.4v.26c0,.22.18.4.41.4h3.22c.22,0,.41-.18.41-.4v-.26c0-.22-.18-.4-.41-.4h-3.22Zm6.82-2.82c-.22,0-.41.18-.41.4v.26c0,.22.18.4.41.4h3.61c.22,0,.41-.18.41-.4v-.26c0-.22-.18-.4-.41-.4h-3.61Zm-6.82,0c-.22,0-.41.18-.41.4v.26c0,.22.18.4.41.4h3.22c.22,0,.41-.18.41-.4v-.26c0-.22-.18-.4-.41-.4h-3.22Zm7.94-2.86c-.22,0-.4-.18-.4-.4v-.79c0-.22.18-.4.4-.4h4.53c.22,0,.4.18.4.41v.79c0,.22-.18.4-.4.4h-4.53Zm-9.88,0c-.22,0-.4-.18-.4-.4v-.8c0-.11.04-.21.12-.29s.18-.12.29-.12h4.46c.22,0,.4.19.4.41v.79c0,.22-.18.4-.4.4h-4.46Zm9.88-2.43c-.22,0-.4-.18-.4-.4v-.77c0-.22.18-.4.4-.4h3.95c.22,0,.4.18.4.4v.77c0,.22-.18.4-.4.4h-3.95Zm-9.42,0c-.22,0-.4-.18-.4-.4v-.77c0-.22.18-.4.4-.4h4c.22,0,.4.18.4.4v.77c0,.22-.18.4-.4.4h-4Z"/>
        <path class="cls-8" d="m88.23,81.95c-.12,0-.24-.05-.32-.15-.11-.14-.25-.3-.4-.47-.25-.29-.52-.58-.8-.85l-.27-.26c-.1-.09-.15-.23-.12-.36s.11-.25.24-.3c1.26-.55,2.48-1.21,3.62-1.96.53-.35,1.04-.72,1.52-1.11.1-.08.16-.21.15-.34,0-.13-.07-.25-.18-.32-.28-.18-.56-.36-.84-.54-.8-.51-1.58-.98-2.32-1.4-.11-.06-.19-.18-.2-.31-.01-.13.03-.25.13-.34l1.45-1.35c.08-.07.18-.11.28-.11.07,0,.13.02.19.05.81.43,1.66.92,2.52,1.43.34.2.68.41,1.01.62.06.04.14.06.21.06.12,0,.24-.05.31-.15.62-.75,1.17-1.56,1.64-2.39.07-.12.07-.28,0-.4-.07-.12-.21-.2-.35-.2h-7.31c-.22,0-.4-.18-.4-.4v-1.03c0-.14-.07-.27-.19-.34-.24-.22-.49-.42-.8-.64-.33-.23-.67-.47-1.01-.7-.14-.09-.27-.18-.39-.26-.11-.07-.18-.19-.19-.31,0-.13.04-.25.14-.34,1.01-.87,1.92-1.96,2.7-3.25.83-1.37,1.49-2.85,1.95-4.4.05-.17.21-.29.39-.29.03,0,.06,0,.09,0l2.26.49c.11.02.21.09.26.19.06.1.07.22.04.32-.09.28-.18.56-.28.83-.04.12-.02.26.05.37.08.11.2.17.33.17h13.41c.22,0,.4.18.4.4v1.59c0,.22-.18.4-.4.4h-14.81c-.15,0-.29.08-.36.22l-.19.35c-.07.13-.07.28,0,.4.07.12.21.2.35.2h12.79c.22,0,.4.18.4.4v1.55c0,.22-.18.4-.4.4h-13.27c-.22,0-.4-.18-.4-.4v-.27c0-.18-.11-.33-.28-.39-.04-.01-.08-.02-.12-.02-.13,0-.26.06-.33.17-.36.52-.74,1.01-1.12,1.45-.1.12-.13.29-.06.43.07.14.21.23.37.23h14.3c.22,0,.4.18.4.4,0,1.31.02,2.53.05,3.69.03,1.28.11,2.4.23,3.33.12.94.29,1.69.52,2.23.16.38.35.63.58.74.06.03.12.04.18.04.05,0,.1,0,.15-.03.11-.04.19-.13.23-.24.06-.15.1-.36.12-.62.04-.38.07-.83.09-1.37,0-.16.11-.3.26-.36.05-.02.1-.03.15-.03.11,0,.21.04.29.12l.27.26c.29.28.55.51.8.71.1.08.16.21.15.34-.07.91-.18,1.67-.34,2.26-.17.65-.44,1.12-.79,1.42-.35.3-.84.45-1.46.45-1.03,0-1.82-.34-2.42-1.03-.59-.68-1.03-1.65-1.32-2.86s-.49-2.65-.58-4.26c-.04-.77-.08-1.56-.11-2.37,0-.22-.18-.39-.4-.39h-2.19c-.2,0-.37.14-.4.34-.03.2.08.39.27.45l.32.1c.12.04.21.12.25.24.04.11.04.24-.02.35-.6,1.06-1.29,2.08-2.07,3.02-.07.09-.1.2-.09.31.02.11.08.21.17.28.5.36.99.71,1.45,1.07.66.51,1.25,1.01,1.74,1.49.08.08.12.18.12.29,0,.11-.05.22-.13.29l-1.73,1.64c-.08.07-.18.11-.28.11-.11,0-.21-.04-.29-.12-.45-.47-1-.97-1.63-1.5-.45-.38-.93-.77-1.44-1.15-.07-.05-.16-.08-.25-.08-.1,0-.19.04-.27.1-.59.52-1.2,1.02-1.83,1.47-1.28.93-2.62,1.75-4,2.43-.06.03-.12.04-.18.04Z"/>
        <path class="cls-8" d="m114.86,81.64c-.22,0-.4-.18-.4-.4v-11.3c0-.17-.11-.32-.26-.38-.05-.02-.09-.03-.14-.03-.12,0-.23.05-.3.14-.46.53-.94,1.03-1.41,1.49-.08.07-.18.11-.28.11-.02,0-.05,0-.07,0-.13-.02-.24-.11-.29-.23-.06-.12-.12-.26-.2-.4-.19-.37-.4-.74-.62-1.12-.14-.23-.27-.44-.39-.63-.11-.17-.08-.4.07-.53.79-.69,1.56-1.5,2.3-2.41.82-1.02,1.6-2.12,2.31-3.29.64-1.05,1.2-2.14,1.66-3.24.06-.15.21-.25.37-.25.04,0,.08,0,.12.02l2.01.65c.11.04.2.12.25.22.05.1.05.22,0,.33-.58,1.3-1.25,2.61-1.99,3.88l-.05.09c-.04.06-.06.13-.06.21v16.66c0,.22-.18.4-.4.4h-2.2Zm15.61-.02c-1.16-.11-2.15-.54-2.98-1.26-.82-.72-1.52-1.75-2.07-3.03-.56-1.29-1.01-2.85-1.36-4.64-.18-.96-.35-1.99-.48-3.06-.01-.11-.07-.21-.15-.27-.07-.05-.16-.08-.25-.08l-4.05.55s-.04,0-.05,0c-.2,0-.37-.14-.4-.35l-.29-1.99c-.02-.11.01-.22.08-.3.07-.09.16-.14.27-.16l4.15-.55c.21-.03.37-.22.35-.43-.15-1.96-.26-4.1-.35-6.36,0-.11.04-.22.11-.3.08-.08.18-.12.29-.12h2.14c.22,0,.4.18.4.4.03,2.1.12,4.1.27,5.95,0,.11.06.21.15.28.07.06.16.09.25.09,0,0,6.22-.82,6.24-.82.2,0,.37.14.4.34l.29,1.94c.02.11-.01.22-.08.3-.07.09-.16.14-.27.16l-6.26.85c-.11.01-.2.07-.27.16s-.09.19-.08.3c.16,1.16.35,2.23.56,3.2.37,1.69.83,3.05,1.38,4.04.54.98,1.18,1.53,1.9,1.64h.01c.22,0,.37-.11.43-.26.06-.13.15-.32.23-.66.13-.49.24-1.22.32-2.16.01-.15.11-.28.24-.33.05-.02.11-.03.16-.03.09,0,.18.03.25.09l.14.11c.31.23.61.43.92.62.19.11.35.21.49.29.14.08.22.24.2.41-.21,1.43-.47,2.55-.8,3.34-.35.85-.73,1.41-1.15,1.71-.38.27-.77.41-1.18.41,0,0-.12,0-.12,0Zm.44-17.3s-.06,0-.09-.01c-.11-.02-.2-.09-.25-.18-.17-.28-.39-.59-.65-.92-.37-.48-.77-.96-1.2-1.44-.3-.34-.61-.67-.91-.98-.09-.09-.13-.21-.11-.33.01-.12.08-.23.19-.3l1.49-.93c.07-.04.14-.06.21-.06.1,0,.2.04.27.11.35.32.71.67,1.08,1.06.45.47.87.93,1.26,1.4.27.32.5.63.7.92.06.09.08.2.06.31s-.09.2-.18.26l-1.66,1.04c-.07.04-.14.06-.22.06Z"/>
        <path class="cls-8" d="m148.77,80.93c-1.37,0-2.49-.09-3.33-.26-.85-.17-1.47-.42-1.91-.76s-.71-.77-.86-1.31c-.14-.53-.22-1.16-.22-1.87v-6.13c0-.12-.05-.24-.15-.31-.07-.06-.16-.09-.25-.09-.08,0-2.22.45-2.95.6-.52.11-.97.21-1.34.29-.03,0-.06,0-.09,0-.08,0-.16-.02-.22-.07-.09-.06-.15-.15-.17-.26l-.45-2.35c-.02-.11,0-.22.07-.31.06-.09.16-.15.27-.17.41-.06.89-.13,1.44-.22.75-.12,1.6-.26,2.55-.42.32-.05.64-.11.97-.17.19-.04.33-.2.33-.4v-3.12c0-.28,0-.58-.03-.92-.02-.34-.04-.68-.06-1.02-.01-.14-.02-.27-.04-.4-.01-.11.02-.23.1-.32.08-.09.19-.14.3-.14h2.67c.12,0,.23.05.3.14.08.09.11.2.1.32-.03.26-.06.56-.09.89-.04.54-.06,1.02-.06,1.44v2.35c0,.12.05.23.15.31.07.06.17.09.26.09l1.06-.19c1-.19,1.93-.37,2.82-.55.88-.18,1.65-.34,2.29-.47l1.43-.3.96-.26c.1-.03.19-.09.25-.17.06-.1.16-.16.27-.18.02,0,.04,0,.07,0,.09,0,.18.03.25.09l1.98,1.55c.16.13.2.35.1.53l-.17.29c-.17.28-.3.51-.42.72-.28.5-.61,1.07-1,1.7-.39.63-.81,1.28-1.26,1.94-.44.65-.91,1.29-1.4,1.89-.39.49-.78.93-1.15,1.31-.08.08-.18.12-.29.12-.07,0-.14-.02-.21-.06l-1.93-1.14c-.11-.06-.18-.18-.2-.3-.01-.13.03-.25.12-.34.4-.38.79-.8,1.17-1.25.5-.6.97-1.2,1.37-1.78.18-.26.34-.5.48-.73.09-.14.08-.31-.01-.45-.08-.11-.2-.17-.33-.17l-.38.07c-.57.12-1.25.26-2.05.42-.8.16-1.68.34-2.63.52l-1.27.25c-.19.04-.33.2-.33.4v6.09c0,.48.07.88.22,1.19.14.31.44.53.89.66.45.13,1.09.19,1.98.19s1.73-.03,2.58-.1c.86-.06,1.74-.16,2.6-.29.69-.1,1.36-.21,2-.33.02,0,.05,0,.07,0,.1,0,.19.03.26.1.09.08.14.2.14.32l-.07,2.44c0,.2-.15.36-.35.39-.58.08-1.22.15-1.92.22-.84.08-1.72.15-2.62.19-.91.05-1.8.07-2.67.07Zm6.13-17.16c-.13-.01-.25-.09-.32-.21-.23-.44-.49-.92-.78-1.45-.25-.47-.5-.89-.74-1.26-.06-.1-.08-.23-.04-.34s.12-.21.23-.25l1.19-.49s.1-.03.15-.03c.13,0,.26.06.34.18.15.23.31.49.48.77.24.4.47.81.69,1.21.14.25.26.47.37.68.05.1.06.21.02.32-.04.1-.12.19-.22.23l-.86.38c-.06.03-.11.06-.15.11-.08.09-.19.15-.31.15-.01,0-.03,0-.04,0Zm2.92-1.22c-.15,0-.29-.08-.36-.22-.21-.41-.46-.87-.74-1.36-.26-.45-.51-.86-.75-1.22-.07-.1-.08-.23-.05-.34.03-.12.12-.21.23-.26l1.15-.48c.05-.02.1-.03.16-.03.13,0,.26.07.34.18.16.24.32.51.49.8l.72,1.21c.13.22.25.43.35.61.06.1.07.22.03.33s-.12.2-.22.24l-1.18.5c-.05.02-.11.03-.16.03Z"/>
        <path class="cls-8" d="m179.26,79.91c-.11,0-.21-.04-.29-.12s-.12-.18-.12-.29v-.48c.01-.11-.03-.21-.11-.29-.08-.08-.18-.12-.29-.12h-10.87c-.11,0-.21.04-.29.12-.08.08-.12.18-.12.29v.49c0,.22-.18.4-.4.4h-2.53c-.11,0-.21-.04-.29-.12-.08-.08-.12-.18-.12-.29l.05-1.99c0-.37.01-.71.01-1v-13.05c0-.26,0-.51-.02-.74,0-.11.04-.22.12-.3.08-.08.18-.12.29-.12,0,0,.67.02.98.02.45,0,.83.01,1.15.01h13.35c.31,0,.67,0,1.1-.01.29,0,.87-.02.88-.02.11,0,.21.04.29.12.08.08.12.19.12.3l-.02.75c0,.41-.01.81-.01,1.18v11.89c0,.24,0,.55.01.91,0,.36.01.73.01,1.09s0,.68.01.95c0,.11-.04.22-.11.3-.08.08-.18.13-.29.13h-2.52Zm-11.68-14.49c-.22,0-.41.18-.41.4v9.26c0,.22.18.4.41.4h10.92c.22,0,.41-.18.41-.4v-9.26c0-.22-.18-.4-.41-.4h-10.92Z"/>
        <path class="cls-8" d="m187.7,81.73c-.22,0-.4-.18-.4-.4v-1.81c0-.22.18-.4.4-.4h4.36c.22,0,.41-.18.41-.4v-12.08c0-.22.18-.4.4-.4h2.08c.22,0,.4.18.4.4v14.7c0,.22-.18.4-.4.4h-7.25Z"/>
        <path class="cls-8" d="m203.55,80.98c-.22,0-.4-.18-.4-.4v-2.03c0-.22.18-.4.4-.4h8.61c.22,0,.41-.18.41-.4v-4.09c0-.22-.18-.4-.41-.4h-5.82c-.22,0-.4-.18-.4-.4v-2.01c0-.22.18-.4.4-.4h5.82c.22,0,.41-.18.41-.4v-3.49c0-.22-.18-.4-.41-.4h-4.4c-.15,0-.29.08-.36.22-.11.2-.21.4-.33.6-.5.89-1.02,1.7-1.56,2.4-.07.09-.16.14-.27.16-.02,0-.03,0-.05,0-.09,0-.18-.03-.25-.09-.13-.11-.29-.22-.46-.33-.32-.22-.64-.43-.98-.64-.16-.1-.3-.18-.44-.26-.1-.06-.18-.16-.2-.28-.02-.12.01-.24.09-.33.52-.6,1-1.29,1.45-2.06.54-.94,1.03-1.96,1.46-3.03.38-.96.71-1.94.98-2.92.05-.18.21-.3.39-.3.03,0,.06,0,.09.01l2.21.51c.11.02.2.09.26.19.06.1.07.21.04.32-.24.82-.51,1.64-.82,2.46-.05.12-.03.26.04.37.08.11.2.18.33.18h2.75c.22,0,.41-.18.41-.4v-3.61c0-.22.18-.4.4-.4h2.25c.22,0,.4.18.4.4v3.61c0,.22.18.4.41.4h7.42c.22,0,.4.18.4.4v2.03c0,.22-.18.4-.4.4h-7.42c-.22,0-.41.18-.41.4v3.49c0,.22.18.4.41.4h6.47c.22,0,.4.18.4.4v2.01c0,.22-.18.4-.4.4h-6.47c-.22,0-.41.18-.41.4v4.09c0,.22.18.4.41.4h8.66c.22,0,.4.18.4.4v2.03c0,.22-.18.4-.4.4h-21.13Z"/>
        <path class="cls-8" d="m237.32,81.66c-.22,0-.4-.18-.4-.4v-9.02c0-.22.18-.4.4-.4h4.17c.22,0,.41-.18.41-.4v-2.3c0-.22-.18-.4-.41-.4h-5.67c-.22,0-.4-.18-.4-.4v-1.96c0-.22.18-.4.4-.4h5.67c.22,0,.41-.18.41-.4v-1.99c0-.12-.05-.23-.14-.31-.07-.06-.17-.1-.27-.1-1.38.19-2.69.34-3.96.46-.01,0-.03,0-.04,0-.19,0-.35-.13-.39-.32-.06-.27-.15-.57-.26-.9-.09-.27-.18-.51-.27-.73-.05-.12-.04-.25.03-.36.06-.11.18-.18.3-.2.85-.1,1.72-.21,2.59-.33,1.06-.15,2.1-.32,3.09-.51,1.01-.19,1.95-.41,2.82-.64.77-.21,1.47-.43,2.08-.67.05-.02.1-.03.15-.03.11,0,.21.04.29.12l1.61,1.64c.1.1.14.24.11.37-.03.13-.13.24-.26.29-1.02.36-2.15.68-3.34.96-.34.08-.69.16-1.04.23-.19.04-.32.21-.32.4v2.6c0,.22.18.4.41.4h5.4c.22,0,.4.18.4.4v1.96c0,.22-.18.4-.4.4h-5.4c-.22,0-.41.18-.41.4v2.3c0,.22.18.4.41.4h4.19c.22,0,.4.18.4.4v8.9c0,.22-.18.4-.4.4h-1.98c-.22,0-.4-.18-.4-.4,0-.29-.18-.47-.41-.47h-6.47c-.22,0-.41.18-.41.4v.19c0,.22-.18.4-.4.4h-1.86Zm2.67-7.19c-.22,0-.41.18-.41.4v2.73c0,.22.18.4.41.4h6.47c.22,0,.41-.18.41-.4v-2.73c0-.22-.18-.4-.41-.4h-6.47Zm-9.03,6.72c-.09,0-.18-.03-.25-.09l-1.8-1.44c-.17-.13-.2-.37-.08-.55.37-.54.78-1.16,1.23-1.86.53-.83,1.06-1.72,1.61-2.67.46-.78.89-1.58,1.31-2.36.06-.11.16-.19.29-.21.02,0,.05,0,.07,0,.1,0,.2.04.27.11l1.52,1.38c.13.12.17.32.09.48-.38.76-.78,1.53-1.21,2.32-.48.89-.96,1.76-1.46,2.62-.41.72-.83,1.42-1.25,2.09-.06.1-.16.17-.28.19-.02,0-.05,0-.07,0Zm1.72-10.72c-.08,0-.16-.02-.23-.07-.27-.18-.58-.38-.94-.59-.53-.31-1.08-.62-1.66-.95-.42-.23-.81-.44-1.18-.63-.11-.05-.18-.15-.21-.27s0-.24.07-.33l1.11-1.51c.08-.11.2-.17.33-.17.06,0,.11.01.17.04.38.17.8.37,1.25.6.58.29,1.15.58,1.7.86.37.19.7.37.98.54.09.06.16.15.19.26.02.11,0,.22-.06.31l-1.16,1.74c-.06.09-.15.15-.26.17-.03,0-.05,0-.08,0Zm1.08-6.67c-.08,0-.16-.02-.23-.07-.27-.18-.58-.38-.94-.6-.52-.31-1.06-.63-1.63-.96-.41-.24-.79-.46-1.14-.66-.1-.06-.17-.16-.2-.27-.02-.12,0-.24.08-.33l1.16-1.48c.08-.1.2-.16.32-.16.06,0,.12.01.18.04.37.19.79.4,1.23.63.57.29,1.12.58,1.66.87.36.19.68.38.95.54.1.06.16.16.19.27.02.11,0,.23-.07.32l-1.23,1.68c-.08.11-.2.17-.33.17Z"/>
      </g>
      <polygon class="cls-9" points="150 0 132.5 30.19 167.5 30.19 150 0"/>
      <text class="cls-6" transform="translate(49.86 102.44)"><tspan class="cls-20" x="0" y="0">に</tspan><tspan class="cls-4" x="15.27" y="0">近</tspan><tspan class="cls-2" x="31.01" y="0">づ</tspan><tspan class="cls-10" x="46.27" y="0">け</tspan><tspan class="cls-14" x="60.87" y="0">る</tspan><tspan class="cls-18" x="75.87" y="0">可能</tspan><tspan class="cls-3" x="107.23" y="0">性</tspan><tspan class="cls-13" x="122.95" y="0">が</tspan><tspan class="cls-12" x="138.45" y="0">あ</tspan><tspan class="cls-1" x="152.7" y="0">り</tspan><tspan class="cls-12" x="166.06" y="0">ま</tspan><tspan class="cls-5" x="180.31" y="0">す</tspan><tspan class="cls-19" x="193.87" y="0">。</tspan></text>
    </g>
  </g>
</svg>