<?xml version="1.0" encoding="UTF-8"?>
<svg id="Layer_2" data-name="Layer 2" xmlns="http://www.w3.org/2000/svg" viewBox="0 0 34.45 34.45">
  <defs>
    <style>
      .cls-1 {
        fill: none;
        stroke: #3283ff;
        stroke-miterlimit: 10;
        stroke-width: 7px;
      }

      .cls-2 {
        fill: #3283ff;
        stroke-width: 0px;
      }
    </style>
  </defs>
  <g id="design">
    <g>
      <path class="cls-2" d="m15,5c2.67,0,5.18,1.04,7.07,2.93,3.9,3.9,3.9,10.24,0,14.14-1.89,1.89-4.4,2.93-7.07,2.93s-5.18-1.04-7.07-2.93c-3.9-3.9-3.9-10.24,0-14.14,1.89-1.89,4.4-2.93,7.07-2.93m0-5c-3.84,0-7.68,1.46-10.61,4.39-5.86,5.86-5.86,15.35,0,21.21,2.93,2.93,6.77,4.39,10.61,4.39s7.68-1.46,10.61-4.39c5.86-5.86,5.86-15.35,0-21.21C22.68,1.46,18.84,0,15,0h0Z"/>
      <line class="cls-1" x1="23.49" y1="23.49" x2="31.97" y2="31.97"/>
    </g>
  </g>
</svg>