<?xml version="1.0" encoding="UTF-8"?>
<svg id="Layer_2" data-name="Layer 2" xmlns="http://www.w3.org/2000/svg" xmlns:xlink="http://www.w3.org/1999/xlink" viewBox="0 0 1920 960">
  <defs>
    <style>
      .cls-1 {
        fill: url(#_新規グラデーションスウォッチ_1-14);
      }

      .cls-1, .cls-2, .cls-3, .cls-4, .cls-5, .cls-6, .cls-7, .cls-8, .cls-9, .cls-10, .cls-11, .cls-12, .cls-13, .cls-14, .cls-15, .cls-16, .cls-17, .cls-18, .cls-19, .cls-20, .cls-21, .cls-22, .cls-23 {
        stroke-width: 0px;
      }

      .cls-2 {
        fill: url(#_新規グラデーションスウォッチ_1-11);
      }

      .cls-3 {
        fill: url(#_新規グラデーションスウォッチ_1-13);
      }

      .cls-4 {
        fill: url(#_新規グラデーションスウォッチ_1-16);
      }

      .cls-5 {
        fill: url(#_新規グラデーションスウォッチ_1-10);
      }

      .cls-6 {
        fill: url(#_新規グラデーションスウォッチ_1-17);
      }

      .cls-7 {
        fill: url(#_新規グラデーションスウォッチ_1-19);
      }

      .cls-8 {
        fill: url(#_新規グラデーションスウォッチ_1-15);
      }

      .cls-9 {
        fill: url(#_新規グラデーションスウォッチ_1-18);
      }

      .cls-10 {
        fill: url(#_新規グラデーションスウォッチ_1-12);
      }

      .cls-11 {
        fill: url(#_新規グラデーションスウォッチ_1-20);
      }

      .cls-24 {
        clip-path: url(#clippath);
      }

      .cls-12 {
        fill: none;
      }

      .cls-13 {
        fill: url(#_新規グラデーションスウォッチ_1);
      }

      .cls-14 {
        fill: url(#_新規グラデーションスウォッチ_1-9);
      }

      .cls-15 {
        fill: url(#_新規グラデーションスウォッチ_1-2);
      }

      .cls-16 {
        fill: url(#_新規グラデーションスウォッチ_1-4);
      }

      .cls-17 {
        fill: url(#_新規グラデーションスウォッチ_1-3);
      }

      .cls-18 {
        fill: url(#_新規グラデーションスウォッチ_1-8);
      }

      .cls-19 {
        fill: url(#_新規グラデーションスウォッチ_1-7);
      }

      .cls-20 {
        fill: url(#_新規グラデーションスウォッチ_1-5);
      }

      .cls-21 {
        fill: url(#_新規グラデーションスウォッチ_1-6);
      }

      .cls-25 {
        opacity: .32;
      }

      .cls-22 {
        fill: url(#_新規グラデーションスウォッチ_4);
        opacity: .5;
      }

      .cls-23 {
        fill: #fff;
      }
    </style>
    <clipPath id="clippath">
      <rect class="cls-12" width="1920" height="960"/>
    </clipPath>
    <linearGradient id="_新規グラデーションスウォッチ_1" data-name="新規グラデーションスウォッチ 1" x1="-6117.97" y1="-3587.25" x2="4148.84" y2="-3587.25" gradientTransform="translate(3219.15 3758.06) rotate(-45)" gradientUnits="userSpaceOnUse">
      <stop offset="0" stop-color="#b7e7d5"/>
      <stop offset=".5" stop-color="#d5efff"/>
      <stop offset="1" stop-color="#d2faff"/>
    </linearGradient>
    <linearGradient id="_新規グラデーションスウォッチ_1-2" data-name="新規グラデーションスウォッチ 1" x1="513.8" y1="-3212.99" x2="1637.24" y2="-3212.99" xlink:href="#_新規グラデーションスウォッチ_1"/>
    <linearGradient id="_新規グラデーションスウォッチ_1-3" data-name="新規グラデーションスウォッチ 1" x1="513.8" y1="-3212.99" x2="1637.24" y2="-3212.99" xlink:href="#_新規グラデーションスウォッチ_1"/>
    <linearGradient id="_新規グラデーションスウォッチ_1-4" data-name="新規グラデーションスウォッチ 1" x1="513.8" y1="-3212.99" x2="1637.24" y2="-3212.99" xlink:href="#_新規グラデーションスウォッチ_1"/>
    <linearGradient id="_新規グラデーションスウォッチ_1-5" data-name="新規グラデーションスウォッチ 1" x1="299.54" y1="-3278.23" x2="1422.98" y2="-3278.23" xlink:href="#_新規グラデーションスウォッチ_1"/>
    <linearGradient id="_新規グラデーションスウォッチ_1-6" data-name="新規グラデーションスウォッチ 1" x1="537.13" y1="-2984.07" x2="1660.57" y2="-2984.07" xlink:href="#_新規グラデーションスウォッチ_1"/>
    <linearGradient id="_新規グラデーションスウォッチ_1-7" data-name="新規グラデーションスウォッチ 1" x1="882.3" y1="-3798.18" x2="2005.74" y2="-3798.18" xlink:href="#_新規グラデーションスウォッチ_1"/>
    <linearGradient id="_新規グラデーションスウォッチ_1-8" data-name="新規グラデーションスウォッチ 1" x1="-6057.05" y1="-4381.71" x2="1737.94" y2="-4381.71" gradientTransform="translate(3219.15 3758.06) rotate(-45)" xlink:href="#_新規グラデーションスウォッチ_1"/>
    <linearGradient id="_新規グラデーションスウォッチ_1-9" data-name="新規グラデーションスウォッチ 1" x1="-725.76" y1="-4164.05" x2="397.68" y2="-4164.05" gradientTransform="translate(3219.15 3758.06) rotate(-45)" xlink:href="#_新規グラデーションスウォッチ_1"/>
    <linearGradient id="_新規グラデーションスウォッチ_1-10" data-name="新規グラデーションスウォッチ 1" x1="-725.76" y1="-4164.05" x2="397.68" y2="-4164.05" gradientTransform="translate(3219.15 3758.06) rotate(-45)" xlink:href="#_新規グラデーションスウォッチ_1"/>
    <linearGradient id="_新規グラデーションスウォッチ_1-11" data-name="新規グラデーションスウォッチ 1" x1="-245.64" y1="-4664.15" x2="877.81" y2="-4664.15" gradientTransform="translate(3219.15 3758.06) rotate(-45)" xlink:href="#_新規グラデーションスウォッチ_1"/>
    <linearGradient id="_新規グラデーションスウォッチ_1-12" data-name="新規グラデーションスウォッチ 1" x1="-245.64" y1="-4664.15" x2="877.81" y2="-4664.15" gradientTransform="translate(3219.15 3758.06) rotate(-45)" xlink:href="#_新規グラデーションスウォッチ_1"/>
    <linearGradient id="_新規グラデーションスウォッチ_1-13" data-name="新規グラデーションスウォッチ 1" x1="23.16" y1="-4795.91" x2="1146.6" y2="-4795.91" gradientTransform="translate(3219.15 3758.06) rotate(-45)" xlink:href="#_新規グラデーションスウォッチ_1"/>
    <linearGradient id="_新規グラデーションスウォッチ_1-14" data-name="新規グラデーションスウォッチ 1" x1="176.09" y1="-4793.79" x2="864.99" y2="-4793.79" gradientTransform="translate(3219.15 3758.06) rotate(-45)" xlink:href="#_新規グラデーションスウォッチ_1"/>
    <linearGradient id="_新規グラデーションスウォッチ_1-15" data-name="新規グラデーションスウォッチ 1" x1="40.22" y1="-4590" x2="1997.76" y2="-4590" gradientTransform="translate(3219.15 3758.06) rotate(-45)" xlink:href="#_新規グラデーションスウォッチ_1"/>
    <linearGradient id="_新規グラデーションスウォッチ_1-16" data-name="新規グラデーションスウォッチ 1" x1="1388.24" y1="575.2" x2="1867.68" y2="41.55" gradientTransform="matrix(1,0,0,1,0,0)" xlink:href="#_新規グラデーションスウォッチ_1"/>
    <linearGradient id="_新規グラデーションスウォッチ_1-17" data-name="新規グラデーションスウォッチ 1" x1="1256.28" y1="286.87" x2="1601.76" y2="-194.72" gradientTransform="matrix(1,0,0,1,0,0)" xlink:href="#_新規グラデーションスウォッチ_1"/>
    <linearGradient id="_新規グラデーションスウォッチ_1-18" data-name="新規グラデーションスウォッチ 1" x1="256.62" y1="486.11" x2="518.14" y2="154.24" gradientTransform="matrix(1,0,0,1,0,0)" xlink:href="#_新規グラデーションスウォッチ_1"/>
    <linearGradient id="_新規グラデーションスウォッチ_1-19" data-name="新規グラデーションスウォッチ 1" x1="1557.15" y1="1031.57" x2="1867.06" y2="686.61" gradientTransform="matrix(1,0,0,1,0,0)" xlink:href="#_新規グラデーションスウォッチ_1"/>
    <linearGradient id="_新規グラデーションスウォッチ_1-20" data-name="新規グラデーションスウォッチ 1" x1="128.82" y1="459.13" x2="272.38" y2="304.35" gradientTransform="matrix(1,0,0,1,0,0)" xlink:href="#_新規グラデーションスウォッチ_1"/>
    <linearGradient id="_新規グラデーションスウォッチ_4" data-name="新規グラデーションスウォッチ 4" x1="2883.2" y1="-344.68" x2="3554.29" y2="-678.99" gradientTransform="translate(-1528.24 -1122.43) rotate(34.84) scale(1.24 1.16) skewX(-19.15)" gradientUnits="userSpaceOnUse">
      <stop offset="0" stop-color="#b7e7d5"/>
      <stop offset="1" stop-color="#66b1f9"/>
    </linearGradient>
  </defs>
  <g id="design">
    <rect class="cls-23" width="1920" height="960"/>
    <g class="cls-24">
      <g class="cls-25">
        <path class="cls-13" d="m1965.67-172.2l-249.28,249.28c-30.54,30.54-30.54,80.06,0,110.6,30.54,30.54,80.06,30.54,110.6,0l249.28-249.28c30.54-30.54,30.54-80.06,0-110.6-30.54-30.54-80.06-30.54-110.6,0Z"/>
        <path class="cls-15" d="m1824.84,592.77l-18.38,18.38c-4.35,4.35-4.35,11.4,0,15.75s11.4,4.35,15.75,0l18.38-18.38c4.35-4.35,4.35-11.4,0-15.75-4.35-4.35-11.4-4.35-15.75,0Z"/>
        <path class="cls-17" d="m1756.58,661.03l-91.89,91.89c-4.35,4.35-4.35,11.4,0,15.75,4.35,4.35,11.4,4.35,15.75,0l91.89-91.89c4.35-4.35,4.35-11.4,0-15.75-4.35-4.35-11.4-4.35-15.75,0Z"/>
        <path class="cls-16" d="m1635.82,797.54c-4.35-4.35-11.4-4.35-15.75,0l-301.91,301.91c-4.35,4.35-4.35,11.4,0,15.75,4.35,4.35,11.4,4.35,15.75,0l301.91-301.91c4.35-4.35,4.35-11.4,0-15.75Z"/>
        <path class="cls-20" d="m1661.34,658.76l-131.27,131.27c-5.8,5.8-5.8,15.2,0,21s15.2,5.8,21,0l131.27-131.27c5.8-5.8,5.8-15.2,0-21s-15.2-5.8-21,0Z"/>
        <path class="cls-21" d="m1730.18,1005.92c-5.8,5.8-5.8,15.2,0,21,5.8,5.8,15.2,5.8,21,0l136.52-136.52c5.8-5.8,5.8-15.2,0-21s-15.2-5.8-21,0l-136.52,136.52Z"/>
        <path class="cls-19" d="m1493.09,131.06l168.02-168.02c5.07-5.07,5.07-13.3,0-18.38-5.07-5.07-13.3-5.07-18.38,0l-168.02,168.02c-5.07,5.07-5.07,13.3,0,18.38,5.07,5.07,13.3,5.07,18.38,0Z"/>
      </g>
      <g class="cls-25">
        <path class="cls-18" d="m93.44,600.03l-186.18,186.18c-24.04,24.04-24.04,63.02,0,87.06,24.04,24.04,63.02,24.04,87.06,0l186.18-186.18c24.04-24.04,24.04-63.02,0-87.06-24.04-24.04-63.02-24.04-87.06,0Z"/>
        <path class="cls-14" d="m275.84,796.77l-18.38,18.38c-4.35,4.35-4.35,11.4,0,15.75,4.35,4.35,11.4,4.35,15.75,0l18.38-18.38c4.35-4.35,4.35-11.4,0-15.75s-11.4-4.35-15.75,0Z"/>
        <path class="cls-5" d="m207.58,865.03l-91.89,91.89c-4.35,4.35-4.35,11.4,0,15.75s11.4,4.35,15.75,0l91.89-91.89c4.35-4.35,4.35-11.4,0-15.75s-11.4-4.35-15.75,0Z"/>
        <path class="cls-2" d="m295.84,64.26l-131.27,131.27c-5.8,5.8-5.8,15.2,0,21,5.8,5.8,15.2,5.8,21,0l131.27-131.27c5.8-5.8,5.8-15.2,0-21-5.8-5.8-15.2-5.8-21,0Z"/>
        <path class="cls-10" d="m-11.32,371.42c-5.8,5.8-5.8,15.2,0,21s15.2,5.8,21,0l136.52-136.52c5.8-5.8,5.8-15.2,0-21s-15.2-5.8-21,0L-11.32,371.42Z"/>
        <path class="cls-3" d="m180.09,33.06l168.02-168.02c5.07-5.07,5.07-13.3,0-18.38-5.07-5.07-13.3-5.07-18.38,0L161.72,14.68c-5.07,5.07-5.07,13.3,0,18.38,5.07,5.07,13.3,5.07,18.38,0Z"/>
        <path class="cls-1" d="m67.15,149l66.56-66.56c5.03-5.03,5.54-13.3.66-18.48-5.05-5.36-13.49-5.45-18.66-.29l-66.95,66.95c-5.07,5.07-5.07,13.3,0,18.38h0c5.07,5.07,13.3,5.07,18.38,0Z"/>
        <path class="cls-8" d="m279.69,237.42l430.22-430.22c8.53-8.53,9.39-22.53,1.12-31.31-8.56-9.08-22.86-9.25-31.62-.49L248.55,206.28c-8.6,8.6-8.6,22.55,0,31.15h0c8.6,8.6,22.55,8.6,31.15,0Z"/>
      </g>
      <circle class="cls-4" cx="1512.35" cy="437.06" r="31.62"/>
      <circle class="cls-6" cx="1456.08" cy="8.35" r="19.62"/>
      <circle class="cls-9" cx="498.93" cy="178.62" r="18.17"/>
      <circle class="cls-7" cx="1637.37" cy="942.27" r="20.44"/>
      <circle class="cls-11" cx="154.3" cy="431.66" r="24.77"/>
      <rect class="cls-22" x="1743.28" y="670.08" width="269.88" height="64.23" rx="32.11" ry="32.11" transform="translate(53.59 1533.77) rotate(-45)"/>
    </g>
  </g>
</svg>