<?xml version="1.0" encoding="UTF-8"?>
<svg id="Layer_2" data-name="Layer 2" xmlns="http://www.w3.org/2000/svg" xmlns:xlink="http://www.w3.org/1999/xlink" viewBox="0 0 542.9 1041.96">
  <defs>
    <style>
      .cls-1 {
        clip-path: url(#clippath);
      }

      .cls-2 {
        fill: none;
      }

      .cls-2, .cls-3, .cls-4, .cls-5, .cls-6, .cls-7, .cls-8, .cls-9, .cls-10, .cls-11, .cls-12, .cls-13, .cls-14, .cls-15, .cls-16, .cls-17, .cls-18, .cls-19, .cls-20 {
        stroke-width: 0px;
      }

      .cls-3 {
        fill: url(#linear-gradient);
      }

      .cls-4 {
        fill: url(#linear-gradient-11);
      }

      .cls-5 {
        fill: url(#linear-gradient-12);
      }

      .cls-6 {
        fill: url(#linear-gradient-13);
      }

      .cls-7 {
        fill: url(#linear-gradient-10);
      }

      .cls-8 {
        fill: url(#linear-gradient-16);
      }

      .cls-9 {
        fill: url(#linear-gradient-15);
      }

      .cls-10 {
        fill: url(#linear-gradient-17);
        opacity: .5;
      }

      .cls-10, .cls-19 {
        isolation: isolate;
      }

      .cls-21 {
        opacity: .32;
      }

      .cls-11 {
        fill: url(#linear-gradient-4);
      }

      .cls-12 {
        fill: url(#linear-gradient-2);
      }

      .cls-13 {
        fill: url(#linear-gradient-3);
      }

      .cls-14 {
        fill: url(#linear-gradient-8);
      }

      .cls-15 {
        fill: url(#linear-gradient-9);
      }

      .cls-16 {
        fill: url(#linear-gradient-7);
      }

      .cls-17 {
        fill: url(#linear-gradient-5);
      }

      .cls-18 {
        fill: url(#linear-gradient-6);
      }

      .cls-19 {
        fill: url(#linear-gradient-14);
        opacity: .7;
      }

      .cls-20 {
        fill: #fff;
      }
    </style>
    <clipPath id="clippath">
      <rect class="cls-2" width="542.9" height="1041.96"/>
    </clipPath>
    <linearGradient id="linear-gradient" x1="-3529.35" y1="3595.03" x2="-2751.92" y2="3595.03" gradientTransform="translate(5106.61 1314.13) rotate(-45) scale(1 -1)" gradientUnits="userSpaceOnUse">
      <stop offset="0" stop-color="#b7e7d5"/>
      <stop offset=".5" stop-color="#d5efff"/>
      <stop offset="1" stop-color="#d2faff"/>
    </linearGradient>
    <linearGradient id="linear-gradient-2" x1="-8576.12" y1="3462.07" x2="-1317.77" y2="3462.07" xlink:href="#linear-gradient"/>
    <linearGradient id="linear-gradient-3" x1="-3722.37" y1="3653.9" x2="-2944.96" y2="3653.9" xlink:href="#linear-gradient"/>
    <linearGradient id="linear-gradient-4" x1="-3816.3" y1="3820.36" x2="-3039.13" y2="3820.36" xlink:href="#linear-gradient"/>
    <linearGradient id="linear-gradient-5" x1="-3237.83" y1="3563.17" x2="-2460.67" y2="3563.17" xlink:href="#linear-gradient"/>
    <linearGradient id="linear-gradient-6" x1="-3620.59" y1="3605.81" x2="-2843.46" y2="3605.81" xlink:href="#linear-gradient"/>
    <linearGradient id="linear-gradient-7" x1="-6400.61" y1="4325.93" x2="-1656" y2="4325.93" xlink:href="#linear-gradient"/>
    <linearGradient id="linear-gradient-8" x1="-2657.84" y1="4157.52" x2="-1974.17" y2="4157.52" xlink:href="#linear-gradient"/>
    <linearGradient id="linear-gradient-9" x1="-2657.79" y1="4167.19" x2="-1974.19" y2="4167.19" xlink:href="#linear-gradient"/>
    <linearGradient id="linear-gradient-10" x1="-3130.3" y1="4462.16" x2="-2446.62" y2="4462.16" xlink:href="#linear-gradient"/>
    <linearGradient id="linear-gradient-11" x1="-2513.6" y1="4123.58" x2="-1829.91" y2="4123.58" xlink:href="#linear-gradient"/>
    <linearGradient id="linear-gradient-12" x1="-3024.15" y1="4496.6" x2="-2340.5" y2="4496.6" xlink:href="#linear-gradient"/>
    <linearGradient id="linear-gradient-13" x1="-2840.01" y1="4409.16" x2="-1648.84" y2="4409.16" xlink:href="#linear-gradient"/>
    <linearGradient id="linear-gradient-14" x1="315.79" y1="-8.11" x2="646.09" y2="359.56" gradientTransform="translate(0 1044) scale(1 -1)" xlink:href="#linear-gradient"/>
    <linearGradient id="linear-gradient-15" x1="379.19" y1="723.23" x2="614.82" y2="1051.68" gradientTransform="translate(0 1044) scale(1 -1)" xlink:href="#linear-gradient"/>
    <linearGradient id="linear-gradient-16" x1="-124.01" y1="691.22" x2="55.09" y2="918.49" gradientTransform="translate(0 1044) scale(1 -1)" xlink:href="#linear-gradient"/>
    <linearGradient id="linear-gradient-17" x1="1699.2" y1="1697.9" x2="2175.47" y2="1935.15" gradientTransform="translate(-1985.46 3028.57) rotate(-10.16) scale(1.24 -1.16) skewX(19.15)" gradientUnits="userSpaceOnUse">
      <stop offset="0" stop-color="#b7e7d5"/>
      <stop offset="1" stop-color="#66b1f9"/>
    </linearGradient>
  </defs>
  <g id="Layer_2-2" data-name="Layer 2">
    <g id="design">
      <g>
        <rect class="cls-20" width="542.9" height="1041.96"/>
        <g class="cls-1">
          <g>
            <g class="cls-21">
              <path class="cls-3" d="m451.24,873.4l-17.1,15.58c-3.68,3.35-3.68,8.77,0,12.12,3.68,3.35,9.63,3.35,13.3,0l17.1-15.58c3.68-3.35,3.68-8.77,0-12.12-3.68-3.35-9.63-3.35-13.3,0Z"/>
              <path class="cls-12" d="m562.1,892.56l-184.37,167.97c-22.58,20.58-22.58,53.94,0,74.53,22.58,20.58,59.21,20.58,81.81,0l184.37-167.97c22.58-20.58,22.58-53.94,0-74.53-22.58-20.58-59.21-20.58-81.81,0Z"/>
              <path class="cls-13" d="m246.72,996.31l-13.3,12.12c-3.16,2.88-3.14,7.52,0,10.39s8.25,2.88,11.41,0l13.3-12.12c3.16-2.88,3.14-7.52,0-10.39-3.14-2.86-8.25-2.88-11.41,0Z"/>
              <path class="cls-11" d="m87.83,919.8L-7.18,1006.36c-4.2,3.82-4.2,10.02,0,13.85s11,3.82,15.2,0l95.01-86.56c4.2-3.82,4.2-10.02,0-13.85s-11-3.82-15.2,0Z"/>
              <path class="cls-17" d="m461.96,900.78c-4.2,3.82-4.2,10.02,0,13.85,4.2,3.82,11,3.82,15.2,0l98.82-90.03c4.2-3.82,4.2-10.02,0-13.85s-11-3.82-15.2,0l-98.82,90.03Z"/>
              <path class="cls-18" d="m226.64,1102.01l121.62-110.8c3.68-3.35,3.68-8.77,0-12.12s-9.63-3.35-13.3,0l-121.62,110.8c-3.68,3.35-3.68,8.77,0,12.12s9.63,3.35,13.3,0h0Z"/>
            </g>
            <g class="cls-21">
              <path class="cls-16" d="m113.47,141.79L-5.08,249.79c-15.3,13.94-15.3,36.56,0,50.5s40.13,13.94,55.43,0l118.55-108.01c15.3-13.94,15.3-36.56,0-50.5-15.3-13.94-40.13-13.94-55.43,0Z"/>
              <path class="cls-14" d="m559.94-25.8l-58.52,53.31c-2.77,2.52-2.77,6.62,0,9.14,2.77,2.52,7.25,2.52,10.03,0l58.52-53.31c2.77-2.52,2.77-6.62,0-9.14-2.77-2.52-7.25-2.52-10.03,0Z"/>
              <path class="cls-15" d="m483.04,53.4c-2.77-2.52-7.25-2.52-10.03,0l-192.26,175.15c-2.77,2.52-2.77,6.62,0,9.14s7.25,2.52,10.03,0L483.04,62.54c2.77-2.52,2.77-6.62,0-9.14h0Z"/>
              <path class="cls-7" d="m73.24,27.99L-10.35,104.14c-3.69,3.36-3.69,8.82,0,12.19s9.69,3.36,13.38,0L86.62,40.17c3.69-3.36,3.69-8.82,0-12.19s-9.69-3.36-13.38,0h0Z"/>
              <path class="cls-4" d="m473.81,99.62c-3.69,3.36-3.69,8.82,0,12.19,3.69,3.36,9.69,3.36,13.38,0l65.21-59.4c3.69-3.36,3.69-8.82,0-12.19s-9.69-3.36-13.38,0l-65.21,59.4h0Z"/>
              <path class="cls-5" d="m-9.15,77.16L97.84-20.31c3.23-2.94,3.23-7.72,0-10.66s-8.47-2.94-11.7,0L-20.85,66.5c-3.23,2.94-3.23,7.72,0,10.66s8.47,2.94,11.7,0Z"/>
              <path class="cls-6" d="m144.03,48l273.95-249.6c5.43-4.95,5.98-13.07.71-18.16-5.44-5.28-14.55-5.37-20.14-.28L124.19,29.93c-5.47,4.99-5.47,13.08,0,18.07h0c5.47,4.99,14.36,4.99,19.83,0h.01Z"/>
            </g>
            <ellipse class="cls-19" cx="401.28" cy="956.94" rx="22.89" ry="20.85"/>
            <ellipse class="cls-9" cx="515.47" cy="130.81" rx="14.2" ry="12.94"/>
            <ellipse class="cls-8" cx="41.94" cy="142.19" rx="13.15" ry="11.98"/>
            <path class="cls-10" d="m465.31,576.52l105.26-95.89c9.08-8.27,23.8-8.27,32.88,0h0c9.08,8.27,9.07,21.68,0,29.95l-105.26,95.89c-9.08,8.27-23.8,8.27-32.88,0h0c-9.08-8.27-9.07-21.68,0-29.95Z"/>
          </g>
        </g>
      </g>
    </g>
  </g>
</svg>