<?xml version="1.0" encoding="UTF-8"?>
<svg id="Layer_2" data-name="Layer 2" xmlns="http://www.w3.org/2000/svg" viewBox="0 0 800 680">
  <defs>
    <style>
      .cls-1 {
        fill: #f6f7f8;
      }

      .cls-1, .cls-2, .cls-3 {
        stroke-width: 0px;
      }

      .cls-2 {
        fill: #fff;
      }

      .cls-3 {
        fill: #66b1f9;
      }
    </style>
  </defs>
  <g id="design">
    <g>
      <path class="cls-1" d="m800,170l-400,60L0,170V20C0,8.95,8.95,0,20,0h760c11.05,0,20,8.95,20,20v150Z"/>
      <polygon class="cls-1" points="0 410 400 470 800 410 800 190 400 250 0 190 0 410"/>
      <path class="cls-1" d="m20,680h760c11.05,0,20-8.95,20-20v-230l-400,60L0,430v230c0,11.05,8.95,20,20,20Z"/>
      <circle class="cls-3" cx="80" cy="90.67" r="50"/>
      <circle class="cls-3" cx="80" cy="567" r="50"/>
      <circle class="cls-3" cx="80" cy="328.84" r="50"/>
      <path class="cls-2" d="m78.76,109.2v-32.35h-.1l-6.35,3.5-1.3-4.25,8.5-4.55h4.9v37.65h-5.65Z"/>
      <path class="cls-2" d="m91.26,347.58h-22.9v-3.55l3.95-4.15c7.95-8.15,12.35-13.35,12.35-19,0-3.65-1.75-6.85-6.5-6.85-2.9,0-5.5,1.55-7.25,2.95l-1.75-4.15c2.3-1.9,5.95-3.5,10.15-3.5,7.75,0,11.15,5.25,11.15,10.95,0,6.9-4.7,12.65-11.25,19.25l-3.1,3.15v.1h15.15v4.8Z"/>
      <path class="cls-2" d="m82.71,565.44c4.25.8,7.9,4.25,7.9,9.55,0,6.15-4.7,11.3-13.25,11.3-3.9,0-7.4-1.15-9.2-2.35l1.5-4.45c1.35.9,4.35,2.15,7.45,2.15,5.35,0,7.55-3.5,7.55-6.85,0-4.85-4.1-7.1-8.55-7.1h-2.55v-4.15h2.45c3.25,0,7.5-1.95,7.5-6.1,0-2.95-1.9-5.3-5.9-5.3-2.65,0-5.25,1.25-6.7,2.25l-1.45-4.15c1.9-1.4,5.55-2.75,9.45-2.75,7.05,0,10.5,4.25,10.5,9.05,0,3.85-2.4,7.2-6.7,8.8v.1Z"/>
    </g>
  </g>
</svg>
