<?xml version="1.0" encoding="UTF-8"?>
<svg id="Layer_2" data-name="Layer 2" xmlns="http://www.w3.org/2000/svg" xmlns:xlink="http://www.w3.org/1999/xlink" viewBox="0 0 375 122.71">
  <defs>
    <style>
      .cls-1 {
        clip-path: url(#clippath);
      }

      .cls-2, .cls-3, .cls-4, .cls-5, .cls-6, .cls-7, .cls-8, .cls-9, .cls-10, .cls-11, .cls-12, .cls-13, .cls-14 {
        stroke-width: 0px;
      }

      .cls-2, .cls-15 {
        fill: none;
      }

      .cls-3 {
        fill: url(#_新規グラデーションスウォッチ_1);
      }

      .cls-4 {
        fill: url(#_新規グラデーションスウォッチ_1-9);
      }

      .cls-5 {
        fill: url(#_新規グラデーションスウォッチ_1-2);
      }

      .cls-6 {
        fill: url(#_新規グラデーションスウォッチ_1-4);
      }

      .cls-7 {
        fill: url(#_新規グラデーションスウォッチ_1-3);
      }

      .cls-8 {
        fill: url(#_新規グラデーションスウォッチ_1-8);
      }

      .cls-9 {
        fill: url(#_新規グラデーションスウォッチ_1-7);
      }

      .cls-10 {
        fill: url(#_新規グラデーションスウォッチ_1-5);
      }

      .cls-11 {
        fill: url(#_新規グラデーションスウォッチ_1-6);
      }

      .cls-15 {
        stroke: #fff;
        stroke-linecap: round;
        stroke-linejoin: round;
        stroke-width: 1.33px;
      }

      .cls-12 {
        fill: #b7e7d5;
      }

      .cls-13 {
        fill: #fff;
      }

      .cls-14 {
        fill: #e6f2f3;
      }
    </style>
    <clipPath id="clippath">
      <rect class="cls-2" y=".71" width="375" height="122"/>
    </clipPath>
    <linearGradient id="_新規グラデーションスウォッチ_1" data-name="新規グラデーションスウォッチ 1" x1="36.75" y1="94.37" x2="1164.92" y2="156.04" gradientUnits="userSpaceOnUse">
      <stop offset="0" stop-color="#b7e7d5"/>
      <stop offset=".5" stop-color="#d5efff"/>
      <stop offset="1" stop-color="#d2faff"/>
    </linearGradient>
    <linearGradient id="_新規グラデーションスウォッチ_1-2" data-name="新規グラデーションスウォッチ 1" x1="36.68" y1="95.65" x2="1164.85" y2="157.31" xlink:href="#_新規グラデーションスウォッチ_1"/>
    <linearGradient id="_新規グラデーションスウォッチ_1-3" data-name="新規グラデーションスウォッチ 1" x1="37.53" y1="80.21" x2="1165.69" y2="141.87" xlink:href="#_新規グラデーションスウォッチ_1"/>
    <linearGradient id="_新規グラデーションスウォッチ_1-4" data-name="新規グラデーションスウォッチ 1" x1="36.83" y1="92.54" x2="1165" y2="154.2" xlink:href="#_新規グラデーションスウォッチ_1"/>
    <linearGradient id="_新規グラデーションスウォッチ_1-5" data-name="新規グラデーションスウォッチ 1" x1="37.31" y1="84.15" x2="1165.48" y2="145.81" xlink:href="#_新規グラデーションスウォッチ_1"/>
    <linearGradient id="_新規グラデーションスウォッチ_1-6" data-name="新規グラデーションスウォッチ 1" x1="37.53" y1="80.17" x2="1165.69" y2="141.83" xlink:href="#_新規グラデーションスウォッチ_1"/>
    <linearGradient id="_新規グラデーションスウォッチ_1-7" data-name="新規グラデーションスウォッチ 1" x1="36.41" y1="100.74" x2="1164.57" y2="162.4" xlink:href="#_新規グラデーションスウォッチ_1"/>
    <linearGradient id="_新規グラデーションスウォッチ_1-8" data-name="新規グラデーションスウォッチ 1" x1="36.21" y1="104.3" x2="1164.38" y2="165.96" xlink:href="#_新規グラデーションスウォッチ_1"/>
    <linearGradient id="_新規グラデーションスウォッチ_1-9" data-name="新規グラデーションスウォッチ 1" x1="36.17" y1="104.97" x2="1164.34" y2="166.63" xlink:href="#_新規グラデーションスウォッチ_1"/>
  </defs>
  <g id="design">
    <rect class="cls-14" width="375" height="122.71"/>
    <g class="cls-1">
      <g>
        <g>
          <polygon class="cls-3" points="113.93 115.03 69.14 115.03 69.17 78.9 99.09 78.9 113.96 92.78 113.93 115.03"/>
          <polygon class="cls-5" points="84.81 93.08 69.21 78.98 53.62 93.08 53.62 102.36 53.62 115.03 69.21 115.03 84.81 115.03 84.81 102.36 84.81 93.08"/>
          <rect class="cls-13" x="66.31" y="90.35" width="5.64" height="5.64"/>
          <rect class="cls-13" x="91.42" y="102.98" width="5.64" height="5.64"/>
          <rect class="cls-13" x="72.37" y="102.98" width="5.64" height="5.64"/>
          <rect class="cls-13" x="102.18" y="102.98" width="5.64" height="5.64"/>
          <rect class="cls-13" x="59.97" y="102.98" width="5.83" height="12.04"/>
        </g>
        <g>
          <polygon class="cls-7" points="255.64 82.65 255.64 74.72 240.75 74.72 240.75 66.8 225.85 66.8 225.85 99.68 225.86 99.68 225.85 115.01 270.5 115.01 270.5 113.26 270.53 113.26 270.53 82.65 255.64 82.65"/>
          <rect class="cls-13" x="251.56" y="102.98" width="12.14" height="5.64"/>
          <rect class="cls-13" x="233.2" y="102.98" width="5.83" height="12.04"/>
          <rect class="cls-13" x="239.05" y="102.98" width="5.83" height="12.04"/>
          <rect class="cls-13" x="233.15" y="89.46" width="5.64" height="5.64"/>
          <rect class="cls-13" x="244.96" y="89.46" width="5.64" height="5.64"/>
        </g>
        <g>
          <polygon class="cls-6" points="157.36 91.74 146.51 80.89 135.66 91.74 125.21 91.74 125.19 115.03 168.11 115.03 168.13 91.74 157.36 91.74"/>
          <polygon class="cls-13" points="168.13 78.12 125.21 78.12 125.2 91.74 135.64 91.74 146.49 80.89 157.35 91.74 168.12 91.74 168.13 78.12"/>
          <rect class="cls-13" x="143.84" y="91.9" width="5.64" height="5.64"/>
          <rect class="cls-13" x="130.91" y="103" width="5.64" height="5.64"/>
          <rect class="cls-13" x="156.86" y="103" width="5.64" height="5.64"/>
          <rect class="cls-13" x="142.33" y="103.01" width="8.67" height="12.02"/>
        </g>
        <g>
          <polygon class="cls-10" points="320.43 115.03 281.99 115.03 282.02 92.98 320.47 82.12 320.43 115.03"/>
          <polygon class="cls-11" points="345.56 115.03 307.11 115.03 307.15 74.79 345.59 85.76 345.56 115.03"/>
          <rect class="cls-13" x="289.36" y="103.01" width="10.95" height="12.02"/>
          <rect class="cls-13" x="316.05" y="89" width="5.64" height="5.64"/>
          <rect class="cls-13" x="330.34" y="89" width="5.64" height="5.64"/>
          <rect class="cls-13" x="316.07" y="103.01" width="6.74" height="12.02"/>
          <rect class="cls-13" x="322.81" y="103.01" width="6.74" height="12.02"/>
          <rect class="cls-13" x="329.55" y="103.01" width="6.74" height="12.02"/>
        </g>
        <path class="cls-12" d="m12.22,98.27c.65-.85,1.04-1.91,1.04-3.06,0-2.79-2.26-5.05-5.05-5.05s-5.05,2.26-5.05,5.05c0,1.15.39,2.21,1.04,3.06-1.91,1.29-3.17,3.47-3.17,5.95,0,3.96,3.21,7.17,7.17,7.17s7.17-3.21,7.17-7.17c0-2.48-1.26-4.66-3.17-5.95Z"/>
        <path class="cls-12" d="m217.99,98.27c.65-.85,1.04-1.91,1.04-3.06,0-2.79-2.26-5.05-5.05-5.05s-5.05,2.26-5.05,5.05c0,1.15.39,2.21,1.04,3.06-1.91,1.29-3.17,3.47-3.17,5.95,0,3.96,3.21,7.17,7.17,7.17s7.17-3.21,7.17-7.17c0-2.48-1.26-4.66-3.17-5.95Z"/>
        <path class="cls-12" d="m28.95,102.21c.5-.65.8-1.46.8-2.34,0-2.13-1.73-3.86-3.86-3.86s-3.86,1.73-3.86,3.86c0,.88.3,1.69.8,2.34-1.46.99-2.42,2.66-2.42,4.55,0,3.03,2.46,5.48,5.48,5.48s5.48-2.46,5.48-5.48c0-1.89-.96-3.56-2.42-4.55Z"/>
        <path class="cls-12" d="m369.52,102.21c.5-.65.8-1.46.8-2.34,0-2.13-1.73-3.86-3.86-3.86s-3.86,1.73-3.86,3.86c0,.88.3,1.69.8,2.34-1.46.99-2.42,2.66-2.42,4.55,0,3.03,2.46,5.48,5.48,5.48s5.48-2.46,5.48-5.48c0-1.89-.96-3.56-2.42-4.55Z"/>
        <path class="cls-13" d="m248.01,19.05h-.23c-.42-6.79-6.05-12.18-12.95-12.18s-12.53,5.38-12.95,12.18h-4.6c-4.57,0-8.32,3.74-8.32,8.32h0c0,4.57,3.74,8.32,8.32,8.32h30.72c4.57,0,8.32-3.74,8.32-8.32h0c0-4.57-3.74-8.32-8.32-8.32Z"/>
        <path class="cls-13" d="m116.58,18.94h-.23c-.44-7.08-6.3-12.68-13.48-12.68s-13.05,5.61-13.48,12.68h-4.79c-4.76,0-8.66,3.9-8.66,8.66h0c0,4.76,3.9,8.66,8.66,8.66h31.99c4.76,0,8.66-3.9,8.66-8.66h0c0-4.76-3.9-8.66-8.66-8.66Z"/>
        <path class="cls-13" d="m181.59,52.46h-.09c.52-.85.82-1.85.82-2.92,0-3.13-2.54-5.66-5.66-5.66-2.35,0-4.36,1.43-5.22,3.46-.65-.35-1.39-.54-2.18-.54-2.58,0-4.67,2.09-4.67,4.67,0,.38.05.74.13,1.09-1.64.36-2.87,1.83-2.87,3.57h0c0,2.01,1.64,3.66,3.65,3.66h16.08c2.01,0,3.66-1.64,3.66-3.66h0c0-2.01-1.64-3.66-3.66-3.66Z"/>
        <path class="cls-13" d="m44.19,49.84h-.09c.52-.85.82-1.85.82-2.92,0-3.13-2.54-5.66-5.66-5.66-2.35,0-4.36,1.43-5.22,3.46-.65-.35-1.39-.54-2.18-.54-2.58,0-4.67,2.09-4.67,4.67,0,.38.05.74.13,1.09-1.64.36-2.87,1.83-2.87,3.57h0c0,2.01,1.64,3.66,3.65,3.66h16.08c2.01,0,3.66-1.64,3.66-3.66h0c0-2.01-1.64-3.66-3.66-3.66Z"/>
        <path class="cls-13" d="m337.45,37.44h-.09c.52-.85.82-1.85.82-2.92,0-3.13-2.54-5.66-5.66-5.66-2.35,0-4.36,1.43-5.22,3.46-.65-.35-1.39-.54-2.18-.54-2.58,0-4.67,2.09-4.67,4.67,0,.38.05.74.13,1.09-1.64.36-2.87,1.83-2.87,3.57h0c0,2.01,1.64,3.66,3.65,3.66h16.08c2.01,0,3.66-1.64,3.66-3.66h0c0-2.01-1.64-3.66-3.66-3.66Z"/>
        <circle class="cls-13" cx="44.13" cy="89.43" r="2.61"/>
        <path class="cls-13" d="m358.21,89.43c0,1.44-1.17,2.61-2.61,2.61s-2.61-1.17-2.61-2.61,1.17-2.61,2.61-2.61,2.61,1.17,2.61,2.61Z"/>
        <g>
          <polygon class="cls-9" points="175.78 113.23 198.61 113.23 198.61 109.12 194.18 107.52 191.13 104.32 181.07 104.32 178.84 107.54 175.78 108.48 175.78 113.23"/>
          <circle class="cls-8" cx="193.06" cy="112.87" r="2.16"/>
          <circle class="cls-4" cx="180.63" cy="112.87" r="2.16"/>
        </g>
        <line class="cls-15" x1="8.21" y1="106.33" x2="8.21" y2="115.03"/>
        <line class="cls-15" x1="213.99" y1="106.33" x2="213.99" y2="115.03"/>
        <line class="cls-15" x1="25.89" y1="108.38" x2="25.89" y2="115.03"/>
        <line class="cls-15" x1="366.46" y1="108.38" x2="366.46" y2="115.03"/>
        <line class="cls-15" x1="44.19" y1="92.07" x2="44.19" y2="115.03"/>
        <line class="cls-15" x1="355.67" y1="92.07" x2="355.67" y2="115.03"/>
      </g>
    </g>
  </g>
</svg>