<?xml version="1.0" encoding="UTF-8"?>
<svg id="Layer_2" data-name="Layer 2" xmlns="http://www.w3.org/2000/svg" xmlns:xlink="http://www.w3.org/1999/xlink" viewBox="0 0 325 135.92">
  <defs>
    <style>
      .cls-1 {
        font-family: DIN2014-Demi, 'DIN 2014';
        font-size: 23.69px;
        font-weight: 300;
        letter-spacing: -.03em;
      }

      .cls-1, .cls-2 {
        fill: #fff;
      }

      .cls-3 {
        fill: none;
        stroke-linecap: round;
        stroke-linejoin: round;
        stroke-width: 1.31px;
      }

      .cls-3, .cls-4 {
        stroke: #fff;
      }

      .cls-4 {
        fill: url(#_名称未設定グラデーション_35);
        filter: url(#drop-shadow-1);
        stroke-miterlimit: 10;
        stroke-width: 2px;
      }

      .cls-5, .cls-2, .cls-6, .cls-7 {
        stroke-width: 0px;
      }

      .cls-5, .cls-8 {
        fill: #fffa5a;
      }

      .cls-6 {
        fill: #f2739d;
      }

      .cls-7 {
        fill: #66b1f9;
      }

      .cls-8 {
        font-family: NotoSansJP-Bold, 'Noto Sans JP';
        font-size: 43.14px;
        font-variation-settings: 'wght' 700;
        font-weight: 700;
        letter-spacing: .05em;
      }
    </style>
    <linearGradient id="_名称未設定グラデーション_35" data-name="名称未設定グラデーション 35" x1="162.5" y1="110.65" x2="162.5" y2="5.65" gradientUnits="userSpaceOnUse">
      <stop offset=".5" stop-color="#66b1f9"/>
      <stop offset=".5" stop-color="#94c8fb"/>
    </linearGradient>
    <filter id="drop-shadow-1" filterUnits="userSpaceOnUse">
      <feOffset dx="0" dy="5"/>
      <feGaussianBlur result="blur" stdDeviation="0"/>
      <feFlood flood-color="#000" flood-opacity=".2"/>
      <feComposite in2="blur" operator="in"/>
      <feComposite in="SourceGraphic"/>
    </filter>
  </defs>
  <g id="design">
    <g>
      <rect class="cls-4" y="5.65" width="325" height="105" rx="7" ry="7"/>
      <g>
        <rect class="cls-2" x="30" y="21.65" width="265" height="22.1" rx="11.05" ry="11.05"/>
        <g>
          <path class="cls-7" d="m50.7,39.24c-.08,0-.16-.04-.21-.11l-.67-1.07c-.04-.07-.05-.16-.02-.23.03-.07.1-.13.18-.14.76-.12,1.4-.31,1.9-.58.58-.31,1.01-.7,1.27-1.14.27-.44.4-.91.4-1.38,0-.43-.11-.81-.34-1.15-.21-.31-.52-.58-.93-.78-.03-.02-.07-.03-.11-.03-.15.04-.2.09-.22.15-.18.43-.38.84-.59,1.22-.4.71-.83,1.35-1.3,1.89-.32.37-.65.7-.96.98-.07.06-.1.16-.07.25.05.19.11.37.17.55.05.06.08.18.06.26-.02.08-.07.17-.14.19l-1.23.38s-.05.01-.07.01c-.1,0-.2-.07-.23-.17l-.03-.11c-.02-.06-.07-.12-.13-.15-.03-.01-.07-.02-.1-.02s-.07,0-.1.02l-.16.07c-.61.27-1.23.4-1.85.4-.35,0-.68-.07-.98-.22-.3-.14-.54-.38-.72-.69-.18-.31-.27-.72-.27-1.2,0-.52.11-1.04.32-1.54.21-.5.51-.99.89-1.44.38-.45.82-.86,1.32-1.22.29-.21.6-.39.92-.54.08-.04.13-.12.14-.2.03-.48.07-.95.11-1.42,0-.07-.02-.14-.06-.19-.05-.05-.11-.08-.18-.08h-.21c-.25,0-.54,0-.85-.01-.24,0-1.09-.04-1.5-.06-.13,0-.23-.11-.23-.24l-.03-1.19c0-.07.03-.14.08-.19.04-.04.1-.06.16-.06,0,0,.46.05.46.05.31.03.64.06,1,.09.35.02.68.04.97.04h.37c.12,0,.23-.09.24-.22l.06-.57.03-.44c0-.06,0-.12,0-.18,0-.07.03-.13.07-.17.05-.04.11-.07.17-.07,0,0,1.34.03,1.34.03.07,0,.14.04.19.1.04.06.06.14.04.21l-.12.47c-.03.17-.06.34-.09.51-.01.07,0,.15.06.2.05.05.11.08.18.08.87-.04,1.65-.11,2.41-.21.65-.08,1.31-.2,1.96-.35.02,0,.04,0,.05,0,.05,0,.11.02.15.05.06.05.09.11.09.19v1.18c.01.12-.08.22-.19.24-.45.07-.94.14-1.46.21l-.63.07c-.06,0-.11.03-.15.07-.05.05-.11.07-.17.07-.05,0-.1-.02-.14-.05-.04-.03-.11-.04-.15-.04-.04,0-.64.05-.64.05-.47.03-.94.06-1.4.09-.12,0-.22.1-.23.22-.02.26-.05.52-.07.79,0,.07.03.15.08.2.04.04.1.06.16.06l.22-.04c.57-.11,1.13-.16,1.69-.16.13,0,.28-.1.3-.2l.07-.43c.01-.08.06-.14.13-.18.03-.02.07-.03.11-.03.04,0,.08,0,.11.03l1.19.29c.07.02.12.06.16.12.03.06.04.13.01.2l-.09.26c-.04.12.02.26.14.31.1.04.2.08.3.13.71.33,1.28.78,1.68,1.35.41.57.61,1.25.61,2.01,0,.51-.08,1.02-.25,1.51-.17.49-.44.95-.81,1.36-.37.42-.87.78-1.48,1.08-.57.28-1.28.49-2.1.63-.01,0-.03,0-.04,0Zm-4.14-5.65c-.06,0-.11.02-.15.06-.08.07-.16.14-.24.21-.38.35-.68.73-.89,1.11-.21.39-.32.75-.32,1.08,0,.23.05.41.16.53.11.12.28.18.51.18.35,0,.75-.12,1.21-.34l.11-.05c.09-.05.14-.15.12-.25-.06-.34-.11-.69-.16-1.06-.05-.4-.09-.81-.11-1.23,0-.09-.06-.17-.14-.21l-.1-.02Zm3.48-1.29c-.46.03-.89.1-1.27.2l-.17.05c-.1.03-.17.13-.17.23,0,.62.03,1.21.09,1.74.01.1.08.18.17.21.02,0,.04,0,.05,0,.11,0,.16-.03.2-.08.25-.3.5-.62.73-.96.21-.31.41-.67.59-1.05.04-.08.03-.17-.02-.24-.05-.07-.12-.11-.2-.11v-.24l-.02.24Z"/>
          <path class="cls-7" d="m65.89,39.26c-.6,0-1.15-.09-1.63-.27-.48-.18-.88-.45-1.16-.8-.29-.35-.44-.8-.44-1.33,0-.47.13-.91.38-1.29.25-.38.62-.69,1.1-.9.48-.22,1.06-.33,1.74-.33.24,0,.48,0,.72.03h0c.08,0,.14-.02.18-.07.05-.05.08-.12.07-.19v-.18c-.03-.49-.05-.99-.07-1.48l-.05-1.06c0-.07.02-.13.07-.18.05-.05.11-.08.18-.08h1.31c.07,0,.13.03.17.07.05.05.07.11.07.18,0,.22-.01.45,0,.67,0,.31.03,1.12.03,1.12l.07,1.5c0,.09.06.18.15.21.51.2.98.44,1.4.72.5.32.94.65,1.31.97.09.08.11.21.05.31l-.71,1.14c-.04.06-.1.1-.17.11-.01,0-.02,0-.04,0-.06,0-.12-.02-.16-.06l-.68-.6c-.21-.19-.45-.37-.7-.54-.04-.03-.09-.04-.14-.04-.04,0-.07,0-.1.02-.08.04-.13.11-.14.2-.03.35-.12.67-.26.95-.18.36-.48.65-.88.87-.4.21-.96.32-1.65.32Zm-.13-3.47c-.42,0-.75.08-1,.25-.25.16-.38.38-.38.64s.11.49.33.66c.22.16.53.25.92.25.33,0,.59-.05.79-.17.2-.11.33-.27.41-.48.08-.21.12-.44.12-.71v-.11c0-.11-.08-.21-.2-.24-.31-.06-.64-.09-.98-.09Zm-4.87.7s-.08,0-.11-.03l-1.31-.67c-.06-.03-.11-.09-.13-.16-.02-.07,0-.14.05-.2.27-.35.54-.73.79-1.12.32-.5.63-1.02.9-1.53.28-.52.54-1.03.76-1.52l.17-.39c.03-.07.02-.16-.02-.23-.05-.07-.12-.11-.2-.11,0,0-.38,0-.38,0-.29,0-.59,0-.89-.01-.23,0-.47-.02-.72-.03-.12,0-.22-.1-.23-.22l-.09-1.19c0-.07.02-.14.07-.19.05-.04.11-.07.17-.07,0,0,.02,0,.02,0,.22.02.46.04.71.05.35.02.67.02.94.02.38,0,.76-.01,1.15-.04.1,0,.19-.08.22-.18.04-.15.08-.31.11-.47.12-.54.2-1.06.23-1.55,0-.07.04-.13.09-.17.04-.04.1-.06.16-.06,0,0,1.5.15,1.5.15.07,0,.13.04.17.1.04.06.05.13.04.2-.05.19-.28,1.12-.34,1.34-.02.08,0,.17.06.23.04.05.11.07.17.07.5-.09.92-.19,1.32-.3.02,0,.04,0,.07,0,.05,0,.1.02.14.05.06.04.1.11.1.19l.04,1.18c0,.11-.07.22-.18.24-.38.09-.81.19-1.3.28-.29.06-.59.11-.9.15-.09.01-.17.08-.19.16-.19.56-.43,1.17-.71,1.8-.34.78-.73,1.55-1.14,2.3-.37.67-.74,1.29-1.12,1.82-.05.07-.12.1-.2.1Zm10.1-4.7c-.05,0-.11-.02-.15-.05-.24-.19-.53-.38-.85-.58-.42-.26-.85-.51-1.29-.75-.33-.18-.63-.33-.91-.46-.06-.03-.11-.09-.13-.15s0-.14.03-.2l.67-1.03c.05-.07.12-.11.2-.11.03,0,.07,0,.1.02.21.1.45.21.7.34.34.17.67.35,1.02.53.34.18.66.37.96.55.2.12.38.23.52.33.11.08.14.23.06.34l-.75,1.11c-.04.06-.1.09-.16.1-.01,0-.03,0-.04,0Z"/>
          <path class="cls-7" d="m77.28,39.01s-.05,0-.08-.01l-1.54-.52c-.07-.02-.12-.07-.15-.14-.03-.07-.02-.14.01-.2.17-.32.36-.69.54-1.09.25-.55.49-1.12.71-1.71.23-.61.44-1.22.63-1.82.19-.6.36-1.16.5-1.67.08-.29.16-.6.24-.9.02-.07,0-.15-.05-.21-.05-.06-.12-.09-.19-.09-.23,0-.45.01-.66.01-.35,0-.67,0-.95-.02l-.59-.03c-.13,0-.23-.11-.23-.24l-.03-1.32c0-.07.03-.14.08-.18.04-.04.1-.06.17-.06,0,0,.02,0,.02,0,.26.03.5.05.7.06.27.02.56.03.86.03.36,0,.74-.01,1.12-.03.11,0,.21-.09.23-.2.04-.25.08-.46.1-.64.03-.27.05-.54.06-.82,0-.14,0-.27,0-.38,0-.07.02-.14.07-.18.05-.04.11-.07.17-.07,0,0,1.67.13,1.67.13.07,0,.14.04.18.1s.06.13.04.2c-.03.13-.07.28-.1.44l-.17.86c-.02.08,0,.16.06.21.04.05.11.08.17.08l.18-.02c.55-.09,1.1-.2,1.65-.31.02,0,.03,0,.05,0,.05,0,.11.02.15.05.06.05.09.12.09.19v1.32c0,.11-.08.21-.19.24-.55.12-1.13.22-1.73.31-.25.04-.49.07-.74.1-.1.01-.19.09-.21.19l-.04.18c-.12.53-.24,1.04-.37,1.53-.12.51-.28,1.07-.46,1.67-.19.6-.38,1.2-.59,1.82-.21.62-.42,1.2-.63,1.76-.18.48-.36.91-.53,1.29-.04.09-.13.14-.22.14Zm7.13-.15c-1.22,0-2.16-.2-2.8-.6-.64-.4-.97-.98-.97-1.71,0-.33.03-.67.09-1,.04-.26.09-.5.13-.73.02-.12.12-.2.24-.2,0,0,1.26.13,1.26.13.07,0,.13.04.17.1.04.06.05.13.04.2-.03.12-.05.24-.08.37-.04.22-.06.41-.06.58,0,.15.03.3.1.44.07.13.17.25.32.35.15.1.35.18.61.24.25.06.58.09.97.09.49,0,.99-.03,1.49-.08.4-.04.82-.1,1.24-.17.01,0,.03,0,.04,0,.06,0,.12.02.16.06.05.05.08.12.08.19l-.05,1.35c0,.12-.1.22-.21.23-.35.04-.73.08-1.15.11-.5.04-1.04.07-1.62.07Zm2.49-6.06c-.29-.03-.59-.06-.92-.09-.43-.03-.87-.05-1.32-.05-.5,0-.97.01-1.43.04-.37.02-.74.05-1.11.09,0,0-.02,0-.03,0-.06,0-.12-.02-.16-.06-.05-.05-.08-.11-.08-.18v-1.22c0-.13.1-.23.22-.24.35-.03.73-.06,1.13-.08.5-.03.98-.04,1.44-.04.42,0,.84,0,1.27.03.36.02.71.04,1.06.08.13.01.22.12.22.25l-.03,1.26c0,.07-.03.13-.08.18-.04.04-.1.06-.16.06,0,0-.02,0-.03,0Z"/>
          <path class="cls-7" d="m98.3,38.99c-.08,0-.16-.04-.21-.11l-.8-1.27c-.04-.07-.05-.16-.01-.23.03-.07.1-.13.19-.14.13-.02.25-.04.37-.06.21-.04.42-.08.61-.13.46-.12.9-.29,1.3-.5.4-.22.76-.49,1.06-.81.3-.32.54-.71.71-1.14.17-.44.25-.92.25-1.44,0-.57-.09-1.1-.26-1.57-.18-.47-.44-.89-.77-1.25-.34-.35-.75-.63-1.24-.82-.17-.07-.35-.12-.54-.16-.02,0-.03,0-.04,0-.07,0-.11.01-.15.04-.06.04-.09.1-.1.16-.06.38-.13.77-.2,1.17-.15.82-.36,1.68-.62,2.53-.28.98-.62,1.83-.99,2.53-.38.71-.8,1.26-1.25,1.64-.45.38-.95.58-1.48.58s-1.03-.18-1.48-.55c-.45-.36-.81-.87-1.08-1.51-.27-.64-.4-1.38-.4-2.18s.17-1.64.51-2.39c.34-.74.82-1.41,1.42-1.99.6-.57,1.32-1.03,2.12-1.36.81-.33,1.69-.5,2.63-.5s1.72.15,2.44.44,1.34.7,1.86,1.21c.51.51.91,1.12,1.18,1.81.27.69.41,1.44.41,2.23,0,1.02-.21,1.94-.63,2.74-.42.8-1.04,1.47-1.86,2-.78.5-1.76.85-2.9,1.05-.01,0-.03,0-.04,0Zm-1.86-9.59s-.04,0-.07,0c-.22.06-.42.14-.62.23-.59.27-1.09.63-1.5,1.07-.41.44-.72.91-.92,1.41-.21.5-.31.99-.31,1.44,0,.49.06.89.17,1.22.12.32.26.57.43.73.17.16.35.24.55.24s.41-.11.6-.31c.2-.21.39-.52.59-.95.2-.43.39-.98.58-1.62.22-.69.41-1.44.57-2.24.06-.32.12-.63.16-.94.01-.08-.02-.16-.08-.22-.04-.04-.1-.06-.16-.06Z"/>
          <path class="cls-7" d="m112.06,39.67l-.44-.02c-.12,0-.22-.1-.23-.22-.02-.19-.06-.41-.12-.63-.04-.17-.09-.33-.16-.48-.04-.09-.03-.19.04-.26.05-.05.11-.08.18-.08.02,0,.04,0,.07,0l.27.02c.24.01.45.02.64.02s.35-.02.49-.06c.15-.04.28-.12.4-.25.18-.14.31-.36.38-.63.04-.15.07-.31.09-.5,0-.09-.04-.18-.12-.23-.04-.02-.08-.03-.12-.03-.05,0-.1.01-.14.04-.49.33-1.01.66-1.57.96l-.36.2c-.08.04-.12.11-.13.19,0,.08-.06.16-.13.2-.04.02-.07.03-.11.03-.04,0-.09-.01-.12-.03-.04-.02-.08-.04-.13-.04-.04,0-.07,0-.11.02-.25.12-.5.24-.75.35-.55.25-1.08.46-1.59.64-.03,0-.05.01-.08.01-.09,0-.17-.05-.21-.13-.09-.17-.2-.36-.32-.56-.09-.15-.19-.29-.28-.42-.05-.06-.06-.15-.03-.22.03-.08.09-.13.17-.15.46-.12.94-.28,1.42-.46.61-.23,1.21-.5,1.79-.79.58-.29,1.12-.6,1.62-.92.28-.19.54-.37.77-.56.09-.07.12-.19.07-.3-.04-.08-.13-.16-.18-.18-.07-.02-.12-.03-.17-.03-.27.15-.51.29-.76.44-.56.32-1.16.63-1.78.92-.53.24-1.05.46-1.54.64-.03.01-.06.02-.08.02-.09,0-.17-.05-.21-.13-.08-.15-.18-.32-.3-.5-.08-.13-.16-.25-.25-.36-.05-.06-.06-.15-.04-.22.03-.08.09-.13.16-.16.28-.08.57-.17.88-.27.44-.15.88-.32,1.31-.5.43-.19.84-.38,1.22-.57.18-.09.34-.19.5-.28.07-.04.11-.11.12-.18,0-.07-.02-.15-.08-.2-.05-.05-.14-.08-.21-.08-.37.15-.67.27-.97.39-.75.29-1.51.55-2.25.75-.02,0-.04,0-.06,0-.09,0-.17-.05-.21-.12-.04-.08-.1-.17-.16-.27-.11-.17-.39-.6-.42-.64-.05-.07-.06-.15-.03-.23.03-.08.09-.13.17-.15.65-.14,1.31-.32,1.95-.52.39-.12.77-.26,1.13-.41.11-.04.17-.16.15-.27-.02-.11-.12-.2-.24-.2h-.78c-.13,0-.24-.11-.24-.24v-1c0-.13.11-.24.24-.24h7.38c.13,0,.24.11.24.24v1c0,.13-.11.24-.24.24h-1.09c-.08,0-.15.04-.2.1-.05.06-.06.14-.04.22.12.37.25.73.39,1.08.03.07.08.12.16.14.02,0,.04,0,.06,0,.07,0,.11-.01.14-.04.31-.22.59-.42.87-.64.28-.22.53-.42.75-.62.05-.04.1-.06.16-.06s.11.02.16.06l.96.84c.06.05.09.12.08.19,0,.07-.04.14-.1.19-.26.19-.53.39-.82.58-.38.26-.75.5-1.12.71l-.27.16c-.06.03-.1.09-.11.15-.01.06,0,.13.03.19.26.4.56.78.88,1.13.55.59,1.2,1.08,1.93,1.46.07.03.12.1.13.17.01.08,0,.15-.06.21l-.18.2c-.16.18-.3.36-.45.55-.09.12-.17.23-.23.34-.05.07-.12.11-.2.11-.04,0-.08-.01-.12-.03-.83-.48-1.55-1.09-2.14-1.82-.65-.79-1.19-1.71-1.62-2.74-.32-.76-.6-1.6-.83-2.47-.02-.08-.08-.14-.16-.17-.03,0-.05,0-.08,0-.08,0-.12.02-.15.04-.21.16-.42.31-.66.46-.06.04-.1.11-.11.18,0,.07.02.15.08.2.29.27.54.57.76.87.42.58.72,1.19.92,1.79.19.6.29,1.19.27,1.75,0,.56-.1,1.06-.28,1.49-.17.43-.42.77-.74,1-.27.23-.54.39-.81.48-.26.09-.59.13-.98.13-.09,0-.18,0-.28,0s-.2,0-.31,0Zm6.4-9.28c-.13,0-.24-.11-.24-.24v-1.2c0-.13-.11-.24-.24-.24h-8.41c-.13,0-.24.11-.24.24v1.2c0,.13-.11.24-.24.24h-1.23c-.13,0-.24-.11-.24-.24v-2.79c0-.13.11-.24.24-.24h4.77c.13,0,.24-.11.24-.24v-.67c0-.13.11-.24.24-.24h1.32c.13,0,.24.11.24.24v.67c0,.13.11.24.24.24h4.86c.13,0,.24.11.24.24v2.79c0,.13-.11.24-.24.24h-1.31Z"/>
          <path class="cls-7" d="m132.63,39.64c-.13,0-.24-.11-.24-.24v-6.56c0-.13-.11-.24-.24-.24h-2.59c-.13,0-.24-.11-.24-.24v-1.25c0-.13.11-.24.24-.24h2.59c.13,0,.24-.11.24-.24v-4.35c0-.13.11-.24.24-.24h1.28c.13,0,.24.11.24.24v4.35c0,.13.11.24.24.24h2.57c.13,0,.24.11.24.24v1.25c0,.13-.11.24-.24.24h-2.57c-.13,0-.24.11-.24.24v6.56c0,.13-.11.24-.24.24h-1.28Zm-8.33-.2c-.13,0-.24-.11-.24-.24v-4.52c0-.13.11-.24.24-.24h4.22c.13,0,.24.11.24.24v3.96c0,.13-.11.24-.24.24h-2.7c-.13,0-.24.11-.24.24s-.11.33-.24.33h-1.03Zm1.51-3.63c-.13,0-.24.11-.24.24v1.19c0,.13.11.24.24.24h1.16c.13,0,.24-.11.24-.24v-1.19c0-.13-.11-.24-.24-.24h-1.16Zm-1.47-2.08c-.13,0-.24-.11-.24-.24v-.83c0-.13.11-.24.24-.24h4.22c.13,0,.24.11.24.24v.83c0,.13-.11.24-.24.24h-4.22Zm0-1.98c-.13,0-.24-.11-.24-.24v-.84c0-.13.11-.24.24-.24h4.22c.13,0,.24.11.24.24v.84c0,.13-.11.24-.24.24h-4.22Zm-.71-2c-.13,0-.24-.11-.24-.24v-.9c0-.13.11-.24.24-.24h5.5c.13,0,.24.11.24.24v.9c0,.13-.11.24-.24.24h-5.5Zm.8-2.02c-.13,0-.24-.11-.24-.24v-.83c0-.13.11-.24.24-.24h4.15c.13,0,.24.11.24.24v.83c0,.13-.11.24-.24.24h-4.15Z"/>
          <path class="cls-7" d="m141.52,39.06c-.11,0-.21-.07-.23-.18-.13-.48-.25-1.08-.35-1.78-.12-.8-.18-1.7-.18-2.69,0-.52.03-1.1.07-1.71.05-.6.11-1.17.17-1.73.06-.55.13-1.06.2-1.52.07-.46.12-.83.16-1.11.03-.2.06-.44.09-.69.02-.17.03-.33.04-.49,0-.06.04-.13.08-.17.04-.04.1-.06.16-.06,0,0,1.48.13,1.48.13.07,0,.14.05.18.11s.05.14.03.21l-.04.12c-.05.17-.1.35-.13.51l-.08.38c-.05.2-.1.48-.16.82-.06.35-.12.73-.18,1.17s-.12.87-.18,1.33c-.06.45-.1.88-.13,1.28-.03.36-.04.68-.04.95,0,.11.08.21.19.24,0,0,.02,0,.02,0,.13,0,.21-.05.25-.13l.12-.27c.03-.07.09-.12.17-.14.02,0,.04,0,.06,0,.06,0,.11.02.15.06l.51.42c.08.06.11.17.08.26-.12.35-.24.72-.36,1.09-.14.44-.27.85-.38,1.24-.11.39-.2.71-.25.98-.02.1-.04.21-.05.35-.01.13-.02.25-.02.33,0,.08,0,.17,0,.28,0,.13-.09.32-.22.33,0,0-1.22.1-1.23.1Zm6.33-.06c-1,0-1.81-.21-2.39-.61-.58-.4-.88-1-.88-1.76,0-.49.13-.93.39-1.3.26-.37.64-.67,1.12-.88.48-.21,1.06-.31,1.72-.31.23,0,.46,0,.68.02h0c.08,0,.14-.02.18-.07.05-.05.08-.12.07-.19v-.31c-.04-.5-.06-1.03-.08-1.58l-.02-.57c0-.13-.12-.25-.24-.25-.11,0-.56,0-.79,0-.43,0-.85,0-1.28-.02-.35-.01-.7-.03-1.04-.05-.13,0-.23-.11-.23-.24v-1.24c0-.07.03-.13.08-.18.04-.04.1-.06.16-.06,0,0,.01,0,.02,0,.32.03.66.05.99.07.42.02.85.04,1.29.04.26,0,.52,0,.78,0,.13,0,.24-.11.24-.24,0-.1,0-1.16,0-1.38,0-.11,0-.26-.03-.45l-.03-.23c0-.07.01-.14.06-.19.05-.05.11-.08.18-.08h1.52c.07,0,.13.03.18.08.05.05.07.12.06.19,0,.06-.04.51-.05.68,0,.16-.02.37-.03.63,0,.19,0,.39-.01.61,0,.07.03.13.08.18.04.04.1.06.16.06.62-.07,1.19-.15,1.72-.26.02,0,.03,0,.05,0,.06,0,.11.02.15.05.06.05.09.12.09.19v1.31c0,.12-.09.22-.21.24-.57.08-1.18.14-1.82.19-.13.01-.23.12-.22.25,0,.32.01.64.02.94.02.58.04,1.11.07,1.6l.04.64c0,.09.06.17.15.21.16.07.32.14.47.22.46.24.88.51,1.25.79.3.24.57.46.82.68.09.08.11.21.04.32l-.73,1.11c-.04.06-.1.1-.17.11,0,0-.02,0-.03,0-.06,0-.12-.02-.16-.06-.42-.38-.83-.73-1.23-1.03-.04-.03-.09-.05-.15-.05-.17.05-.22.12-.24.2-.02.13-.06.26-.1.39-.1.32-.27.61-.49.84-.22.24-.52.43-.88.56-.36.13-.81.2-1.33.2Zm-.17-3.45c-.41,0-.74.08-1,.23-.26.15-.38.37-.38.66s.13.51.39.64c.26.14.58.2.96.2.3,0,.54-.05.71-.15s.3-.25.37-.45c.07-.2.11-.44.11-.72,0-.13-.09-.28-.19-.3-.32-.07-.65-.11-.98-.11Z"/>
          <path class="cls-7" d="m160.8,38.65c-.52,0-1.03-.18-1.49-.52-.47-.35-.87-.92-1.2-1.7-.33-.78-.56-1.83-.7-3.12-.05-.45-.08-.92-.11-1.41-.02-.5-.04-.97-.04-1.41,0-.45,0-.82,0-1.11,0-.2,0-.45-.03-.73-.01-.17-.03-.33-.05-.48,0-.07.01-.14.06-.19.05-.05.11-.08.18-.08,0,0,1.67.02,1.67.02.07,0,.14.03.18.09.05.05.07.12.05.19-.02.1-.03.21-.04.32-.03.22-.04.44-.06.65-.02.21-.02.39-.02.53,0,.32-.01.65,0,.99,0,.34.01.69.03,1.04.01.35.04.71.07,1.06.07.69.17,1.31.29,1.85.13.53.29.95.5,1.24.2.3.46.44.77.44.17,0,.33-.09.49-.28.16-.18.31-.42.44-.72.13-.3.25-.61.35-.94l.14-.48c.03-.09.1-.15.18-.17.02,0,.03,0,.05,0,.07,0,.14.03.19.09l1.07,1.31c.06.07.07.16.04.24-.3.78-.61,1.41-.9,1.88-.32.5-.65.86-.98,1.08-.34.22-.71.33-1.11.33Zm6.79-2.21s-.09-.01-.13-.04c-.06-.04-.11-.11-.11-.18-.05-.5-.13-1.04-.23-1.62-.12-.69-.29-1.4-.51-2.11-.21-.7-.47-1.38-.76-2.01-.24-.51-.51-.97-.82-1.36-.05-.06-.06-.15-.04-.22.02-.08.08-.13.16-.16l1.35-.44s.05-.01.07-.01c.07,0,.15.03.19.09.23.3.46.66.68,1.07.25.47.49.98.7,1.53.21.54.4,1.1.57,1.67.17.57.3,1.13.4,1.66.09.47.15.9.18,1.3,0,.11-.05.21-.15.25l-1.45.56s-.06.02-.09.02Z"/>
          <path class="cls-7" d="m179.8,39.42c-.06,0-.12-.03-.17-.08-.36-.4-.72-.79-1.1-1.17-.22-.22-.51-.5-.87-.82-.36-.33-.74-.67-1.15-1.03l-1.23-1.07c-.41-.35-.78-.67-1.11-.95-.49-.41-.8-.78-.94-1.12-.14-.34-.12-.67.06-1.01.18-.34.51-.7,1-1.1.29-.22.62-.49.99-.79l1.13-.95c.39-.33.76-.64,1.11-.95.35-.31.64-.58.89-.81.21-.21.43-.43.64-.66.13-.13.24-.26.33-.37.04-.05.1-.09.17-.09,0,0,.01,0,.02,0,.06,0,.12.02.16.06l1.28,1.12c.06.05.09.12.08.19,0,.07-.04.14-.1.18-.15.11-.3.22-.44.34-.22.18-.42.34-.58.49-.24.18-.53.41-.87.68h0c-.08.07-.23.18-.46.37-.55.43-1.41,1.12-1.64,1.3-.34.27-.63.52-.88.73-.25.22-.42.4-.51.55-.09.14-.08.28,0,.41.09.14.27.32.53.55.21.18.49.41.82.68l1.09.9,1.21,1c.41.34.81.68,1.19,1.02.3.27.58.52.84.76.05.05.08.11.08.18,0,.07-.03.13-.08.18l-1.33,1.22s-.1.06-.16.06h-.01Z"/>
          <path class="cls-7" d="m190.11,39.15c-.52,0-1.08-.02-1.67-.07-.1,0-.19-.08-.21-.17l-.4-1.39c-.02-.08,0-.16.05-.22.05-.05.11-.09.19-.09,0,0,.02,0,.03,0,.69.08,1.34.12,1.93.12.5,0,.96-.03,1.37-.09.99-.14,1.74-.42,2.25-.84.51-.42.76-.94.76-1.55,0-.32-.09-.61-.27-.85-.19-.25-.45-.44-.77-.58-.33-.14-.71-.21-1.12-.21-.81,0-1.58.15-2.29.44-.71.3-1.3.72-1.75,1.27-.13.16-.23.3-.32.43-.05.08-.1.16-.14.25-.04.08-.13.13-.22.13-.02,0-.04,0-.06,0l-1.26-.32c-.12-.03-.2-.15-.18-.28.04-.23.09-.49.13-.77.06-.38.12-.8.18-1.24.06-.44.11-.89.16-1.33.05-.45.09-.89.13-1.33.03-.33.05-.64.07-.93,0-.07.04-.13.09-.17.04-.04.1-.05.15-.05.01,0,1.46.21,1.46.21.07,0,.13.05.17.1.04.06.05.12.04.19-.03.15-.06.31-.09.5-.05.31-.1.62-.15.95l-.17,1.16c-.01.09.03.19.11.24.04.03.08.04.13.04.04,0,.09-.01.13-.04.52-.32,1.07-.58,1.63-.75.72-.22,1.47-.33,2.22-.33.85,0,1.58.16,2.19.47.6.31,1.06.72,1.38,1.22.31.5.47,1.05.47,1.65,0,.66-.14,1.27-.42,1.83-.28.56-.74,1.05-1.38,1.44-.64.4-1.48.68-2.52.85-.59.09-1.26.14-1.99.14Zm3.62-9.67c-.24-.04-.52-.08-.84-.14-.41-.07-.85-.15-1.31-.24-.46-.09-.92-.18-1.36-.27-.45-.09-.85-.18-1.22-.27l-.66-.16c-.06-.02-.12-.06-.15-.11s-.04-.12-.03-.19l.34-1.27c.02-.06.06-.12.12-.15.04-.02.08-.03.12-.03.02,0,.05,0,.07.01.27.08.64.17,1.07.27.53.12,1.07.23,1.65.34.57.11,1.11.21,1.62.28.38.06.7.1.98.14.07,0,.13.05.17.1.04.06.05.13.04.19l-.32,1.3c-.03.11-.12.18-.24.18-.01,0-.02,0-.04,0Z"/>
          <path class="cls-7" d="m203.75,39.07c-.35,0-.72-.07-1.12-.21-.39-.14-.77-.34-1.11-.59-.34-.25-.62-.54-.84-.88-.22-.33-.33-.7-.33-1.08,0-.46.18-.93.53-1.39s.83-.89,1.41-1.27c.36-.24.75-.45,1.15-.63.09-.04.14-.13.14-.22,0-.29,0-.58,0-.87v-.96c0-.07-.02-.13-.07-.18-.05-.04-.11-.07-.17-.07-.2,0-.37.01-.53.01-.49,0-.88,0-1.19-.01-.22,0-.43-.02-.63-.04-.12-.01-.22-.11-.22-.24l-.02-1.27c0-.07.03-.14.08-.18.04-.04.1-.06.16-.06,0,0,.02,0,.03,0,.31.03.6.05.85.06.33.02.62.02.88.02.2,0,.4,0,.62-.01.13,0,.23-.11.23-.24v-.95c0-.11,0-.24,0-.41,0-.17-.04-.58-.05-.61,0-.07.02-.13.06-.19s.11-.08.18-.08h1.45c.07,0,.13.03.18.08.05.05.07.12.06.19-.03.25-.05.41-.06.57l-.04.43c-.02.23-.03.48-.04.75,0,.07.03.14.08.19.04.04.1.06.16.06.46-.06.84-.13,1.21-.2.33-.06.65-.13.93-.21.02,0,.04,0,.06,0,.05,0,.1.02.15.05.06.04.1.11.1.19l.03,1.3c0,.12-.08.22-.19.24-.35.08-.73.15-1.13.21-.41.06-.83.12-1.25.17-.12.02-.21.12-.21.24v1.31c0,.07.03.14.08.19.04.03.1.05.15.05.26-.05.47-.09.69-.13.69-.11,1.31-.17,1.86-.17.74,0,1.42.12,2.02.37.6.25,1.08.61,1.44,1.09.36.48.54,1.05.54,1.72,0,.56-.11,1.08-.32,1.56-.21.47-.56.89-1.03,1.23-.47.34-1.1.62-1.87.81-.33.07-.66.12-.98.15-.25.03-.5.05-.74.07,0,0-.01,0-.02,0-.1,0-.19-.06-.23-.16l-.49-1.38c-.03-.07-.02-.16.03-.22.04-.06.12-.1.2-.1.21,0,.41-.01.61-.02.31-.02.59-.04.84-.08.39-.08.76-.2,1.08-.35.32-.16.57-.36.76-.61.18-.25.28-.55.28-.9,0-.33-.09-.61-.27-.84-.18-.23-.43-.41-.75-.54-.32-.13-.7-.19-1.12-.19-.61,0-1.23.06-1.86.19-.23.05-.46.1-.69.16-.11.03-.18.13-.18.24v.4c.03.47.04.9.04,1.29,0,.39,0,.69,0,.9,0,.6-.07,1.07-.2,1.4-.13.33-.32.56-.56.69-.24.13-.53.2-.84.2Zm-.36-4.25s-.1.01-.14.04c-.37.23-.64.46-.83.69-.19.23-.29.46-.29.67,0,.12.04.23.11.33.08.1.17.19.28.27.12.08.24.14.36.18.12.04.23.07.31.07.13,0,.25-.04.33-.12.09-.11.13-.25.13-.49,0-.26,0-.64-.02-1.13v-.28c-.01-.09-.06-.17-.14-.21-.03-.02-.07-.03-.11-.03Zm8.91-3.33c-.05,0-.1-.02-.15-.05-.15-.11-.31-.23-.51-.35-.3-.19-.62-.39-.96-.6-.35-.2-.68-.4-1-.57-.22-.12-.42-.23-.6-.32-.06-.03-.1-.08-.12-.15-.02-.06-.01-.13.02-.19l.56-.99c.04-.08.13-.12.21-.12.04,0,.07,0,.11.02.32.16.66.34,1.04.54.46.25.9.5,1.33.75.33.2.61.37.83.53.1.07.13.21.07.32l-.62,1.06c-.04.06-.09.1-.16.12-.02,0-.03,0-.05,0Z"/>
          <path class="cls-7" d="m217.87,39.62c-.13,0-.24-.11-.24-.24v-5.25c0-.1-.06-.18-.14-.22-.04,0-.08,0-.1,0-.08,0-.13.02-.16.05-.21.2-.43.39-.64.56-.04.04-.1.06-.16.06-.02,0-.04,0-.06,0-.08-.02-.14-.07-.17-.15l-.07-.17c-.12-.29-.22-.52-.33-.75-.07-.14-.13-.26-.19-.37-.06-.11-.04-.24.06-.32.38-.28.76-.6,1.13-.94.43-.39.85-.83,1.25-1.3.35-.4.65-.82.91-1.23.05-.07.12-.11.21-.11.03,0,.06,0,.09.02l1.08.45c.07.03.12.08.14.15.02.07.01.14-.02.2-.31.51-.67,1.03-1.07,1.53-.03.04-.05.1-.05.15v7.65c0,.13-.11.24-.24.24h-1.22Zm6.59,0c-.12,0-.21-.08-.24-.19-.04-.18-.09-.38-.17-.59-.06-.15-.11-.3-.17-.43-.04-.08-.02-.18.04-.25.05-.06.12-.09.19-.09.02,0,.04,0,.06,0,.18,0,1.03.02,1.04.02.06,0,.12-.02.17-.07.05-.05.07-.11.07-.17l.02-1.79c0-.07-.02-.13-.07-.17-.05-.05-.11-.07-.17-.07h-2.23c-.1,0-.19.06-.22.15-.04.09-.02.2.05.27.15.14.29.3.45.46.29.3.52.58.7.83.05.07.06.15.03.23,0,.08-.05.2-.11.25-.05.04-.12.08-.19.08-.02,0-.03,0-.05,0-.03,0-.06,0-.08,0-.07,0-.11.01-.14.04l-.46.32s-.09.04-.14.04c-.01,0-.03,0-.04,0-.06-.01-.12-.05-.16-.1-.09-.13-.19-.27-.31-.42-.19-.23-.39-.47-.61-.72-.15-.17-.29-.32-.43-.47-.05-.05-.07-.12-.07-.19s.05-.14.11-.18l.18-.12c.09-.06.13-.17.1-.27-.03-.1-.12-.17-.23-.17h-1.01c-.13,0-.24-.11-.24-.24v-1c0-.13.11-.24.24-.24h4.87c.13,0,.24-.11.24-.24v-.33c0-.13-.11-.24-.24-.24h-4.51c-.13,0-.24-.11-.24-.24v-.94c0-.13.11-.24.24-.24h7.98c.13,0,.24.11.24.24v.94c0,.13-.11.24-.24.24h-1.22c-.13,0-.24.11-.24.24v.33c0,.13.11.24.24.24h1.52c.13,0,.24.11.24.24v1c0,.13-.11.24-.24.24h-1.52c-.13,0-.24.11-.24.24v1.84c0,.4-.05.71-.14.94-.09.23-.28.4-.56.52-.27.12-.6.2-.97.23-.32.02-.69.03-1.1.04h0Zm-3.01-8.17c-.13,0-.24-.11-.24-.24v-4.6c0-.13.11-.24.24-.24h6.77c.13,0,.24.11.24.24v4.6c0,.13-.11.24-.24.24h-6.77Zm1.68-1.97c-.13,0-.24.11-.24.24v.24c0,.13.11.24.24.24h3.33c.13,0,.24-.11.24-.24v-.24c0-.13-.11-.24-.24-.24h-3.33Zm0-1.88c-.13,0-.24.11-.24.24v.23c0,.13.11.24.24.24h3.33c.13,0,.24-.11.24-.24v-.23c0-.13-.11-.24-.24-.24h-3.33Zm-6.58,2.59c-.07-.02-.12-.06-.16-.13l-.12-.23c-.1-.18-.21-.37-.32-.55-.06-.09-.11-.17-.16-.25-.04-.05-.05-.12-.03-.18.01-.06.05-.12.1-.15.31-.2.63-.44.94-.7.39-.32.75-.66,1.09-1.01.28-.3.52-.59.71-.86.05-.07.12-.11.2-.11.03,0,.06,0,.09.02l1.18.49c.07.03.12.09.14.16.02.07,0,.15-.04.21-.28.36-.59.73-.93,1.09-.42.45-.87.88-1.33,1.27-.39.33-.78.63-1.16.89-.04.03-.09.04-.14.04-.02,0-.04,0-.06,0Z"/>
          <path class="cls-7" d="m233.95,38.94c-.11,0-.21-.07-.24-.18-.12-.48-.24-1.1-.34-1.82-.12-.84-.18-1.76-.18-2.75,0-.53.03-1.09.07-1.66.05-.56.11-1.1.18-1.62.07-.52.13-.99.2-1.42.06-.43.12-.78.17-1.06.02-.21.05-.43.08-.69.02-.17.04-.33.05-.49,0-.06.04-.12.08-.17.04-.04.1-.06.16-.06,0,0,1.5.13,1.5.13.07,0,.14.04.18.1s.05.14.03.21c-.01.04-.17.63-.17.63-.04.17-.08.29-.09.38-.03.21-.08.47-.14.79-.07.33-.13.69-.19,1.09-.06.4-.12.81-.18,1.23-.06.42-.11.82-.14,1.21-.03.36-.05.69-.05.96,0,.11.08.21.19.24,0,0,.01,0,.02,0,.13,0,.21-.05.25-.14l.13-.29c.03-.07.09-.12.16-.14.02,0,.04,0,.06,0,.05,0,.11.02.15.05l.51.41c.08.06.11.17.08.27-.12.35-.24.72-.36,1.12-.14.46-.27.89-.38,1.29-.11.4-.2.74-.26,1-.02.1-.04.23-.05.36-.02.14-.02.24-.02.32s0,.17,0,.28c0,.13-.09.32-.22.33,0,0-1.26.09-1.26.09Zm7.25-.45c-1.25,0-2.19-.21-2.8-.63-.61-.42-.92-1.01-.92-1.75,0-.28.02-.57.07-.88.04-.25.08-.51.14-.8.02-.11.12-.2.24-.2,0,0,1.21.11,1.21.11.07,0,.13.04.17.1s.06.13.04.19c-.03.14-.05.26-.07.38-.03.19-.04.38-.04.58,0,.16.04.3.12.43.08.13.2.24.36.34.16.09.37.16.63.2.26.04.57.07.94.07.65,0,1.27-.03,1.83-.09.49-.05,1.01-.13,1.54-.23.01,0,.03,0,.04,0,.06,0,.11.02.15.05.06.05.09.11.09.18l.02,1.47c0,.12-.08.22-.2.24-.41.07-.88.13-1.4.17-.61.05-1.33.07-2.15.07Zm.19-8.34c-.56,0-1.11-.01-1.65-.04-.45-.02-.88-.05-1.27-.08-.13-.01-.22-.12-.22-.24v-1.37c0-.07.03-.13.08-.18.04-.04.1-.06.16-.06,0,0,.02,0,.03,0,.37.04.78.07,1.24.09.46.02.94.03,1.42.03h.29c.58,0,1.14-.03,1.67-.06.42-.03.79-.05,1.12-.08,0,0,.01,0,.02,0,.06,0,.12.02.16.06.05.05.08.11.08.18v1.39c0,.13-.1.23-.22.24-.39.03-.8.06-1.25.08-.53.02-1.08.04-1.64.04Z"/>
          <path class="cls-7" d="m252.58,38.46c-.37,0-.68-.12-.92-.36-.24-.24-.37-.55-.37-.92s.12-.69.36-.93c.24-.24.55-.36.92-.36s.68.12.92.36c.24.24.36.55.36.93s-.12.68-.36.92-.55.36-.92.36Zm-.72-3.87c-.13,0-.24-.1-.24-.23-.01-.29.03-.56.11-.79.11-.29.27-.56.48-.79.21-.23.45-.45.7-.64.26-.19.5-.38.73-.57.23-.18.41-.37.56-.57.15-.2.22-.41.22-.64,0-.29-.07-.54-.22-.74-.14-.2-.36-.36-.63-.46-.27-.11-.61-.16-1-.16-.45,0-.86.1-1.22.29-.31.16-.62.4-.93.7-.05.05-.11.07-.17.07s-.12-.02-.17-.06l-.84-.78s-.08-.11-.08-.17.02-.13.07-.17c.43-.45.93-.82,1.49-1.11.63-.32,1.34-.49,2.1-.49.7,0,1.34.11,1.89.32.55.21.98.54,1.3.97.31.43.47.98.47,1.62,0,.36-.08.67-.23.94-.15.27-.35.51-.58.71-.24.21-.49.41-.75.6-.26.19-.5.39-.73.59-.22.21-.4.44-.52.68-.1.19-.15.41-.16.65,0,.13-.11.24-.24.24h-1.41Z"/>
        </g>
      </g>
      <g>
        <g>
          <text class="cls-8" transform="translate(112.03 90.62)"><tspan x="0" y="0">減額診断</tspan></text>
          <g>
            <path class="cls-5" d="m34.11,51.95l70.58,10.6c.09.01.16.1.15.2-.01.09-.1.16-.19.15l-70.89-8.27c-1.76-.23-1.45-2.9.36-2.67h0Z"/>
            <path class="cls-5" d="m33.75,93.72l70.89-8.27c.09-.01.18.06.19.15.01.09-.05.18-.15.19l-70.58,10.6c-1.76.24-2.16-2.42-.36-2.67h0Z"/>
          </g>
        </g>
        <g>
          <path class="cls-5" d="m46.99,62.13c-.47.91-1.05,1.87-1.75,2.89-.7,1.02-1.47,2.05-2.31,3.1-.84,1.05-1.75,2.07-2.7,3.08-.95,1-1.93,1.93-2.93,2.77-.08-.2-.18-.42-.31-.65-.12-.23-.26-.48-.4-.72-.14-.25-.27-.45-.4-.61,1.02-.81,2.01-1.73,2.98-2.75.97-1.02,1.89-2.07,2.76-3.17.87-1.1,1.66-2.18,2.36-3.26.7-1.08,1.28-2.11,1.74-3.1.7.08,1.06.12,1.76.19.61,1.22,1.31,2.43,2.11,3.61.8,1.19,1.66,2.32,2.57,3.38.91,1.06,1.85,2.03,2.82,2.91.96.88,1.9,1.61,2.81,2.21-.22.24-.43.53-.63.86-.2.33-.38.66-.54.98-.91-.67-1.84-1.45-2.78-2.35-.95-.9-1.87-1.87-2.76-2.92-.89-1.05-1.71-2.13-2.47-3.23-.75-1.1-1.39-2.18-1.92-3.22Zm-8.05,13.75c5.7-.07,8.55-.11,14.25-.18v2.13c-5.7.17-8.55.25-14.25.42v-2.37Zm3.03-6.35c4.11.14,6.17.21,10.28.35v2.08c-4.11-.07-6.17-.11-10.28-.18v-2.25Zm10.87,6.18c.1,0,.15,0,.26,0,.13-.05.2-.07.33-.12.55.21.83.31,1.38.51-.38,1.07-.81,2.3-1.3,3.69-.49,1.39-1.01,2.8-1.55,4.25-.54,1.44-1.06,2.83-1.56,4.15-.73-.18-1.1-.28-1.83-.47.38-.98.77-2.02,1.17-3.11.41-1.1.81-2.18,1.2-3.24s.75-2.06,1.08-2.98c.33-.93.6-1.71.82-2.37v-.3Z"/>
          <path class="cls-5" d="m61.33,66.63c.64.04,1.37.08,2.18.1.81.03,1.68.05,2.59.08.92.03,1.84.06,2.78.11.94.05,1.84.09,2.71.13.87.04,1.67.09,2.41.14.7.05,1.41.1,2.11.14.7.05,1.36.09,1.98.13.62.04,1.17.08,1.64.12.48.04.86.07,1.14.09,0,.68-.01,1.02-.02,1.69-.66-.06-1.54-.13-2.64-.21-1.1-.08-2.52-.16-4.24-.25-1.02-.05-2.08-.09-3.18-.12-1.1-.03-2.21-.06-3.32-.08-1.11-.02-2.19-.03-3.23-.01-1.04.01-2,.03-2.88.07-.02-.85-.03-1.28-.05-2.13Zm12.32,7.98c0,1.08-.15,2-.46,2.75-.31.75-.73,1.33-1.27,1.72-.54.39-1.17.61-1.89.65-.48.03-.96-.04-1.42-.2-.46-.16-.88-.42-1.25-.78-.37-.36-.66-.81-.87-1.36-.21-.55-.32-1.18-.32-1.88,0-.88.19-1.67.56-2.35.38-.68.88-1.21,1.51-1.59.63-.38,1.32-.56,2.05-.54.92.03,1.69.27,2.29.73.6.45,1.06,1.05,1.37,1.8.31.75.47,1.59.47,2.53,0,.82-.11,1.65-.34,2.51-.23.86-.6,1.7-1.13,2.53-.52.83-1.24,1.61-2.14,2.36-.9.75-2.04,1.42-3.42,2.01-.63-.62-.94-.94-1.57-1.59,1.06-.38,2.02-.81,2.86-1.31.85-.5,1.56-1.07,2.14-1.71.58-.64,1.02-1.37,1.33-2.18.31-.81.46-1.73.46-2.76,0-1.13-.23-1.94-.68-2.44-.45-.5-1-.77-1.64-.77-.41,0-.79.1-1.15.31-.36.21-.65.52-.88.94-.23.41-.34.91-.34,1.48,0,.82.24,1.44.72,1.88.48.43,1.04.64,1.68.61.49-.02.9-.18,1.24-.48.34-.3.59-.75.74-1.35.15-.59.16-1.33.04-2.21.52.28.77.42,1.29.69Zm.14-10.58c0,.08-.01.23-.03.44-.02.21-.04.42-.05.62,0,.2-.02.37-.03.48-.03.3-.02.74-.02,1.28v1.77c0,.64,0,1.29.01,1.95,0,.66.02,1.27.02,1.85,0,.58.01,1.06.01,1.45-.72-.38-1.08-.57-1.81-.96v-2.72c0-.63,0-1.25-.01-1.87,0-.62-.02-1.19-.04-1.71-.02-.52-.03-.92-.05-1.21-.02-.33-.04-.66-.07-.97-.03-.31-.05-.52-.07-.62.85.08,1.28.13,2.14.21Z"/>
          <path class="cls-5" d="m96.12,67.5c-.25.13-.53.3-.85.5-.31.2-.57.37-.77.48-.41.27-.9.59-1.48.97-.58.37-1.19.78-1.84,1.21-.65.43-1.27.85-1.87,1.26-.6.41-1.1.79-1.53,1.12-.46.36-.79.67-.95.9-.16.24-.16.48.01.72.17.24.51.58,1.01.95.41.31.92.66,1.48,1.05.56.4,1.17.81,1.81,1.25.64.44,1.29.87,1.94,1.32.65.44,1.28.87,1.89,1.27.61.41,1.17.79,1.67,1.15-.67.57-1,.86-1.67,1.45-.25-.21-.51-.42-.79-.63-.27-.22-.55-.43-.83-.64-.41-.32-.92-.7-1.54-1.14-.62-.44-1.28-.91-1.97-1.41-.7-.5-1.38-.99-2.05-1.49-.67-.49-1.3-.94-1.85-1.35-.73-.54-1.21-1.07-1.41-1.52-.2-.45-.17-.89.11-1.33.27-.44.76-.92,1.47-1.44.45-.34.99-.72,1.61-1.16.62-.43,1.26-.88,1.94-1.34.67-.46,1.31-.89,1.9-1.31.59-.41,1.09-.78,1.48-1.09.24-.18.49-.39.75-.61.27-.23.46-.43.59-.6.7.59,1.06.88,1.76,1.45Zm-1.22,3.21c.2.26.43.56.68.92.25.36.5.71.74,1.07.24.36.45.66.62.9-.53.18-.79.27-1.32.46-.16-.27-.35-.58-.59-.93-.23-.35-.47-.71-.72-1.07-.24-.37-.47-.68-.67-.94.5-.16.75-.25,1.24-.4Zm2.75-.74c.2.23.43.51.69.85.26.34.51.68.76,1.02.25.34.45.63.61.89-.51.17-.76.25-1.27.43-.19-.26-.4-.57-.65-.91-.24-.34-.48-.68-.73-1.02-.24-.34-.47-.63-.69-.87.51-.16.76-.24,1.27-.39Z"/>
        </g>
      </g>
      <g>
        <g>
          <path class="cls-6" d="m288.36.65c-13.73,0-24.87,11.13-24.87,24.87,0,5.4,1.73,10.4,4.66,14.48l-4.66,10.39,10.39-4.66c4.08,2.93,9.08,4.66,14.48,4.66,13.73,0,24.87-11.13,24.87-24.87S302.09.65,288.36.65Z"/>
          <path class="cls-3" d="m288.36.65c-13.73,0-24.87,11.13-24.87,24.87,0,5.4,1.73,10.4,4.66,14.48l-4.66,10.39,10.39-4.66c4.08,2.93,9.08,4.66,14.48,4.66,13.73,0,24.87-11.13,24.87-24.87S302.09.65,288.36.65Z"/>
        </g>
        <g>
          <path class="cls-2" d="m279.12,20.84c-.11,0-.2-.09-.2-.2v-.56c0-.06-.02-.11-.07-.15-.04-.03-.08-.05-.13-.05-.04,0-3.46.32-3.47.32-.05,0-.09-.02-.13-.05-.04-.03-.07-.08-.07-.14l-.07-.85c0-.05.01-.11.05-.15s.09-.07.14-.07l.67-.04c.1,0,.19-.1.19-.2v-3.29c0-.11-.09-.2-.2-.2h-.55c-.11,0-.2-.09-.2-.2v-.74c0-.11.09-.2.2-.2h10.37c.11,0,.2.09.2.2v.74c0,.11-.09.2-.2.2h-5.14c-.11,0-.2.09-.2.2,0,.08.05.18.1.21.05.03.11.05.15.05h3.82s.19-.04.19-.04l.76.26c.1.04.15.15.12.25-.24.76-.56,1.44-.97,2.02-.12.17-.24.32-.36.47-.04.05-.05.1-.04.16.01.06.04.11.1.14.48.29,1.02.51,1.61.68.07.02.12.07.14.14.02.07,0,.14-.04.19l-.08.09c-.12.13-.22.27-.31.42-.06.09-.12.18-.17.26-.04.06-.1.1-.17.1-.02,0-.04,0-.06-.01-.72-.24-1.41-.58-1.97-1-.04-.03-.08-.04-.12-.04s-.08.01-.12.04c-.54.39-1.13.71-1.77.97-.02.01-.05.01-.08.01-.07,0-.14-.04-.18-.11-.05-.1-.12-.21-.19-.32-.04-.06-.1-.09-.17-.09-.14.03-.2.11-.2.2v.18c0,.11-.09.2-.2.2h-.97Zm1.37-4.1s-.07,0-.1.03c-.06.04-.1.1-.1.17v2.42c0,.07.03.13.09.17.03.02.07.03.11.03.39-.13.69-.28.99-.45.12-.07.24-.14.36-.22.05-.03.08-.08.09-.14,0-.06,0-.11-.04-.16-.38-.47-.7-1-.96-1.58-.02-.11-.04-.16-.07-.19-.04-.04-.09-.07-.15-.07-.02,0-.12,0-.14-.01h-.07Zm-2.96,1.47c-.11,0-.2.09-.2.2v.17c0,.06.02.11.06.15.04.03.08.05.14.05.04,0,1.2-.09,1.2-.09.1,0,.18-.1.18-.2,0-.13-.11-.27-.2-.27h-1.19Zm4.92-1.45c-.07,0-.14.04-.17.1-.04.06-.04.14,0,.2.14.24.31.48.5.71.04.04.09.07.15.07.06,0,.12-.03.15-.07.16-.19.31-.4.44-.61l.06-.1c.03-.06.04-.14,0-.2-.04-.06-.1-.1-.17-.1h-.96Zm-4.92-.07c-.11,0-.2.09-.2.2v.12c0,.11.09.2.2.2h1.19c.11,0,.2-.09.2-.2v-.12c0-.11-.09-.2-.2-.2h-1.19Zm0-1.48c-.11,0-.2.09-.2.2,0,.19.09.28.2.28h1.19c.11,0,.2-.09.2-.2,0-.13-.11-.28-.2-.28h-1.19Zm-.84-1.58c-.11,0-.2-.09-.2-.2v-3.33c0-.11.09-.2.2-.2h7.56c.11,0,.2.09.2.2v3.33c0,.11-.09.2-.2.2h-7.56Zm1.39-1.43c-.11,0-.2.09-.2.2,0,.2.09.29.2.29h4.73c.11,0,.2-.09.2-.2,0-.13-.11-.29-.2-.29h-4.73Zm0-1.36c-.11,0-.2.09-.2.2,0,.19.09.28.2.28h4.73c.11,0,.2-.09.2-.2,0-.13-.11-.28-.2-.28h-4.73Z"/>
          <path class="cls-2" d="m289.44,20.75c-.06,0-.11-.03-.14-.08-.05-.06-.1-.12-.16-.19-.13-.14-.25-.27-.38-.39-.05-.05-.1-.09-.15-.13-.04-.04-.07-.09-.07-.15,0-.06.02-.11.06-.15.4-.37.73-.78.98-1.21.28-.49.5-1.01.65-1.54.11-.4.19-.81.24-1.21,0-.06,0-.12-.05-.16-.04-.04-.09-.07-.15-.07h-1.56c-.11,0-.2-.09-.2-.2v-.94c0-.11.09-.2.2-.2h.55s.07,0,.1-.03c.03-.02.07-.03.1-.03s.07,0,.1.03c.03.02.07.03.1.03h.69c.11,0,.2-.09.2-.2v-1.44c0-.1-.07-.18-.16-.2h-.01c-.11,0-.18.05-.21.13l-.11.28c-.15.35-.3.68-.47.96-.03.05-.07.08-.12.09-.02,0-.03,0-.05,0-.04,0-.07,0-.1-.03l-.2-.12c-.15-.09-.3-.17-.46-.25l-.19-.09c-.05-.02-.09-.07-.11-.13s0-.12.02-.16c.26-.4.48-.89.67-1.45.2-.59.35-1.2.46-1.82,0-.05.04-.1.08-.13.03-.02.07-.04.11-.04.01,0,.03,0,.04,0l.96.19c.11.02.18.13.16.23-.05.25-.1.49-.16.73-.01.06,0,.12.04.17.04.05.1.08.16.08h2.22c.11,0,.2-.09.2-.2v-.56c0-.11.09-.2.2-.2h5.8c.11,0,.2.09.2.2v.94c0,.11-.09.2-.2.2h-5.85c-.11,0-.2.09-.2.2v.54c0,.11-.09.2-.2.2h-.95c-.11,0-.2.09-.2.2v1.45c0,.05.02.1.06.14.04.04.09.06.14.06h1.21s.09.01.12.04c.03.03.08.04.12.04.15-.04.2-.11.2-.2v-1.55c0-.11.09-.2.2-.2h4.96c.11,0,.2.09.2.2v3.58c0,.11-.09.2-.2.2h-.37c-.1,0-.19.08-.2.18s.06.2.16.22l.12.02c.06.01.1.05.13.1s.03.11.01.17l-.24.68c-.11.3-.21.58-.32.85-.08.19-.15.37-.22.53-.03.06-.02.13.01.19.04.06.1.09.17.09h1.32c.11,0,.2.09.2.2v.94c0,.11-.09.2-.2.2h-6.52c-.11,0-.2-.09-.2-.2v-.94c0-.06.03-.11.07-.15.04-.03.08-.05.13-.05.01,0,1.41,0,1.41,0,.06,0,.11-.02.15-.07.04-.04.06-.1.05-.15-.02-.19-.05-.41-.1-.65-.05-.27-.11-.55-.19-.84-.05-.2-.11-.4-.17-.58-.02-.05-.01-.11.01-.16.03-.05.07-.09.13-.1l.35-.08c.1-.02.17-.12.15-.22-.01-.1-.1-.18-.2-.18h-.6c-.11,0-.2-.09-.2-.2v-.46c0-.09-.05-.16-.14-.19-.02,0-.04,0-.06,0-.06,0-.09.01-.12.03-.04.03-.08.04-.12.04h-1.32c-.1,0-.19.08-.2.18l-.02.19c0,.06.01.12.05.17.05.05.58.64.58.64.16.18.32.37.47.56.15.19.53.63.53.63l.06.07c.06.07.07.18,0,.26,0,0-.62.79-.64.83-.04.05-.1.08-.16.08,0,0,0,0-.01,0-.07,0-.13-.04-.16-.1-.06-.11-.15-.25-.25-.39l-.57-.81c-.04-.05-.1-.08-.16-.08-.1.01-.17.06-.19.14-.17.5-.39.99-.65,1.45-.3.52-.68,1-1.14,1.42-.04.03-.09.05-.14.05,0,0-.01,0-.02,0Zm6.07-4.48c-.07,0-.13.03-.17.09s-.04.13-.02.19c.1.23.18.48.26.74.08.28.15.55.21.81.04.19.08.37.1.53.02.1-.05.2-.15.23l-.16.04c-.1.03-.16.12-.15.22.01.1.1.18.2.18h1.05c.1,0,.19-.08.2-.18,0-.06-.01-.12-.05-.16-.05-.06-.07-.14-.04-.21.07-.18.15-.38.22-.61.09-.29.18-.58.26-.88.08-.27.14-.52.18-.74.01-.06,0-.12-.04-.17-.04-.05-.09-.07-.16-.07h-1.76Zm-.18-2.72c-.11,0-.2.09-.2.2v1.06c0,.11.09.2.2.2h2.22c.11,0,.2-.09.2-.2v-1.06c0-.11-.09-.2-.2-.2h-2.22Z"/>
        </g>
        <g>
          <path class="cls-2" d="m296.27,40.29c-.11,0-.2-.09-.2-.2v-3.26c0-.1-.06-.18-.16-.2,0,0-.01,0-.02,0-.11,0-.18.04-.21.11-.09.18-.17.35-.26.51-.15.28-.3.53-.46.76-.04.06-.1.09-.17.09,0,0-.01,0-.02,0-.07,0-.14-.05-.17-.12-.05-.12-.11-.25-.18-.38-.11-.21-.21-.39-.3-.56-.04-.07-.03-.17.02-.23.18-.22.36-.47.54-.75.21-.33.41-.68.59-1.06.18-.37.35-.73.49-1.1.02-.06.02-.13-.02-.19-.04-.06-.1-.09-.17-.09h-1.07c-.11,0-.2-.09-.2-.2v-.95c0-.11.09-.2.2-.2h1.35c.11,0,.2-.09.2-.2v-.98c0-.06-.03-.12-.07-.16-.04-.03-.08-.05-.13-.05-.4.07-.76.12-1.1.17,0,0-.02,0-.03,0-.09,0-.17-.06-.2-.15-.03-.12-.08-.25-.13-.39-.04-.11-.09-.22-.13-.32-.03-.06-.02-.12,0-.18.03-.06.08-.09.14-.1.36-.06.73-.14,1.11-.22.47-.1.91-.22,1.33-.35.36-.11.68-.22.96-.34.02,0,.05-.01.08-.01.06,0,.11.02.15.07l.7.79c.04.05.06.12.04.19-.02.07-.07.12-.13.14-.32.11-.67.22-1.03.31-.09.02-.15.1-.15.2v1.37c0,.11.09.2.2.2h.9c.11,0,.2.09.2.2v.44c0,.1.07.19.17.2h0c.12,0,.19-.06.22-.14.21-.63.35-1.23.45-1.83,0-.05.04-.1.08-.13.03-.02.08-.04.12-.04.01,0,1.02.17,1.02.17.05,0,.1.04.13.08.03.04.04.1.03.15-.12.68-.3,1.36-.52,2.02-.21.62-.45,1.16-.71,1.61-.03.05-.07.08-.13.09-.02,0-.03,0-.05,0-.04,0-.08-.01-.11-.03l-.2-.12c-.15-.09-.31-.18-.47-.26l-.2-.11c-.05-.03-.09-.08-.1-.13-.01-.06,0-.12.03-.17.07-.09.14-.22.21-.35.03-.06.03-.14,0-.2-.04-.06-.1-.1-.17-.1h-.92c-.11,0-.2.09-.2.2,0,.12.02.18.07.22.07.06.15.14.25.23l.3.3s.06.05.1.06c.08.02.14.08.16.16,0,.04.03.08.05.1l.54.57c.07.07.08.18.02.26l-.55.76c-.04.05-.1.08-.17.08h-.01c-.07,0-.13-.04-.17-.1l-.14-.24c-.05-.08-.16-.15-.24-.15-.09.02-.21.07-.21.14v3.88c0,.11-.09.2-.2.2h-1.01Zm3.18-.03c-.08,0-.16-.05-.19-.13-.07-.17-.16-.35-.27-.55-.09-.14-.17-.27-.26-.4-.04-.06-.05-.13-.02-.19.03-.06.08-.11.15-.13.81-.16,1.52-.39,2.12-.67.68-.32,1.26-.75,1.72-1.29.11-.13.22-.28.32-.43,0-.06.08-.21.13-.24.24-.39.41-.77.55-1.19.03-.09.11-.14.19-.14.02,0,.03,0,.05,0l.25.06s.06-.01.1-.01c.09,0,.19.02.23.06.03.03.06.05.1.06l.36.09c.06.01.1.05.13.1.03.05.03.11.02.16-.29.88-.67,1.64-1.15,2.24-.51.65-1.16,1.19-1.91,1.6-.71.39-1.57.71-2.55.96-.02,0-.03,0-.05,0Zm1.45-3.53c-.1,0-.18-.07-.2-.16-.03-.16-.08-.35-.15-.56-.05-.15-.1-.29-.16-.42-.03-.06-.02-.14.02-.19.04-.06.1-.09.17-.09,0,0,.72,0,.73,0,.05,0,.1-.02.14-.06.04-.04.06-.09.06-.14v-6.07c0-.05.01-.11.05-.14s.09-.06.14-.06h1.06c.11,0,.2.09.2.2v2s0,.08.03.11c.04.07.04.15,0,.22-.02.03-.03.07-.03.11v3.68c0,.32-.04.59-.11.81,0,.07-.05.22-.12.25-.12.12-.2.19-.3.25-.2.11-.45.19-.73.23-.24.03-.5.05-.81.05h0Zm3.69-2.03s-.07,0-.1-.03c-.05-.03-.09-.08-.1-.14-.05-.28-.11-.57-.19-.87-.12-.41-.25-.83-.41-1.26-.13-.35-.27-.68-.42-.98-.03-.05-.03-.11,0-.17.02-.05.07-.1.12-.11l.88-.29s.04,0,.06,0c.07,0,.15.04.18.11.17.32.32.67.46,1.03.17.42.31.83.44,1.24.11.33.18.64.24.92.02.1-.04.2-.13.23l-.96.33s-.04.01-.07.01Z"/>
          <text class="cls-1" transform="translate(269.69 40.65)"><tspan x="0" y="0">30</tspan></text>
        </g>
      </g>
    </g>
  </g>
</svg>