<?xml version="1.0" encoding="UTF-8"?>
<svg id="Layer_2" data-name="Layer 2" xmlns="http://www.w3.org/2000/svg" xmlns:xlink="http://www.w3.org/1999/xlink" viewBox="0 0 820 106">
  <defs>
    <style>
      .cls-1 {
        fill: url(#_新規グラデーションスウォッチ_5);
      }

      .cls-1, .cls-2, .cls-3 {
        stroke-width: 0px;
      }

      .cls-2 {
        fill: #68584b;
      }

      .cls-3 {
        fill: #fffdcd;
      }
    </style>
    <linearGradient id="_新規グラデーションスウォッチ_5" data-name="新規グラデーションスウォッチ 5" x1="339.77" y1="85.64" x2="339.77" y2="52.36" gradientUnits="userSpaceOnUse">
      <stop offset=".5" stop-color="#f2739d"/>
      <stop offset=".5" stop-color="#f596b6"/>
    </linearGradient>
  </defs>
  <g id="design">
    <g>
      <g>
        <rect class="cls-3" x="0" y="30" width="820" height="76"/>
        <g>
          <g>
            <path class="cls-2" d="m39.09,63.62h7.86v1.9h-7.86v-1.9Zm.9,8.32h2.04v6.88h-2.04v-6.88Zm.06-5.5h6.2v1.82h-6.2v-1.82Zm0,2.74h6.2v1.8h-6.2v-1.8Zm.08-8.24h6.08v1.8h-6.08v-1.8Zm1.02,11h5.06v6.1h-5.06v-1.9h3v-2.3h-3v-1.9Zm7.04-11.06h2.26v2.44c0,.63-.06,1.28-.19,1.97-.13.69-.37,1.35-.73,1.99-.36.64-.89,1.21-1.58,1.7-.12-.15-.29-.32-.51-.53-.22-.21-.45-.4-.69-.59-.24-.19-.44-.33-.6-.42.61-.41,1.06-.85,1.35-1.32s.47-.95.56-1.44c.09-.49.13-.96.13-1.4v-2.4Zm6.36,8.06h.46l.42-.1,1.56.58c-.35,1.35-.82,2.54-1.41,3.57s-1.3,1.94-2.11,2.73c-.81.79-1.73,1.45-2.74,2-1.01.55-2.1,1-3.26,1.36-.08-.21-.19-.45-.34-.71-.15-.26-.3-.52-.47-.77s-.32-.47-.47-.64c1.03-.25,1.99-.6,2.9-1.05.91-.45,1.72-.99,2.45-1.63.73-.64,1.35-1.38,1.86-2.22.51-.84.9-1.76,1.15-2.76v-.36Zm-7.34,0h8.28v2.14h-8.28v-2.14Zm2.88,2.14c.68,1.43,1.71,2.66,3.08,3.69,1.37,1.03,3,1.78,4.88,2.23-.17.16-.36.36-.56.61-.2.25-.39.5-.56.76-.17.26-.32.5-.44.71-1.99-.6-3.69-1.52-5.11-2.77-1.42-1.25-2.56-2.76-3.41-4.55l2.12-.68Zm-1-10.2h4.82v2.1h-4.82v-2.1Zm3.58,0h2.26v4.5c0,.27.02.43.05.5s.1.1.21.1h.5c.08,0,.15-.04.2-.13.05-.09.09-.27.12-.56.03-.29.05-.72.06-1.31.21.19.52.36.91.51.39.15.74.27,1.03.35-.07.83-.18,1.47-.34,1.94s-.38.79-.65.97c-.27.18-.63.27-1.07.27h-1.18c-.53,0-.95-.08-1.26-.24-.31-.16-.52-.43-.65-.81-.13-.38-.19-.9-.19-1.57v-4.52Z"/>
            <path class="cls-2" d="m62.09,66.22h17.58v1.78h-17.58v-1.78Zm.9-5.14h15.92v4.36h-15.92v-4.36Zm.14,7.98h2.44v10.06h-2.44v-10.06Zm.98,7.52h16v1.82h-16v-1.82Zm1.18-13.9v1.16h2.22v-1.16h-2.22Zm1.62,6.1h11.32v7.02h-11.32v-7.02Zm2.22,1.26v.7h6.8v-.7h-6.8Zm0,1.88v.72h6.8v-.72h-6.8Zm0,1.9v.74h6.8v-.74h-6.8Zm.74-8.76l2.42.14c-.09.72-.2,1.48-.32,2.27-.12.79-.23,1.46-.34,2.01h-2.32c.12-.59.23-1.29.32-2.11.09-.82.17-1.59.24-2.31Zm-.16-2.38v1.16h2.28v-1.16h-2.28Zm4.46,0v1.16h2.32v-1.16h-2.32Z"/>
            <path class="cls-2" d="m84.03,63.66c.59,0,1.25,0,2-.02.75-.01,1.53-.03,2.34-.04.81-.01,1.61-.03,2.4-.04.79-.01,1.53-.02,2.22-.03s1.29-.01,1.8-.01,1.06,0,1.66,0c.6,0,1.19,0,1.78,0h2.74l-.02,2.36c-.63-.03-1.45-.05-2.48-.07-1.03-.02-2.28-.03-3.76-.03-.91,0-1.83,0-2.76.03-.93.02-1.86.04-2.78.07-.92.03-1.81.06-2.66.09-.85.03-1.66.08-2.42.13l-.06-2.42Zm10.82,5.92c0,1.09-.13,2-.39,2.72-.26.72-.65,1.26-1.17,1.63-.52.37-1.17.55-1.94.55-.37,0-.76-.08-1.17-.24-.41-.16-.78-.39-1.13-.7s-.62-.69-.83-1.14c-.21-.45-.31-.99-.31-1.6,0-.76.18-1.42.54-1.97.36-.55.84-.99,1.45-1.3.61-.31,1.28-.47,2.01-.47.88,0,1.62.2,2.21.59.59.39,1.04.92,1.34,1.59.3.67.45,1.42.45,2.26,0,.65-.11,1.33-.32,2.04-.21.71-.56,1.4-1.05,2.07-.49.67-1.14,1.28-1.96,1.83-.82.55-1.84.99-3.07,1.34l-2.14-2.12c.85-.17,1.65-.4,2.38-.68.73-.28,1.38-.63,1.93-1.06.55-.43.99-.95,1.3-1.58s.47-1.38.47-2.26c0-.64-.16-1.12-.47-1.44s-.69-.48-1.13-.48c-.25,0-.5.06-.74.18s-.43.3-.58.54-.22.53-.22.88c0,.45.16.82.47,1.09.31.27.67.41,1.07.41.32,0,.6-.1.85-.3.25-.2.41-.53.49-1s.01-1.09-.2-1.88l1.86.5Zm.48-8.4c-.01.11-.03.28-.05.51-.02.23-.04.47-.05.7-.01.23-.03.4-.04.51-.01.27-.02.62-.02,1.07v1.49c0,.55,0,1.1,0,1.65,0,.55.01,1.07.02,1.56s.01.89.01,1.21l-2.5-.84v-2.39c0-.5,0-1-.01-1.49s-.02-.94-.03-1.34c-.01-.4-.03-.7-.04-.9-.03-.41-.06-.78-.1-1.09s-.07-.53-.1-.65h2.9Z"/>
            <path class="cls-2" d="m107.47,62.06c.28.04.58.07.9.08.32.01.63.02.92.02.21,0,.53,0,.96-.01.43,0,.91-.02,1.45-.03.54-.01,1.08-.03,1.61-.04.53-.01,1.02-.03,1.45-.05.43-.02.77-.04,1.01-.05.41-.04.74-.08.98-.11.24-.03.42-.07.54-.11l1.3,1.78c-.23.15-.46.29-.7.44-.24.15-.47.31-.7.48-.27.19-.59.43-.96.73-.37.3-.77.62-1.19.95-.42.33-.83.66-1.22.98-.39.32-.75.61-1.07.86.33-.08.65-.14.96-.17s.62-.05.94-.05c1.13,0,2.15.22,3.05.66.9.44,1.61,1.04,2.14,1.79.53.75.79,1.62.79,2.59,0,1.05-.27,2.01-.8,2.86s-1.34,1.53-2.41,2.04c-1.07.51-2.42.76-4.03.76-.92,0-1.75-.13-2.49-.4s-1.32-.65-1.75-1.14-.64-1.07-.64-1.74c0-.55.15-1.06.45-1.53.3-.47.72-.86,1.26-1.15s1.16-.44,1.87-.44c.92,0,1.7.18,2.33.55.63.37,1.12.86,1.46,1.47.34.61.52,1.29.53,2.02l-2.34.32c-.01-.73-.2-1.32-.55-1.77-.35-.45-.82-.67-1.41-.67-.37,0-.67.1-.9.29-.23.19-.34.42-.34.67,0,.37.19.67.56.9.37.23.86.34,1.46.34,1.13,0,2.08-.14,2.84-.41.76-.27,1.33-.67,1.71-1.18.38-.51.57-1.12.57-1.83,0-.6-.18-1.13-.55-1.58-.37-.45-.86-.81-1.49-1.06-.63-.25-1.33-.38-2.12-.38s-1.48.1-2.12.29c-.64.19-1.24.47-1.81.82-.57.35-1.12.78-1.66,1.28s-1.08,1.06-1.61,1.67l-1.82-1.88c.36-.29.77-.62,1.22-.99.45-.37.92-.75,1.39-1.15.47-.4.92-.78,1.34-1.13.42-.35.78-.65,1.07-.89.28-.23.61-.49.98-.8s.76-.62,1.16-.95c.4-.33.78-.64,1.14-.94.36-.3.66-.56.9-.77-.2,0-.46,0-.78.02-.32.01-.67.03-1.05.04-.38.01-.76.03-1.14.04-.38.01-.73.03-1.06.05-.33.02-.6.04-.81.05-.27.01-.55.03-.84.06-.29.03-.56.06-.8.1l-.08-2.6Z"/>
            <path class="cls-2" d="m129.09,71.24c-.09.35-.17.69-.24,1.02s-.1.67-.1,1c0,.64.32,1.17.97,1.58s1.69.62,3.13.62c.91,0,1.78-.03,2.62-.1.84-.07,1.64-.16,2.39-.28.75-.12,1.42-.26,2.01-.42l.02,2.82c-.59.13-1.24.25-1.96.35-.72.1-1.5.18-2.33.24-.83.06-1.72.09-2.65.09-1.52,0-2.79-.17-3.82-.5-1.03-.33-1.79-.82-2.3-1.45-.51-.63-.76-1.41-.76-2.33,0-.59.05-1.12.14-1.6.09-.48.18-.91.26-1.28l2.62.24Zm-1.68-8.48c.73.08,1.56.14,2.48.18s1.91.06,2.96.06c.65,0,1.33-.01,2.03-.04s1.38-.06,2.03-.1c.65-.04,1.23-.09,1.74-.14v2.66c-.47.04-1.03.08-1.69.12s-1.35.07-2.06.09c-.71.02-1.39.03-2.03.03-1.04,0-2.01-.02-2.9-.06s-1.75-.09-2.56-.16v-2.64Z"/>
            <path class="cls-2" d="m159.19,65.64c-.29.19-.6.37-.93.54-.33.17-.68.35-1.05.54-.31.16-.68.35-1.13.56-.45.21-.93.45-1.44.71-.51.26-1.03.53-1.55.82-.52.29-1.01.58-1.46.87-.83.55-1.5,1.11-2.01,1.7s-.77,1.23-.77,1.94.35,1.25,1.04,1.63c.69.38,1.73.57,3.12.57.69,0,1.43-.03,2.21-.09.78-.06,1.55-.15,2.31-.26s1.43-.24,2.02-.39l-.04,2.88c-.56.09-1.17.18-1.83.26-.66.08-1.37.14-2.14.18s-1.58.06-2.45.06c-1,0-1.92-.08-2.77-.23s-1.59-.4-2.22-.75c-.63-.35-1.13-.81-1.48-1.4-.35-.59-.53-1.31-.53-2.16s.19-1.63.56-2.32c.37-.69.88-1.33,1.53-1.92.65-.59,1.36-1.14,2.13-1.66.48-.32.99-.63,1.52-.93s1.06-.59,1.57-.87c.51-.28.99-.54,1.44-.77.45-.23.82-.44,1.11-.61.39-.23.73-.43,1.02-.62.29-.19.57-.39.84-.6l1.38,2.32Zm-10.06-4.28c.33.88.68,1.73,1.05,2.54.37.81.73,1.57,1.1,2.28.37.71.7,1.34,1.01,1.9l-2.26,1.34c-.36-.61-.73-1.3-1.12-2.06-.39-.76-.77-1.56-1.16-2.41s-.76-1.7-1.12-2.57l2.5-1.02Z"/>
            <path class="cls-2" d="m162.67,63.58c.4-.01.78-.03,1.14-.05.36-.02.63-.04.82-.05.41-.03.92-.07,1.53-.13.61-.06,1.29-.12,2.04-.19.75-.07,1.56-.13,2.41-.2.85-.07,1.74-.14,2.66-.22.69-.07,1.38-.12,2.07-.17.69-.05,1.34-.09,1.96-.12s1.16-.06,1.63-.07l.02,2.56c-.36,0-.77,0-1.24.02s-.93.04-1.39.07-.87.1-1.23.19c-.6.16-1.16.43-1.68.81-.52.38-.97.83-1.35,1.34-.38.51-.68,1.07-.89,1.66-.21.59-.32,1.19-.32,1.79,0,.65.12,1.23.35,1.73s.55.93.96,1.28c.41.35.88.65,1.43.88s1.14.41,1.77.53c.63.12,1.29.2,1.97.24l-.94,2.74c-.84-.05-1.66-.19-2.45-.4-.79-.21-1.54-.51-2.23-.88s-1.3-.83-1.81-1.37c-.51-.54-.92-1.16-1.22-1.86-.3-.7-.45-1.48-.45-2.35,0-.96.15-1.84.46-2.65.31-.81.69-1.51,1.15-2.12s.92-1.08,1.37-1.41c-.37.05-.82.11-1.35.16-.53.05-1.09.12-1.7.19-.61.07-1.22.15-1.85.23-.63.08-1.23.17-1.81.27-.58.1-1.1.2-1.57.29l-.26-2.74Zm13.42,3.32c.17.24.36.52.55.85s.38.65.57.98c.19.33.35.62.48.89l-1.52.68c-.25-.56-.5-1.05-.73-1.48-.23-.43-.51-.86-.83-1.3l1.48-.62Zm2.24-.92c.17.24.36.52.57.83.21.31.41.63.61.96.2.33.37.62.5.87l-1.5.72c-.27-.53-.52-1.01-.77-1.42-.25-.41-.54-.84-.87-1.28l1.46-.68Z"/>
          </g>
          <g>
            <path class="cls-2" d="m500.43,62.45c-.05.13-.11.32-.18.56-.07.24-.13.47-.19.7-.06.23-.1.4-.13.52-.04.28-.1.64-.19,1.09-.09.45-.17.95-.26,1.5-.09.55-.17,1.12-.25,1.69s-.14,1.13-.19,1.66c-.05.53-.07,1-.07,1.4,0,.19,0,.4,0,.64,0,.24.03.46.07.66.09-.23.19-.45.3-.68s.21-.46.32-.69c.11-.23.2-.46.28-.67l1.24.98c-.19.55-.38,1.13-.57,1.76-.19.63-.37,1.22-.52,1.77-.15.55-.27,1.01-.35,1.37-.03.15-.05.31-.07.5-.02.19-.03.33-.03.44s0,.24.01.39c0,.15.02.3.03.43l-2.32.16c-.2-.69-.38-1.62-.54-2.77s-.24-2.41-.24-3.77c0-.75.03-1.51.1-2.28.07-.77.15-1.52.24-2.23.09-.71.18-1.36.27-1.95.09-.59.16-1.07.23-1.46.03-.28.06-.6.11-.95.05-.35.08-.69.09-1.01l2.8.24Zm4.68,9.88c-.08.33-.14.63-.18.89s-.06.52-.06.79c0,.21.05.41.16.59.11.18.27.33.49.46.22.13.51.22.86.28.35.06.78.09,1.29.09.89,0,1.73-.04,2.52-.13.79-.09,1.62-.22,2.5-.39l.04,2.7c-.64.12-1.38.21-2.21.28-.83.07-1.82.1-2.95.1-1.72,0-3-.29-3.84-.87s-1.26-1.38-1.26-2.41c0-.39.03-.79.09-1.21.06-.42.14-.88.25-1.39l2.3.22Zm-1.6-8.54c.61.08,1.3.14,2.07.17.77.03,1.55.05,2.34.04.79,0,1.56-.03,2.29-.08s1.37-.1,1.9-.15v2.58c-.61.05-1.29.1-2.02.13s-1.49.05-2.26.05-1.53-.02-2.27-.05-1.42-.08-2.05-.13v-2.56Z"/>
            <path class="cls-2" d="m521.91,74.91c.41.65.99,1.13,1.74,1.44.75.31,1.64.48,2.68.52.59.03,1.28.04,2.09.05s1.66,0,2.55-.01c.89-.01,1.77-.04,2.63-.08.86-.04,1.62-.09,2.29-.14-.08.19-.17.43-.28.72-.11.29-.2.59-.29.9-.09.31-.15.58-.19.82-.6.04-1.29.07-2.06.09-.77.02-1.57.03-2.38.04-.81,0-1.6,0-2.36,0-.76-.01-1.44-.03-2.04-.06-1.23-.05-2.27-.24-3.14-.57-.87-.33-1.63-.88-2.3-1.65-.44.37-.89.76-1.35,1.16-.46.4-.96.81-1.51,1.24l-1.18-2.5c.47-.28.95-.59,1.46-.92.51-.33.99-.68,1.46-1.04h2.18Zm0-6.34v7.38h-2.34v-5.16h-2.32v-2.22h4.66Zm-4.64-5.88l1.78-1.44c.41.27.83.58,1.26.93.43.35.83.71,1.2,1.08.37.37.67.7.9,1.01l-1.9,1.6c-.2-.32-.48-.67-.83-1.04-.35-.37-.74-.75-1.17-1.13s-.84-.72-1.24-1.01Zm7.16-.68l2.86.52c-.01.17-.19.29-.54.36v3.74c0,.67-.03,1.39-.1,2.17-.07.78-.2,1.59-.39,2.42s-.48,1.64-.87,2.42-.89,1.49-1.5,2.13c-.11-.17-.26-.37-.47-.58-.21-.21-.42-.42-.65-.62-.23-.2-.43-.35-.62-.44.69-.73,1.2-1.54,1.52-2.41.32-.87.53-1.75.62-2.64.09-.89.14-1.72.14-2.49v-4.58Zm8.4-1.2l1.98,1.82c-.83.29-1.73.56-2.72.79-.99.23-1.99.44-3.01.61-1.02.17-2.01.32-2.97.44-.05-.28-.15-.61-.3-.99-.15-.38-.29-.69-.42-.93.89-.13,1.8-.29,2.72-.47.92-.18,1.79-.38,2.61-.59.82-.21,1.52-.44,2.11-.68Zm-7.1,5.58h9.8v2.22h-9.8v-2.22Zm4.06.98h2.38v8.74h-2.38v-8.74Z"/>
            <path class="cls-2" d="m539.57,67.11c.37-.07.79-.16,1.24-.28.45-.12.86-.23,1.22-.34.39-.12.91-.28,1.57-.49.66-.21,1.39-.42,2.18-.64s1.61-.4,2.45-.55,1.62-.22,2.34-.22c1.21,0,2.31.22,3.28.67.97.45,1.75,1.1,2.32,1.96.57.86.86,1.91.86,3.15,0,.91-.17,1.74-.5,2.51s-.82,1.46-1.47,2.08c-.65.62-1.43,1.16-2.35,1.61-.92.45-1.97.81-3.16,1.08-1.19.27-2.48.43-3.88.5l-1.16-2.66c1.35-.03,2.61-.15,3.78-.36,1.17-.21,2.2-.53,3.08-.95.88-.42,1.57-.95,2.06-1.59.49-.64.74-1.4.74-2.28,0-.63-.14-1.19-.42-1.68-.28-.49-.7-.89-1.25-1.18-.55-.29-1.23-.44-2.03-.44-.59,0-1.23.07-1.94.21-.71.14-1.43.32-2.17.55s-1.46.47-2.17.73c-.71.26-1.36.51-1.96.76-.6.25-1.11.46-1.52.65l-1.14-2.8Zm14.68-5.42c.17.24.36.53.55.86s.38.67.57,1c.19.33.34.63.46.88l-1.6.7c-.21-.41-.46-.89-.75-1.42s-.56-.99-.83-1.38l1.6-.64Zm2.36-.9c.17.25.36.55.57.88.21.33.4.66.59.99.19.33.34.61.46.85l-1.6.68c-.2-.41-.45-.88-.75-1.41-.3-.53-.58-.98-.85-1.35l1.58-.64Z"/>
            <path class="cls-2" d="m566.27,62.21c-.08.24-.17.52-.26.83-.09.31-.17.58-.22.79-.12.55-.25,1.2-.38,1.97-.13.77-.25,1.56-.34,2.39-.09.83-.14,1.64-.14,2.43s.07,1.5.2,2.11c.13-.31.29-.68.46-1.11.17-.43.34-.84.5-1.21l1.24.8c-.19.57-.37,1.16-.55,1.77s-.34,1.18-.47,1.72c-.13.54-.25,1-.34,1.39-.04.15-.07.32-.09.51-.02.19-.03.35-.03.47,0,.09,0,.22,0,.38s.02.31.03.44l-2.22.22c-.15-.4-.31-.95-.49-1.65-.18-.7-.33-1.47-.46-2.32-.13-.85-.19-1.68-.19-2.51,0-1.09.04-2.15.11-3.16s.16-1.94.27-2.77c.11-.83.19-1.52.26-2.05.05-.28.09-.58.1-.89.01-.31.03-.6.04-.85l2.96.3Zm2.06,3.56c.32.04.65.08.98.11.33.03.67.06,1.01.08.34.02.68.03,1.03.03.87,0,1.77-.02,2.72-.06.95-.04,1.86-.1,2.74-.19.88-.09,1.65-.19,2.3-.31l-.02,2.6c-.63.07-1.37.13-2.22.19-.85.06-1.75.11-2.69.14-.94.03-1.86.05-2.77.05-.28,0-.6,0-.96-.02-.36-.01-.72-.03-1.08-.04-.36-.01-.71-.03-1.04-.04v-2.54Zm7.88-3.9c-.03.21-.05.44-.06.67-.01.23-.03.46-.04.69-.01.19-.02.47,0,.85,0,.38,0,.81,0,1.28v1.44c0,.49,0,.94,0,1.35s.01.73.01.96c0,1.19-.04,2.26-.13,3.23s-.27,1.86-.56,2.67c-.29.81-.72,1.57-1.3,2.26s-1.37,1.36-2.37,2l-2.3-1.82c.37-.16.79-.39,1.24-.69s.81-.6,1.08-.91c.39-.4.7-.82.94-1.26.24-.44.43-.93.57-1.46.14-.53.23-1.13.28-1.78s.07-1.41.07-2.26v-1.36c0-.55,0-1.11-.02-1.7-.01-.59-.03-1.13-.04-1.63-.01-.5-.03-.88-.06-1.15-.01-.25-.04-.51-.09-.76-.05-.25-.09-.46-.13-.62h2.9Z"/>
            <path class="cls-2" d="m585.91,62.53c.28.04.58.07.9.08.32.01.63.02.92.02.21,0,.53,0,.96-.01.43,0,.91-.02,1.45-.03.54-.01,1.08-.03,1.61-.04.53-.01,1.02-.03,1.45-.05.43-.02.77-.04,1.01-.05.41-.04.74-.08.98-.11.24-.03.42-.07.54-.11l1.3,1.78c-.23.15-.46.29-.7.44-.24.15-.47.31-.7.48-.27.19-.59.43-.96.73-.37.3-.77.62-1.19.95-.42.33-.83.66-1.22.98-.39.32-.75.61-1.07.86.33-.08.65-.14.96-.17s.62-.05.94-.05c1.13,0,2.15.22,3.05.66.9.44,1.61,1.04,2.14,1.79.53.75.79,1.62.79,2.59,0,1.05-.27,2.01-.8,2.86s-1.34,1.53-2.41,2.04c-1.07.51-2.42.76-4.03.76-.92,0-1.75-.13-2.49-.4s-1.32-.65-1.75-1.14-.64-1.07-.64-1.74c0-.55.15-1.06.45-1.53.3-.47.72-.86,1.26-1.15s1.16-.44,1.87-.44c.92,0,1.7.18,2.33.55.63.37,1.12.86,1.46,1.47.34.61.52,1.29.53,2.02l-2.34.32c-.01-.73-.2-1.32-.55-1.77-.35-.45-.82-.67-1.41-.67-.37,0-.67.1-.9.29-.23.19-.34.42-.34.67,0,.37.19.67.56.9.37.23.86.34,1.46.34,1.13,0,2.08-.14,2.84-.41.76-.27,1.33-.67,1.71-1.18.38-.51.57-1.12.57-1.83,0-.6-.18-1.13-.55-1.58-.37-.45-.86-.81-1.49-1.06-.63-.25-1.33-.38-2.12-.38s-1.48.1-2.12.29c-.64.19-1.24.47-1.81.82-.57.35-1.12.78-1.66,1.28s-1.08,1.06-1.61,1.67l-1.82-1.88c.36-.29.77-.62,1.22-.99.45-.37.92-.75,1.39-1.15.47-.4.92-.78,1.34-1.13.42-.35.78-.65,1.07-.89.28-.23.61-.49.98-.8s.76-.62,1.16-.95c.4-.33.78-.64,1.14-.94.36-.3.66-.56.9-.77-.2,0-.46,0-.78.02-.32.01-.67.03-1.05.04-.38.01-.76.03-1.14.04-.38.01-.73.03-1.06.05-.33.02-.6.04-.81.05-.27.01-.55.03-.84.06-.29.03-.56.06-.8.1l-.08-2.6Z"/>
            <path class="cls-2" d="m603.89,62.11h18.12v2.44h-18.12v-2.44Zm1.86,4.68h2.32v9.32h-2.32v-9.32Zm.98,0h7.54v7.78h-7.54v-2.3h5.18v-3.2h-5.18v-2.28Zm10.44-4h2.52v13.74c0,.72-.09,1.28-.28,1.67-.19.39-.53.69-1.02.89-.48.2-1.09.32-1.84.37-.75.05-1.63.07-2.66.07-.05-.24-.13-.52-.24-.83s-.23-.62-.37-.93c-.14-.31-.28-.57-.41-.78.49.01.99.03,1.49.04.5.01.95.02,1.35.02h.84c.23,0,.39-.04.48-.12.09-.08.14-.23.14-.44v-13.7Z"/>
            <path class="cls-2" d="m625.93,64.79c.72-.03,1.55-.06,2.48-.09.93-.03,1.91-.08,2.94-.13,1.03-.05,2.06-.1,3.1-.14l-.02,2.1c-.99.07-1.97.13-2.96.2-.99.07-1.93.13-2.84.18-.91.05-1.74.11-2.5.16l-.2-2.28Zm3.04-4.1l2.5.52c-.24.61-.5,1.23-.77,1.85s-.55,1.21-.82,1.76c-.27.55-.54,1.04-.79,1.47l-2.1-.54c.25-.45.5-.97.75-1.56.25-.59.48-1.19.7-1.8.22-.61.4-1.18.53-1.7Zm-1.84,7.32h6.34v1.96h-4.12v9.58h-2.22v-11.54Zm1,3.02h5.56v1.78h-5.56v-1.78Zm0,2.94h5.56v1.78h-5.56v-1.78Zm4.2-5.96h2.38v9.12c0,.52-.06.94-.18,1.25-.12.31-.35.56-.7.73-.33.19-.73.3-1.2.34s-1,.06-1.6.06c-.05-.32-.16-.68-.31-1.09-.15-.41-.31-.75-.47-1.03.36.01.71.02,1.06.02s.58,0,.7-.02c.13,0,.22-.02.26-.06s.06-.12.06-.24v-9.08Zm-.64-5.14l2.02-.76c.33.48.66,1,.97,1.56.31.56.6,1.11.86,1.65s.46,1.03.59,1.47l-2.2.86c-.11-.43-.28-.91-.51-1.46s-.5-1.11-.8-1.69c-.3-.58-.61-1.12-.93-1.63Zm4.6-2.02h2.38v6.02c0,.35.05.57.16.66.11.09.35.14.72.14h2.2c.23,0,.39-.05.5-.15s.19-.3.24-.6c.05-.3.09-.74.12-1.33.16.13.37.26.62.37.25.11.51.22.78.31.27.09.51.17.72.22-.08.87-.22,1.54-.41,2.02-.19.48-.48.82-.85,1.01s-.87.29-1.5.29h-2.74c-.79,0-1.39-.09-1.82-.27-.43-.18-.72-.48-.88-.9s-.24-1-.24-1.75v-6.04Zm0,9.36h2.38v6.3c0,.36.06.59.17.68.11.09.36.14.75.14h2.26c.24,0,.42-.06.54-.18.12-.12.21-.35.27-.7.06-.35.1-.86.13-1.54.25.19.59.36,1,.53.41.17.78.29,1.1.37-.08.93-.22,1.66-.41,2.19-.19.53-.48.9-.86,1.11s-.89.32-1.53.32h-2.86c-.77,0-1.37-.09-1.8-.27-.43-.18-.72-.48-.89-.9s-.25-1-.25-1.73v-6.32Zm6.14.82l1.58,1.76c-.6.33-1.26.64-1.98.93s-1.45.56-2.18.81c-.73.25-1.45.48-2.16.68-.05-.23-.15-.51-.29-.84-.14-.33-.28-.61-.41-.84.65-.21,1.31-.46,1.98-.74.67-.28,1.3-.57,1.9-.87.6-.3,1.12-.6,1.56-.89Zm-.14-9l1.52,1.76c-.6.28-1.24.55-1.93.81s-1.38.5-2.09.73c-.71.23-1.39.43-2.06.6-.05-.23-.15-.5-.29-.82-.14-.32-.27-.59-.39-.82.61-.2,1.24-.42,1.88-.67.64-.25,1.25-.51,1.83-.79.58-.28,1.09-.55,1.53-.8Z"/>
            <path class="cls-2" d="m649.03,64.63l1.7.24c-.03.57-.08,1.2-.16,1.88-.08.68-.18,1.35-.31,2-.13.65-.27,1.24-.43,1.76l-1.78-.64c.16-.44.3-.97.43-1.58.13-.61.24-1.24.34-1.88.1-.64.17-1.23.21-1.78Zm1.68-3.86h2.4v18.78h-2.4v-18.78Zm1.94,4l1.62-.68c.28.51.55,1.07.8,1.68s.43,1.13.54,1.56l-1.74.8c-.05-.29-.15-.63-.28-1.01-.13-.38-.28-.78-.44-1.19s-.33-.8-.5-1.16Zm3.78-3.08l2.34.36c-.13.99-.31,1.96-.53,2.93-.22.97-.47,1.87-.76,2.7-.29.83-.6,1.56-.95,2.19-.15-.11-.35-.23-.62-.38-.27-.15-.54-.28-.81-.41-.27-.13-.51-.23-.71-.31.36-.56.67-1.22.94-1.98.27-.76.49-1.58.67-2.45.18-.87.32-1.76.43-2.65Zm-1.94,14.94h12.52v2.3h-12.52v-2.3Zm1.5-6.24h9.96v2.24h-9.96v-2.24Zm1.16-5.56h9.24v2.26h-9.94l.7-2.26Zm2.74-3.94h2.4v17.06h-2.4v-17.06Z"/>
            <path class="cls-2" d="m671.17,66.21c.36.03.72.04,1.07.03.35,0,.71-.02,1.07-.03.33-.01.73-.04,1.2-.07.47-.03.96-.07,1.49-.11.53-.04,1.06-.08,1.59-.13.53-.05,1.03-.08,1.48-.11.45-.03.83-.04,1.12-.04.72,0,1.35.12,1.88.35s.96.63,1.27,1.19c.31.56.47,1.32.47,2.28,0,.79-.03,1.64-.1,2.56-.07.92-.18,1.8-.35,2.64s-.4,1.55-.69,2.14c-.32.69-.76,1.17-1.31,1.44-.55.27-1.21.4-1.97.4-.37,0-.78-.03-1.22-.09-.44-.06-.83-.12-1.18-.19l-.42-2.64c.25.07.54.13.85.2.31.07.61.12.9.16s.52.06.69.06c.33,0,.63-.06.88-.19.25-.13.46-.35.62-.67.19-.39.34-.89.46-1.5s.21-1.28.27-1.99c.06-.71.09-1.4.09-2.05,0-.53-.08-.93-.23-1.18-.15-.25-.37-.42-.66-.51-.29-.09-.64-.13-1.05-.13-.31,0-.72.02-1.24.07-.52.05-1.08.1-1.67.16-.59.06-1.14.12-1.65.19-.51.07-.9.11-1.18.14-.29.05-.66.11-1.11.17-.45.06-.82.12-1.13.17l-.24-2.72Zm8.12-4.1c-.05.25-.11.53-.18.83s-.13.58-.18.83c-.05.29-.12.62-.2.99-.08.37-.16.73-.23,1.1-.07.37-.15.72-.23,1.07-.13.57-.3,1.24-.5,2s-.43,1.58-.7,2.45-.57,1.75-.9,2.63c-.33.88-.69,1.74-1.06,2.57-.37.83-.77,1.58-1.2,2.25l-2.6-1.04c.47-.63.9-1.33,1.31-2.11.41-.78.78-1.58,1.11-2.4.33-.82.63-1.63.89-2.44.26-.81.49-1.56.68-2.25.19-.69.34-1.29.45-1.78.19-.91.33-1.78.44-2.62s.15-1.63.12-2.38l2.98.3Zm6.88,2.02c.32.44.65.98.99,1.61.34.63.68,1.3,1.01,2.01.33.71.63,1.39.9,2.04.27.65.47,1.22.62,1.7l-2.54,1.16c-.12-.56-.3-1.18-.53-1.86-.23-.68-.5-1.37-.81-2.07s-.63-1.36-.97-1.99c-.34-.63-.69-1.15-1.05-1.58l2.38-1.02Zm-.36-2.78c.17.24.36.53.55.86.19.33.38.67.57,1,.19.33.35.63.48.88l-1.62.7c-.13-.28-.29-.59-.46-.92-.17-.33-.35-.67-.54-1-.19-.33-.37-.62-.56-.86l1.58-.66Zm2.38-.9c.17.25.36.55.56.88.2.33.4.67.59,1,.19.33.34.61.45.84l-1.58.68c-.21-.41-.47-.88-.76-1.41-.29-.53-.58-.98-.86-1.35l1.6-.64Z"/>
            <path class="cls-2" d="m707.31,66.81c-.04.12-.1.29-.18.5-.08.21-.16.43-.23.66-.07.23-.13.41-.17.54-.39,1.2-.86,2.3-1.41,3.29-.55.99-1.15,1.86-1.79,2.6-.64.74-1.27,1.34-1.9,1.81-.65.49-1.4.92-2.24,1.29-.84.37-1.69.55-2.54.55-.48,0-.93-.1-1.34-.3-.41-.2-.74-.52-.99-.95-.25-.43-.37-.98-.37-1.65,0-.72.15-1.43.44-2.12s.7-1.35,1.22-1.98c.52-.63,1.13-1.18,1.82-1.67.69-.49,1.44-.87,2.24-1.15.65-.24,1.37-.43,2.15-.58.78-.15,1.55-.22,2.31-.22,1.24,0,2.35.23,3.33.68.98.45,1.75,1.07,2.31,1.86.56.79.84,1.71.84,2.76,0,.71-.11,1.4-.34,2.07-.23.67-.6,1.3-1.11,1.87-.51.57-1.19,1.07-2.03,1.48s-1.87.71-3.1.9l-1.32-2.1c1.28-.15,2.32-.44,3.12-.87.8-.43,1.38-.96,1.75-1.57.37-.61.55-1.25.55-1.9,0-.59-.16-1.11-.47-1.58-.31-.47-.78-.84-1.4-1.13-.62-.29-1.38-.43-2.29-.43s-1.72.1-2.43.3c-.71.2-1.31.41-1.79.64-.67.32-1.26.72-1.78,1.21-.52.49-.93,1-1.22,1.53-.29.53-.44,1.03-.44,1.48,0,.32.07.56.22.73.15.17.38.25.7.25.48,0,1.03-.16,1.66-.47s1.25-.76,1.86-1.33c.72-.67,1.4-1.47,2.04-2.4.64-.93,1.17-2.09,1.58-3.48.04-.13.08-.31.12-.52.04-.21.08-.43.11-.65.03-.22.06-.4.07-.53l2.44.58Zm-8.62-2.92c1.27,0,2.46-.03,3.57-.08,1.11-.05,2.19-.15,3.22-.28,1.03-.13,2.06-.33,3.09-.58l.02,2.32c-.69.12-1.46.23-2.29.33s-1.7.18-2.6.25c-.9.07-1.78.12-2.65.15-.87.03-1.68.05-2.44.05-.35,0-.74,0-1.17-.02-.43-.01-.86-.03-1.28-.05-.42-.02-.78-.04-1.09-.05l-.06-2.32c.23.03.55.06.98.11s.88.09,1.37.12c.49.03.93.05,1.33.05Zm3.56-2.22c-.05.19-.1.37-.15.55-.05.18-.09.35-.13.51-.12.63-.23,1.34-.34,2.15s-.19,1.65-.26,2.52c-.07.87-.1,1.73-.1,2.57,0,1.04.05,2,.16,2.87.11.87.26,1.68.45,2.42s.4,1.44.63,2.11l-2.3.7c-.2-.6-.39-1.31-.57-2.14-.18-.83-.33-1.72-.45-2.67s-.18-1.92-.18-2.89c0-.67.02-1.34.07-2.01.05-.67.1-1.34.15-2,.05-.66.12-1.29.19-1.9.07-.61.14-1.16.19-1.65.01-.19.03-.39.04-.61.01-.22.01-.42,0-.59l2.6.06Z"/>
            <path class="cls-2" d="m719.91,61.71c-.07.24-.14.54-.22.9-.08.36-.16.74-.24,1.13-.08.39-.15.78-.21,1.15-.06.37-.1.7-.13.98.24-.4.53-.79.86-1.17.33-.38.71-.73,1.13-1.04.42-.31.88-.56,1.38-.75.5-.19,1.03-.28,1.59-.28.93,0,1.77.29,2.52.86.75.57,1.34,1.39,1.77,2.46.43,1.07.65,2.33.65,3.8s-.21,2.65-.62,3.71c-.41,1.06-1.01,1.96-1.78,2.71-.77.75-1.7,1.36-2.77,1.83-1.07.47-2.27.83-3.59,1.07l-1.52-2.32c1.11-.17,2.12-.41,3.05-.71.93-.3,1.73-.71,2.4-1.23.67-.52,1.19-1.19,1.56-2.01.37-.82.55-1.83.55-3.03,0-1.03-.11-1.9-.32-2.61-.21-.71-.52-1.26-.93-1.63-.41-.37-.89-.56-1.45-.56-.59,0-1.15.19-1.68.58s-1.01.89-1.43,1.51-.75,1.29-1,2.01c-.25.72-.38,1.41-.41,2.08-.01.28-.02.59,0,.92,0,.33.04.73.11,1.2l-2.46.16c-.05-.39-.11-.87-.17-1.45-.06-.58-.09-1.21-.09-1.89,0-.47.02-.97.05-1.5s.07-1.08.12-1.63c.05-.55.11-1.11.18-1.67.07-.56.14-1.09.21-1.6.05-.39.09-.77.12-1.14.03-.37.04-.69.04-.96l2.74.12Z"/>
            <path class="cls-2" d="m743.71,61.59c-.03.2-.05.42-.07.67-.02.25-.04.5-.05.75-.01.27-.03.62-.04,1.07-.01.45-.02.94-.02,1.47v3c0,.56.01,1.18.04,1.87s.06,1.38.11,2.08c.05.7.09,1.35.12,1.96.03.61.05,1.11.05,1.51,0,.56-.15,1.07-.44,1.53-.29.46-.73.82-1.31,1.09-.58.27-1.31.4-2.19.4-1.6,0-2.81-.29-3.64-.88-.83-.59-1.24-1.41-1.24-2.46,0-.68.2-1.28.59-1.79.39-.51.96-.92,1.7-1.21.74-.29,1.62-.44,2.65-.44,1.09,0,2.12.12,3.07.35s1.82.54,2.61.91,1.49.77,2.1,1.18c.61.41,1.13.79,1.56,1.12l-1.44,2.24c-.48-.45-1.02-.9-1.61-1.34-.59-.44-1.24-.84-1.94-1.2-.7-.36-1.44-.65-2.22-.87s-1.6-.33-2.47-.33c-.69,0-1.23.12-1.61.36-.38.24-.57.53-.57.88,0,.25.08.47.24.66s.39.33.7.42c.31.09.69.14,1.16.14.36,0,.67-.04.93-.12s.46-.23.61-.44c.15-.21.22-.51.22-.9,0-.29,0-.71-.03-1.26-.02-.55-.04-1.15-.07-1.81-.03-.66-.05-1.31-.08-1.95-.03-.64-.04-1.21-.04-1.7s0-.98,0-1.51c0-.53,0-1.05,0-1.57s0-1,0-1.43c0-.43.01-.79.01-1.07,0-.19-.01-.42-.03-.69-.02-.27-.05-.5-.09-.69h2.7Zm-8.4,6.2c.32.05.7.11,1.14.16.44.05.89.09,1.35.12.46.03.9.05,1.31.07.41.02.75.03,1.02.03,1.24,0,2.36-.03,3.37-.08,1.01-.05,1.95-.12,2.83-.2.88-.08,1.73-.17,2.54-.28l-.02,2.36c-.69.08-1.36.15-2.01.2-.65.05-1.31.1-1.98.14s-1.4.07-2.17.08-1.64.02-2.6.02c-.39,0-.87,0-1.44-.03-.57-.02-1.16-.05-1.75-.09-.59-.04-1.12-.09-1.57-.14l-.02-2.36Zm.1-4.32c.36.05.76.11,1.2.16.44.05.89.1,1.35.15.46.05.9.08,1.31.1.41.02.77.03,1.08.03,1.36,0,2.72-.04,4.07-.13,1.35-.09,2.76-.25,4.21-.49l-.02,2.3c-.68.09-1.47.18-2.36.26-.89.08-1.84.14-2.85.19-1.01.05-2.02.07-3.03.07-.41,0-.92-.02-1.53-.05-.61-.03-1.21-.08-1.81-.14-.6-.06-1.12-.12-1.56-.17l-.06-2.28Z"/>
            <path class="cls-2" d="m753.89,64.13c.59,0,1.25,0,2-.02.75-.01,1.53-.03,2.34-.04.81-.01,1.61-.03,2.4-.04.79-.01,1.53-.02,2.22-.03s1.29-.01,1.8-.01,1.06,0,1.66,0c.6,0,1.19,0,1.78,0h2.74l-.02,2.36c-.63-.03-1.45-.05-2.48-.07-1.03-.02-2.28-.03-3.76-.03-.91,0-1.83,0-2.76.03-.93.02-1.86.04-2.78.07-.92.03-1.81.06-2.66.09-.85.03-1.66.08-2.42.13l-.06-2.42Zm10.82,5.92c0,1.09-.13,2-.39,2.72-.26.72-.65,1.26-1.17,1.63-.52.37-1.17.55-1.94.55-.37,0-.76-.08-1.17-.24-.41-.16-.78-.39-1.13-.7s-.62-.69-.83-1.14c-.21-.45-.31-.99-.31-1.6,0-.76.18-1.42.54-1.97.36-.55.84-.99,1.45-1.3.61-.31,1.28-.47,2.01-.47.88,0,1.62.2,2.21.59.59.39,1.04.92,1.34,1.59.3.67.45,1.42.45,2.26,0,.65-.11,1.33-.32,2.04-.21.71-.56,1.4-1.05,2.07-.49.67-1.14,1.28-1.96,1.83-.82.55-1.84.99-3.07,1.34l-2.14-2.12c.85-.17,1.65-.4,2.38-.68.73-.28,1.38-.63,1.93-1.06.55-.43.99-.95,1.3-1.58s.47-1.38.47-2.26c0-.64-.16-1.12-.47-1.44s-.69-.48-1.13-.48c-.25,0-.5.06-.74.18s-.43.3-.58.54-.22.53-.22.88c0,.45.16.82.47,1.09.31.27.67.41,1.07.41.32,0,.6-.1.85-.3.25-.2.41-.53.49-1s.01-1.09-.2-1.88l1.86.5Zm.48-8.4c-.01.11-.03.28-.05.51-.02.23-.04.47-.05.7-.01.23-.03.4-.04.51-.01.27-.02.62-.02,1.07v1.49c0,.55,0,1.1,0,1.65,0,.55.01,1.07.02,1.56s.01.89.01,1.21l-2.5-.84v-2.39c0-.5,0-1-.01-1.49s-.02-.94-.03-1.34c-.01-.4-.03-.7-.04-.9-.03-.41-.06-.78-.1-1.09s-.07-.53-.1-.65h2.9Z"/>
            <path class="cls-2" d="m775.37,72.81c.61,0,1.16.15,1.64.44.48.29.87.68,1.16,1.17.29.49.44,1.03.44,1.63s-.15,1.13-.44,1.62c-.29.49-.68.89-1.17,1.18-.49.29-1.03.44-1.63.44s-1.13-.15-1.62-.44c-.49-.29-.88-.69-1.17-1.18-.29-.49-.43-1.03-.43-1.62s.14-1.14.43-1.63c.29-.49.68-.88,1.17-1.17.49-.29,1.03-.44,1.62-.44Zm.02,5.04c.49,0,.91-.18,1.26-.53.35-.35.52-.78.52-1.27,0-.33-.08-.64-.24-.91s-.38-.49-.65-.65-.58-.24-.91-.24-.61.08-.88.24c-.27.16-.48.38-.65.65-.17.27-.25.58-.25.91s.08.64.25.91c.17.27.38.49.65.65.27.16.57.24.9.24Z"/>
          </g>
          <g>
            <g>
              <path class="cls-1" d="m196.25,74.76c-.32,0-.58-.26-.58-.58v-21c0-.32.26-.58.58-.58h10.36c.32,0,.58.26.58.58v2.59c0,.32-.26.58-.58.58h-6.23c-.32,0-.58.26-.58.58v17.26c0,.32-.26.58-.58.58h-2.97Z"/>
              <path class="cls-1" d="m196.25,74.76c-.32,0-.58-.26-.58-.58v-21c0-.32.26-.58.58-.58h10.36c.32,0,.58.26.58.58v2.59c0,.32-.26.58-.58.58h-6.23c-.32,0-.58.26-.58.58v17.26c0,.32-.26.58-.58.58h-2.97Z"/>
            </g>
            <g>
              <path class="cls-1" d="m231.01,85.16c-1.59,0-2.8-.14-3.71-.42-.91-.28-1.53-.75-1.89-1.42-.32-.6-.49-1.38-.53-2.39-.01-.31-.27-.56-.58-.56h-4.61c-.32,0-.58.26-.58.58v.4c0,.32-.26.58-.58.58h-2.83c-.32,0-.58-.26-.58-.58v-11.54c0-.32.26-.58.58-.58h8.92c.22,0,.42-.13.52-.33.08-.16.08-.35,0-.51-.04-.08-.06-.17-.06-.26v-6.51c0-.32-.26-.58-.58-.58h-8.28c-.32,0-.58.26-.58.58v3.18c0,.32-.26.58-.58.58h-2.55c-.32,0-.58-.26-.58-.58v-5.95c0-.32.26-.58.58-.58h11.99c.32,0,.58-.26.58-.58v-.13c0-.32-.26-.58-.58-.58h-9.59c-.32,0-.58-.26-.58-.58v-1.93c0-.32.26-.58.58-.58h24.57c.32,0,.58.26.58.58v1.93c0,.32-.26.58-.58.58h-9.73c-.32,0-.58.26-.58.58v.13c0,.32.26.58.58.58h12.23c.32,0,.58.26.58.58v5.95c0,.32-.26.58-.58.58h-2.69c-.32,0-.58-.26-.58-.58v-3.18c0-.32-.26-.58-.58-.58h-8.38c-.32,0-.58.26-.58.58v6.51c0,.09-.02.18-.06.26-.08.16-.08.35,0,.51.1.2.3.33.52.33h9.09c.32,0,.58.26.58.58v8.26c0,.23.14.44.35.53.07.03.15.05.23.05.06,0,.13-.01.19-.03.06-.02.13-.03.19-.03.1,0,.2.03.29.08.37.22.84.43,1.38.63.47.18.92.32,1.32.41.29.07.48.35.43.64-.17,1.14-.4,2.03-.73,2.7-.37.78-.91,1.31-1.65,1.63-.73.31-1.71.47-3,.47h-7.28Zm-1.53-4.79c-.18,0-.34.08-.45.22-.11.14-.15.32-.11.49.09.38.27.55.4.62.11.06.47.26,2.03.26h6.62c.58,0,1.02-.08,1.32-.24.19-.1.34-.27.47-.5.1-.18.09-.4-.01-.57-.1-.17-.29-.28-.5-.28h-9.77Zm-.04-4.3c-.32,0-.58.26-.58.58v.37c0,.32.26.58.58.58h5.16c.32,0,.58-.26.58-.58v-.37c0-.32-.26-.58-.58-.58h-5.16Zm-9.74,0c-.32,0-.58.26-.58.58v.37c0,.32.26.58.58.58h4.6c.32,0,.58-.26.58-.58v-.37c0-.32-.26-.58-.58-.58h-4.6Zm9.74-4.02c-.32,0-.58.26-.58.58v.37c0,.32.26.58.58.58h5.16c.32,0,.58-.26.58-.58v-.37c0-.32-.26-.58-.58-.58h-5.16Zm-9.74,0c-.32,0-.58.26-.58.58v.37c0,.32.26.58.58.58h4.6c.32,0,.58-.26.58-.58v-.37c0-.32-.26-.58-.58-.58h-4.6Zm11.34-4.09c-.32,0-.58-.26-.58-.58v-1.13c0-.32.26-.58.58-.58h6.47c.32,0,.58.26.58.58v1.13c0,.32-.26.58-.58.58h-6.47Zm-14.11,0c-.32,0-.58-.26-.58-.58v-1.13c0-.32.26-.58.58-.58h6.37c.32,0,.58.26.58.58v1.13c0,.32-.26.58-.58.58h-6.37Zm14.11-3.47c-.32,0-.58-.26-.58-.58v-1.1c0-.32.26-.58.58-.58h5.64c.32,0,.58.26.58.58v1.1c0,.32-.26.58-.58.58h-5.64Zm-13.46,0c-.32,0-.58-.26-.58-.58v-1.1c0-.32.26-.58.58-.58h5.71c.32,0,.58.26.58.58v1.1c0,.32-.26.58-.58.58h-5.71Z"/>
              <path class="cls-1" d="m231.01,85.16c-1.59,0-2.8-.14-3.71-.42-.91-.28-1.53-.75-1.89-1.42-.32-.6-.49-1.38-.53-2.39-.01-.31-.27-.56-.58-.56h-4.61c-.32,0-.58.26-.58.58v.4c0,.32-.26.58-.58.58h-2.83c-.32,0-.58-.26-.58-.58v-11.54c0-.32.26-.58.58-.58h8.92c.22,0,.42-.13.52-.33.08-.16.08-.35,0-.51-.04-.08-.06-.17-.06-.26v-6.51c0-.32-.26-.58-.58-.58h-8.28c-.32,0-.58.26-.58.58v3.18c0,.32-.26.58-.58.58h-2.55c-.32,0-.58-.26-.58-.58v-5.95c0-.32.26-.58.58-.58h11.99c.32,0,.58-.26.58-.58v-.13c0-.32-.26-.58-.58-.58h-9.59c-.32,0-.58-.26-.58-.58v-1.93c0-.32.26-.58.58-.58h24.57c.32,0,.58.26.58.58v1.93c0,.32-.26.58-.58.58h-9.73c-.32,0-.58.26-.58.58v.13c0,.32.26.58.58.58h12.23c.32,0,.58.26.58.58v5.95c0,.32-.26.58-.58.58h-2.69c-.32,0-.58-.26-.58-.58v-3.18c0-.32-.26-.58-.58-.58h-8.38c-.32,0-.58.26-.58.58v6.51c0,.09-.02.18-.06.26-.08.16-.08.35,0,.51.1.2.3.33.52.33h9.09c.32,0,.58.26.58.58v8.26c0,.23.14.44.35.53.07.03.15.05.23.05.06,0,.13-.01.19-.03.06-.02.13-.03.19-.03.1,0,.2.03.29.08.37.22.84.43,1.38.63.47.18.92.32,1.32.41.29.07.48.35.43.64-.17,1.14-.4,2.03-.73,2.7-.37.78-.91,1.31-1.65,1.63-.73.31-1.71.47-3,.47h-7.28Zm-1.53-4.79c-.18,0-.34.08-.45.22-.11.14-.15.32-.11.49.09.38.27.55.4.62.11.06.47.26,2.03.26h6.62c.58,0,1.02-.08,1.32-.24.19-.1.34-.27.47-.5.1-.18.09-.4-.01-.57-.1-.17-.29-.28-.5-.28h-9.77Zm-.04-4.3c-.32,0-.58.26-.58.58v.37c0,.32.26.58.58.58h5.16c.32,0,.58-.26.58-.58v-.37c0-.32-.26-.58-.58-.58h-5.16Zm-9.74,0c-.32,0-.58.26-.58.58v.37c0,.32.26.58.58.58h4.6c.32,0,.58-.26.58-.58v-.37c0-.32-.26-.58-.58-.58h-4.6Zm9.74-4.02c-.32,0-.58.26-.58.58v.37c0,.32.26.58.58.58h5.16c.32,0,.58-.26.58-.58v-.37c0-.32-.26-.58-.58-.58h-5.16Zm-9.74,0c-.32,0-.58.26-.58.58v.37c0,.32.26.58.58.58h4.6c.32,0,.58-.26.58-.58v-.37c0-.32-.26-.58-.58-.58h-4.6Zm11.34-4.09c-.32,0-.58-.26-.58-.58v-1.13c0-.32.26-.58.58-.58h6.47c.32,0,.58.26.58.58v1.13c0,.32-.26.58-.58.58h-6.47Zm-14.11,0c-.32,0-.58-.26-.58-.58v-1.13c0-.32.26-.58.58-.58h6.37c.32,0,.58.26.58.58v1.13c0,.32-.26.58-.58.58h-6.37Zm14.11-3.47c-.32,0-.58-.26-.58-.58v-1.1c0-.32.26-.58.58-.58h5.64c.32,0,.58.26.58.58v1.1c0,.32-.26.58-.58.58h-5.64Zm-13.46,0c-.32,0-.58-.26-.58-.58v-1.1c0-.32.26-.58.58-.58h5.71c.32,0,.58.26.58.58v1.1c0,.32-.26.58-.58.58h-5.71Z"/>
            </g>
            <g>
              <path class="cls-1" d="m251.53,85.64c-.17,0-.34-.08-.45-.22-.16-.2-.35-.43-.57-.68-.35-.41-.74-.82-1.14-1.21l-.39-.37c-.14-.13-.21-.33-.17-.52.03-.19.16-.35.34-.43,1.8-.78,3.55-1.73,5.18-2.81.75-.5,1.48-1.03,2.17-1.59.14-.12.22-.29.21-.48,0-.18-.11-.35-.26-.46-.4-.26-.8-.52-1.2-.77-1.13-.72-2.25-1.39-3.31-2-.16-.09-.26-.25-.29-.44-.02-.18.05-.36.18-.49l2.07-1.92c.11-.1.25-.15.39-.15.09,0,.19.02.27.07,1.15.62,2.37,1.3,3.61,2.04.48.29.97.58,1.45.88.09.06.2.09.3.09.17,0,.34-.08.45-.21.88-1.08,1.67-2.23,2.33-3.41.1-.18.1-.4,0-.58s-.29-.29-.5-.29h-10.44c-.32,0-.58-.26-.58-.58v-1.47c0-.2-.1-.38-.27-.49-.03-.02-.06-.04-.09-.07-.26-.25-.6-.52-1.05-.84-.48-.33-.96-.67-1.44-1.01-.19-.13-.38-.26-.55-.37-.15-.1-.25-.26-.26-.45s.06-.36.2-.48c1.44-1.24,2.74-2.8,3.86-4.64,1.18-1.95,2.12-4.06,2.78-6.27.07-.25.3-.41.55-.41.04,0,.08,0,.12.01l3.23.69c.16.03.3.13.38.27.08.14.1.31.05.46-.13.4-.26.8-.4,1.19-.06.18-.04.37.07.53.11.15.28.24.47.24h19.16c.32,0,.58.26.58.58v2.28c0,.32-.26.58-.58.58h-21.16c-.21,0-.41.12-.51.31-.09.17-.18.33-.27.5-.1.18-.09.4,0,.57.1.17.29.28.5.28h18.27c.32,0,.58.26.58.58v2.21c0,.32-.26.58-.58.58h-18.96c-.32,0-.58-.26-.58-.58v-.39c0-.25-.16-.47-.4-.55-.06-.02-.12-.03-.17-.03-.19,0-.37.09-.47.25-.52.74-1.05,1.44-1.6,2.08-.15.17-.18.41-.08.62.09.2.3.34.52.34h20.43c.32,0,.58.26.58.58,0,1.84.03,3.61.07,5.27.04,1.8.16,3.4.33,4.75.17,1.35.42,2.42.75,3.19.23.55.5.9.82,1.06.08.04.17.06.26.06.07,0,.14-.01.21-.04.15-.06.27-.18.33-.34.08-.21.14-.51.18-.9.06-.54.1-1.2.13-1.95,0-.23.15-.43.37-.51.07-.03.14-.04.21-.04.15,0,.3.06.41.17.13.12.25.25.39.38.4.38.79.72,1.14,1.01.15.12.22.3.21.49-.09,1.29-.26,2.37-.48,3.23-.24.92-.62,1.6-1.12,2.03-.51.43-1.21.64-2.08.64-1.47,0-2.6-.48-3.45-1.47-.84-.98-1.48-2.36-1.89-4.09-.41-1.73-.69-3.78-.83-6.09-.06-1.09-.11-2.23-.15-3.39,0-.31-.26-.56-.58-.56h-3.13c-.29,0-.53.21-.57.49-.04.28.12.55.39.64l.46.15c.17.05.3.18.36.34.06.16.05.34-.03.49-.85,1.52-1.85,2.97-2.95,4.32-.1.12-.15.29-.13.44.02.16.11.3.24.39.71.5,1.41,1.02,2.06,1.52.95.73,1.79,1.45,2.49,2.12.11.11.18.26.18.42,0,.16-.07.31-.18.42l-2.48,2.35c-.11.11-.25.16-.4.16-.15,0-.3-.06-.42-.18-.65-.67-1.44-1.4-2.33-2.15-.65-.54-1.33-1.09-2.05-1.64-.1-.08-.22-.12-.35-.12-.14,0-.28.05-.38.15-.83.74-1.7,1.44-2.6,2.1-1.82,1.33-3.74,2.5-5.71,3.47-.08.04-.17.06-.26.06Z"/>
              <path class="cls-1" d="m251.53,85.64c-.17,0-.34-.08-.45-.22-.16-.2-.35-.43-.57-.68-.35-.41-.74-.82-1.14-1.21l-.39-.37c-.14-.13-.21-.33-.17-.52.03-.19.16-.35.34-.43,1.8-.78,3.55-1.73,5.18-2.81.75-.5,1.48-1.03,2.17-1.59.14-.12.22-.29.21-.48,0-.18-.11-.35-.26-.46-.4-.26-.8-.52-1.2-.77-1.13-.72-2.25-1.39-3.31-2-.16-.09-.26-.25-.29-.44-.02-.18.05-.36.18-.49l2.07-1.92c.11-.1.25-.15.39-.15.09,0,.19.02.27.07,1.15.62,2.37,1.3,3.61,2.04.48.29.97.58,1.45.88.09.06.2.09.3.09.17,0,.34-.08.45-.21.88-1.08,1.67-2.23,2.33-3.41.1-.18.1-.4,0-.58s-.29-.29-.5-.29h-10.44c-.32,0-.58-.26-.58-.58v-1.47c0-.2-.1-.38-.27-.49-.03-.02-.06-.04-.09-.07-.26-.25-.6-.52-1.05-.84-.48-.33-.96-.67-1.44-1.01-.19-.13-.38-.26-.55-.37-.15-.1-.25-.26-.26-.45s.06-.36.2-.48c1.44-1.24,2.74-2.8,3.86-4.64,1.18-1.95,2.12-4.06,2.78-6.27.07-.25.3-.41.55-.41.04,0,.08,0,.12.01l3.23.69c.16.03.3.13.38.27.08.14.1.31.05.46-.13.4-.26.8-.4,1.19-.06.18-.04.37.07.53.11.15.28.24.47.24h19.16c.32,0,.58.26.58.58v2.28c0,.32-.26.58-.58.58h-21.16c-.21,0-.41.12-.51.31-.09.17-.18.33-.27.5-.1.18-.09.4,0,.57.1.17.29.28.5.28h18.27c.32,0,.58.26.58.58v2.21c0,.32-.26.58-.58.58h-18.96c-.32,0-.58-.26-.58-.58v-.39c0-.25-.16-.47-.4-.55-.06-.02-.12-.03-.17-.03-.19,0-.37.09-.47.25-.52.74-1.05,1.44-1.6,2.08-.15.17-.18.41-.08.62.09.2.3.34.52.34h20.43c.32,0,.58.26.58.58,0,1.84.03,3.61.07,5.27.04,1.8.16,3.4.33,4.75.17,1.35.42,2.42.75,3.19.23.55.5.9.82,1.06.08.04.17.06.26.06.07,0,.14-.01.21-.04.15-.06.27-.18.33-.34.08-.21.14-.51.18-.9.06-.54.1-1.2.13-1.95,0-.23.15-.43.37-.51.07-.03.14-.04.21-.04.15,0,.3.06.41.17.13.12.25.25.39.38.4.38.79.72,1.14,1.01.15.12.22.3.21.49-.09,1.29-.26,2.37-.48,3.23-.24.92-.62,1.6-1.12,2.03-.51.43-1.21.64-2.08.64-1.47,0-2.6-.48-3.45-1.47-.84-.98-1.48-2.36-1.89-4.09-.41-1.73-.69-3.78-.83-6.09-.06-1.09-.11-2.23-.15-3.39,0-.31-.26-.56-.58-.56h-3.13c-.29,0-.53.21-.57.49-.04.28.12.55.39.64l.46.15c.17.05.3.18.36.34.06.16.05.34-.03.49-.85,1.52-1.85,2.97-2.95,4.32-.1.12-.15.29-.13.44.02.16.11.3.24.39.71.5,1.41,1.02,2.06,1.52.95.73,1.79,1.45,2.49,2.12.11.11.18.26.18.42,0,.16-.07.31-.18.42l-2.48,2.35c-.11.11-.25.16-.4.16-.15,0-.3-.06-.42-.18-.65-.67-1.44-1.4-2.33-2.15-.65-.54-1.33-1.09-2.05-1.64-.1-.08-.22-.12-.35-.12-.14,0-.28.05-.38.15-.83.74-1.7,1.44-2.6,2.1-1.82,1.33-3.74,2.5-5.71,3.47-.08.04-.17.06-.26.06Z"/>
            </g>
            <g>
              <path class="cls-1" d="m289.57,85.19c-.32,0-.58-.26-.58-.58v-16.14c0-.24-.15-.46-.38-.54-.07-.02-.13-.04-.2-.04-.17,0-.33.07-.43.2-.66.76-1.34,1.47-2.01,2.12-.11.11-.25.16-.4.16-.03,0-.07,0-.1,0-.18-.03-.34-.15-.42-.32-.08-.18-.18-.37-.28-.56-.28-.53-.57-1.06-.88-1.6-.19-.33-.38-.63-.56-.9-.16-.24-.12-.56.1-.75,1.12-.98,2.23-2.14,3.28-3.45,1.18-1.45,2.28-3.03,3.29-4.7.92-1.51,1.71-3.07,2.37-4.62.09-.22.31-.35.53-.35.06,0,.12,0,.18.03l2.87.92c.16.05.28.16.35.31s.07.32,0,.47c-.82,1.85-1.78,3.72-2.85,5.55l-.08.13c-.05.09-.08.19-.08.29v23.79c0,.32-.26.58-.58.58h-3.14Zm22.27-.04c-1.64-.16-3.06-.77-4.23-1.8s-2.17-2.49-2.96-4.34c-.79-1.84-1.45-4.06-1.94-6.62-.26-1.36-.5-2.83-.69-4.38-.02-.15-.1-.29-.22-.39-.1-.08-.23-.12-.35-.12l-5.78.78s-.05,0-.08,0c-.28,0-.53-.21-.57-.49l-.42-2.84c-.02-.15.02-.31.11-.43.09-.12.23-.21.39-.23l5.93-.79c.3-.04.52-.31.5-.62-.21-2.83-.38-5.89-.5-9.08,0-.16.05-.31.16-.42.11-.11.26-.18.42-.18h3.06c.32,0,.57.25.58.57.05,2.97.18,5.83.39,8.5.01.16.09.3.21.4.1.08.23.13.36.13l8.83-1.17s.05,0,.08,0c.28,0,.53.21.57.49l.42,2.78c.02.15-.02.31-.11.43s-.23.21-.38.23l-8.94,1.22c-.32.04-.54.34-.5.65.23,1.65.49,3.18.8,4.57.53,2.42,1.19,4.36,1.98,5.78.78,1.4,1.69,2.19,2.72,2.34h.02c.32,0,.53-.15.61-.38,0-.02.03-.08.04-.09.12-.24.21-.52.3-.84.18-.72.34-1.73.46-3.08.02-.21.15-.39.34-.48.07-.03.15-.05.23-.05.13,0,.25.04.35.12l.2.15c.43.32.87.62,1.32.89.27.16.5.3.7.42.21.12.32.35.29.58-.29,2.05-.68,3.65-1.14,4.77-.5,1.21-1.04,2.01-1.65,2.45-.54.38-1.11.58-1.68.58-.06,0-.12,0-.19,0Zm.65-24.71s-.09,0-.13-.02c-.15-.03-.28-.13-.36-.26-.25-.4-.56-.84-.92-1.31-.53-.68-1.11-1.38-1.72-2.06-.44-.49-.87-.96-1.3-1.4-.12-.12-.18-.3-.16-.47s.12-.33.27-.42l2.13-1.33c.09-.06.2-.09.31-.09.14,0,.28.05.39.15.5.46,1.02.96,1.55,1.51.65.68,1.26,1.35,1.8,1.99.39.46.73.91,1,1.32.09.13.12.29.08.44-.03.15-.13.29-.26.37l-2.36,1.49c-.09.06-.2.09-.31.09Z"/>
              <path class="cls-1" d="m289.57,85.19c-.32,0-.58-.26-.58-.58v-16.14c0-.24-.15-.46-.38-.54-.07-.02-.13-.04-.2-.04-.17,0-.33.07-.43.2-.66.76-1.34,1.47-2.01,2.12-.11.11-.25.16-.4.16-.03,0-.07,0-.1,0-.18-.03-.34-.15-.42-.32-.08-.18-.18-.37-.28-.56-.28-.53-.57-1.06-.88-1.6-.19-.33-.38-.63-.56-.9-.16-.24-.12-.56.1-.75,1.12-.98,2.23-2.14,3.28-3.45,1.18-1.45,2.28-3.03,3.29-4.7.92-1.51,1.71-3.07,2.37-4.62.09-.22.31-.35.53-.35.06,0,.12,0,.18.03l2.87.92c.16.05.28.16.35.31s.07.32,0,.47c-.82,1.85-1.78,3.72-2.85,5.55l-.08.13c-.05.09-.08.19-.08.29v23.79c0,.32-.26.58-.58.58h-3.14Zm22.27-.04c-1.64-.16-3.06-.77-4.23-1.8s-2.17-2.49-2.96-4.34c-.79-1.84-1.45-4.06-1.94-6.62-.26-1.36-.5-2.83-.69-4.38-.02-.15-.1-.29-.22-.39-.1-.08-.23-.12-.35-.12l-5.78.78s-.05,0-.08,0c-.28,0-.53-.21-.57-.49l-.42-2.84c-.02-.15.02-.31.11-.43.09-.12.23-.21.39-.23l5.93-.79c.3-.04.52-.31.5-.62-.21-2.83-.38-5.89-.5-9.08,0-.16.05-.31.16-.42.11-.11.26-.18.42-.18h3.06c.32,0,.57.25.58.57.05,2.97.18,5.83.39,8.5.01.16.09.3.21.4.1.08.23.13.36.13l8.83-1.17s.05,0,.08,0c.28,0,.53.21.57.49l.42,2.78c.02.15-.02.31-.11.43s-.23.21-.38.23l-8.94,1.22c-.32.04-.54.34-.5.65.23,1.65.49,3.18.8,4.57.53,2.42,1.19,4.36,1.98,5.78.78,1.4,1.69,2.19,2.72,2.34h.02c.32,0,.53-.15.61-.38,0-.02.03-.08.04-.09.12-.24.21-.52.3-.84.18-.72.34-1.73.46-3.08.02-.21.15-.39.34-.48.07-.03.15-.05.23-.05.13,0,.25.04.35.12l.2.15c.43.32.87.62,1.32.89.27.16.5.3.7.42.21.12.32.35.29.58-.29,2.05-.68,3.65-1.14,4.77-.5,1.21-1.04,2.01-1.65,2.45-.54.38-1.11.58-1.68.58-.06,0-.12,0-.19,0Zm.65-24.71s-.09,0-.13-.02c-.15-.03-.28-.13-.36-.26-.25-.4-.56-.84-.92-1.31-.53-.68-1.11-1.38-1.72-2.06-.44-.49-.87-.96-1.3-1.4-.12-.12-.18-.3-.16-.47s.12-.33.27-.42l2.13-1.33c.09-.06.2-.09.31-.09.14,0,.28.05.39.15.5.46,1.02.96,1.55,1.51.65.68,1.26,1.35,1.8,1.99.39.46.73.91,1,1.32.09.13.12.29.08.44-.03.15-.13.29-.26.37l-2.36,1.49c-.09.06-.2.09-.31.09Z"/>
            </g>
            <g>
              <path class="cls-1" d="m338.02,84.19c-1.96,0-3.56-.12-4.75-.36-1.21-.24-2.1-.6-2.72-1.09-.62-.49-1.02-1.1-1.23-1.87-.21-.76-.31-1.66-.31-2.67v-8.76c0-.17-.08-.34-.21-.45-.1-.08-.23-.13-.37-.13-.04,0-.08,0-.12.01l-.59.12c-1.3.27-2.46.51-3.5.73-.74.16-1.38.29-1.92.41-.04,0-.08.01-.12.01-.11,0-.22-.03-.32-.1-.13-.09-.22-.22-.25-.37l-.64-3.36c-.03-.16,0-.32.1-.44.09-.13.23-.21.39-.24.58-.08,1.27-.19,2.05-.32,1.07-.17,2.29-.38,3.64-.61.45-.08.91-.16,1.38-.24.28-.05.48-.29.48-.57v-4.46c0-.39-.01-.83-.03-1.32-.02-.49-.05-.97-.09-1.46-.02-.2-.03-.39-.05-.57-.02-.16.03-.33.14-.45s.27-.19.43-.19h3.82c.17,0,.32.07.43.2.11.12.16.29.14.46-.05.38-.09.8-.12,1.27-.06.76-.09,1.46-.09,2.06v3.36c0,.17.08.33.21.45.1.08.23.13.37.13.04,0,.07,0,.11,0l1.41-.27c1.42-.26,2.76-.53,4.02-.78,1.26-.25,2.35-.48,3.28-.68l2.05-.43,1.37-.38c.15-.04.27-.12.35-.24.09-.13.23-.23.39-.25.03,0,.06,0,.09,0,.13,0,.25.04.36.12l2.83,2.21c.23.18.29.5.14.76l-.27.44c-.22.36-.41.69-.57.99-.39.71-.87,1.53-1.42,2.43-.55.9-1.16,1.83-1.8,2.78-.65.95-1.32,1.86-1.99,2.7-.56.7-1.11,1.33-1.64,1.87-.11.11-.26.17-.41.17-.1,0-.2-.03-.29-.08l-2.76-1.63c-.16-.09-.26-.25-.28-.43s.04-.36.18-.48c.56-.54,1.13-1.14,1.67-1.79.73-.87,1.39-1.72,1.96-2.55.26-.37.48-.72.69-1.04.12-.2.12-.45-.02-.64-.11-.16-.29-.25-.47-.25-.04,0-.08,0-.11.01l-.38.08c-.86.18-1.83.39-2.98.62-1.15.23-2.4.48-3.76.75l-1.82.36c-.27.05-.47.29-.47.57v8.7c0,.69.1,1.26.31,1.7.21.44.63.75,1.27.94.64.19,1.56.28,2.83.28s2.46-.05,3.69-.14c1.24-.09,2.48-.23,3.71-.42.99-.15,1.94-.3,2.86-.46.03,0,.07,0,.1,0,.14,0,.27.05.38.14.13.11.21.28.2.45l-.1,3.48c0,.28-.22.52-.5.56-.83.11-1.75.22-2.74.31-1.16.11-2.42.21-3.75.28-1.28.07-2.56.1-3.81.1Zm8.76-24.51c-.19-.02-.36-.14-.45-.31-.33-.62-.7-1.32-1.11-2.08-.36-.66-.71-1.26-1.06-1.8-.09-.14-.12-.32-.06-.49.05-.16.17-.29.33-.36l1.69-.7c.07-.03.15-.04.22-.04.19,0,.37.09.48.26.22.33.45.7.68,1.1.33.58.66,1.16.99,1.73.2.35.37.67.52.97.07.14.08.31.03.46-.05.15-.17.27-.31.34l-1.24.54c-.08.04-.16.09-.21.16-.11.13-.27.21-.45.21-.02,0-.04,0-.06,0Zm4.17-1.74c-.21,0-.41-.12-.51-.32-.3-.6-.66-1.25-1.06-1.94-.37-.64-.73-1.23-1.08-1.74-.1-.14-.12-.32-.07-.49.05-.17.17-.3.33-.37l1.64-.69c.07-.03.15-.04.22-.04.19,0,.38.09.48.26.22.34.46.72.7,1.14l1.02,1.73c.19.32.36.61.5.88.08.14.1.31.04.47s-.17.28-.32.35l-1.68.72c-.07.03-.15.05-.23.05Z"/>
              <path class="cls-1" d="m338.02,84.19c-1.96,0-3.56-.12-4.75-.36-1.21-.24-2.1-.6-2.72-1.09-.62-.49-1.02-1.1-1.23-1.87-.21-.76-.31-1.66-.31-2.67v-8.76c0-.17-.08-.34-.21-.45-.1-.08-.23-.13-.37-.13-.04,0-.08,0-.12.01l-.59.12c-1.3.27-2.46.51-3.5.73-.74.16-1.38.29-1.92.41-.04,0-.08.01-.12.01-.11,0-.22-.03-.32-.1-.13-.09-.22-.22-.25-.37l-.64-3.36c-.03-.16,0-.32.1-.44.09-.13.23-.21.39-.24.58-.08,1.27-.19,2.05-.32,1.07-.17,2.29-.38,3.64-.61.45-.08.91-.16,1.38-.24.28-.05.48-.29.48-.57v-4.46c0-.39-.01-.83-.03-1.32-.02-.49-.05-.97-.09-1.46-.02-.2-.03-.39-.05-.57-.02-.16.03-.33.14-.45s.27-.19.43-.19h3.82c.17,0,.32.07.43.2.11.12.16.29.14.46-.05.38-.09.8-.12,1.27-.06.76-.09,1.46-.09,2.06v3.36c0,.17.08.33.21.45.1.08.23.13.37.13.04,0,.07,0,.11,0l1.41-.27c1.42-.26,2.76-.53,4.02-.78,1.26-.25,2.35-.48,3.28-.68l2.05-.43,1.37-.38c.15-.04.27-.12.35-.24.09-.13.23-.23.39-.25.03,0,.06,0,.09,0,.13,0,.25.04.36.12l2.83,2.21c.23.18.29.5.14.76l-.27.44c-.22.36-.41.69-.57.99-.39.71-.87,1.53-1.42,2.43-.55.9-1.16,1.83-1.8,2.78-.65.95-1.32,1.86-1.99,2.7-.56.7-1.11,1.33-1.64,1.87-.11.11-.26.17-.41.17-.1,0-.2-.03-.29-.08l-2.76-1.63c-.16-.09-.26-.25-.28-.43s.04-.36.18-.48c.56-.54,1.13-1.14,1.67-1.79.73-.87,1.39-1.72,1.96-2.55.26-.37.48-.72.69-1.04.12-.2.12-.45-.02-.64-.11-.16-.29-.25-.47-.25-.04,0-.08,0-.11.01l-.38.08c-.86.18-1.83.39-2.98.62-1.15.23-2.4.48-3.76.75l-1.82.36c-.27.05-.47.29-.47.57v8.7c0,.69.1,1.26.31,1.7.21.44.63.75,1.27.94.64.19,1.56.28,2.83.28s2.46-.05,3.69-.14c1.24-.09,2.48-.23,3.71-.42.99-.15,1.94-.3,2.86-.46.03,0,.07,0,.1,0,.14,0,.27.05.38.14.13.11.21.28.2.45l-.1,3.48c0,.28-.22.52-.5.56-.83.11-1.75.22-2.74.31-1.16.11-2.42.21-3.75.28-1.28.07-2.56.1-3.81.1Zm8.76-24.51c-.19-.02-.36-.14-.45-.31-.33-.62-.7-1.32-1.11-2.08-.36-.66-.71-1.26-1.06-1.8-.09-.14-.12-.32-.06-.49.05-.16.17-.29.33-.36l1.69-.7c.07-.03.15-.04.22-.04.19,0,.37.09.48.26.22.33.45.7.68,1.1.33.58.66,1.16.99,1.73.2.35.37.67.52.97.07.14.08.31.03.46-.05.15-.17.27-.31.34l-1.24.54c-.08.04-.16.09-.21.16-.11.13-.27.21-.45.21-.02,0-.04,0-.06,0Zm4.17-1.74c-.21,0-.41-.12-.51-.32-.3-.6-.66-1.25-1.06-1.94-.37-.64-.73-1.23-1.08-1.74-.1-.14-.12-.32-.07-.49.05-.17.17-.3.33-.37l1.64-.69c.07-.03.15-.04.22-.04.19,0,.38.09.48.26.22.34.46.72.7,1.14l1.02,1.73c.19.32.36.61.5.88.08.14.1.31.04.47s-.17.28-.32.35l-1.68.72c-.07.03-.15.05-.23.05Z"/>
            </g>
            <g>
              <path class="cls-1" d="m381.57,82.73c-.16,0-.3-.06-.41-.17-.11-.11-.17-.26-.17-.42v-.69c.02-.16-.04-.31-.15-.42-.11-.11-.26-.17-.41-.17h-15.52c-.15,0-.3.06-.41.17-.11.11-.17.26-.17.42v.71c0,.15-.06.3-.16.41-.11.11-.26.17-.41.17h-3.61c-.16,0-.31-.06-.41-.17-.11-.11-.17-.26-.16-.42l.04-1.28.03-1.56c.01-.53.02-1.01.02-1.42v-18.64c0-.38,0-.73-.02-1.06,0-.16.05-.32.16-.43.11-.11.26-.17.41-.17h.02c.48.01.94.03,1.39.03.64.01,1.19.02,1.65.02h19.07c.44,0,.96,0,1.58-.02.41,0,.82-.02,1.24-.03h.02c.15,0,.3.06.41.17s.17.27.17.43c-.01.34-.02.7-.03,1.06-.01.59-.02,1.15-.02,1.68v16.99c0,.35,0,.78.02,1.3.01.52.02,1.04.02,1.56s0,.97.02,1.35c0,.16-.05.31-.16.43-.11.11-.26.18-.42.18h-3.6Zm-16.69-20.7c-.32,0-.58.26-.58.58v13.23c0,.32.26.58.58.58h15.59c.32,0,.58-.26.58-.58v-13.23c0-.32-.26-.58-.58-.58h-15.59Z"/>
              <path class="cls-1" d="m381.57,82.73c-.16,0-.3-.06-.41-.17-.11-.11-.17-.26-.17-.42v-.69c.02-.16-.04-.31-.15-.42-.11-.11-.26-.17-.41-.17h-15.52c-.15,0-.3.06-.41.17-.11.11-.17.26-.17.42v.71c0,.15-.06.3-.16.41-.11.11-.26.17-.41.17h-3.61c-.16,0-.31-.06-.41-.17-.11-.11-.17-.26-.16-.42l.04-1.28.03-1.56c.01-.53.02-1.01.02-1.42v-18.64c0-.38,0-.73-.02-1.06,0-.16.05-.32.16-.43.11-.11.26-.17.41-.17h.02c.48.01.94.03,1.39.03.64.01,1.19.02,1.65.02h19.07c.44,0,.96,0,1.58-.02.41,0,.82-.02,1.24-.03h.02c.15,0,.3.06.41.17s.17.27.17.43c-.01.34-.02.7-.03,1.06-.01.59-.02,1.15-.02,1.68v16.99c0,.35,0,.78.02,1.3.01.52.02,1.04.02,1.56s0,.97.02,1.35c0,.16-.05.31-.16.43-.11.11-.26.18-.42.18h-3.6Zm-16.69-20.7c-.32,0-.58.26-.58.58v13.23c0,.32.26.58.58.58h15.59c.32,0,.58-.26.58-.58v-13.23c0-.32-.26-.58-.58-.58h-15.59Z"/>
            </g>
            <g>
              <path class="cls-1" d="m393.63,85.33c-.32,0-.58-.26-.58-.58v-2.59c0-.32.26-.58.58-.58h6.23c.32,0,.58-.26.58-.58v-17.26c0-.32.26-.58.58-.58h2.97c.32,0,.58.26.58.58v21c0,.32-.26.58-.58.58h-10.36Z"/>
              <path class="cls-1" d="m393.63,85.33c-.32,0-.58-.26-.58-.58v-2.59c0-.32.26-.58.58-.58h6.23c.32,0,.58-.26.58-.58v-17.26c0-.32.26-.58.58-.58h2.97c.32,0,.58.26.58.58v21c0,.32-.26.58-.58.58h-10.36Z"/>
            </g>
            <g>
              <path class="cls-1" d="m416.27,84.26c-.32,0-.58-.26-.58-.58v-2.9c0-.32.26-.58.58-.58h12.3c.32,0,.58-.26.58-.58v-5.85c0-.32-.26-.58-.58-.58h-8.31c-.32,0-.58-.26-.58-.58v-2.87c0-.32.26-.58.58-.58h8.31c.32,0,.58-.26.58-.58v-4.98c0-.32-.26-.58-.58-.58h-6.28c-.21,0-.41.12-.51.31-.15.29-.31.57-.46.86-.71,1.28-1.46,2.43-2.23,3.42-.09.12-.23.2-.39.22-.02,0-.05,0-.07,0-.13,0-.25-.04-.36-.12-.19-.15-.41-.31-.65-.48-.45-.31-.92-.62-1.4-.92-.22-.14-.43-.26-.62-.38-.15-.09-.25-.24-.28-.4-.03-.17.02-.34.13-.47.74-.86,1.44-1.85,2.07-2.94.77-1.33,1.47-2.79,2.08-4.33.54-1.37,1.01-2.77,1.4-4.15.07-.25.3-.42.56-.42.04,0,.08,0,.13.01l3.17.71c.16.04.29.13.37.27.08.14.1.3.06.45-.34,1.17-.73,2.36-1.17,3.52-.07.18-.04.38.06.53.11.16.29.25.48.25h3.93c.32,0,.58-.26.58-.58v-5.16c0-.32.26-.58.58-.58h3.21c.32,0,.58.26.58.58v5.16c0,.32.26.58.58.58h10.6c.32,0,.58.26.58.58v2.9c0,.32-.26.58-.58.58h-10.6c-.32,0-.58.26-.58.58v4.98c0,.32.26.58.58.58h9.25c.32,0,.58.26.58.58v2.87c0,.32-.26.58-.58.58h-9.25c-.32,0-.58.26-.58.58v5.85c0,.32.26.58.58.58h12.37c.32,0,.58.26.58.58v2.9c0,.32-.26.58-.58.58h-30.19Z"/>
              <path class="cls-1" d="m416.27,84.26c-.32,0-.58-.26-.58-.58v-2.9c0-.32.26-.58.58-.58h12.3c.32,0,.58-.26.58-.58v-5.85c0-.32-.26-.58-.58-.58h-8.31c-.32,0-.58-.26-.58-.58v-2.87c0-.32.26-.58.58-.58h8.31c.32,0,.58-.26.58-.58v-4.98c0-.32-.26-.58-.58-.58h-6.28c-.21,0-.41.12-.51.31-.15.29-.31.57-.46.86-.71,1.28-1.46,2.43-2.23,3.42-.09.12-.23.2-.39.22-.02,0-.05,0-.07,0-.13,0-.25-.04-.36-.12-.19-.15-.41-.31-.65-.48-.45-.31-.92-.62-1.4-.92-.22-.14-.43-.26-.62-.38-.15-.09-.25-.24-.28-.4-.03-.17.02-.34.13-.47.74-.86,1.44-1.85,2.07-2.94.77-1.33,1.47-2.79,2.08-4.33.54-1.37,1.01-2.77,1.4-4.15.07-.25.3-.42.56-.42.04,0,.08,0,.13.01l3.17.71c.16.04.29.13.37.27.08.14.1.3.06.45-.34,1.17-.73,2.36-1.17,3.52-.07.18-.04.38.06.53.11.16.29.25.48.25h3.93c.32,0,.58-.26.58-.58v-5.16c0-.32.26-.58.58-.58h3.21c.32,0,.58.26.58.58v5.16c0,.32.26.58.58.58h10.6c.32,0,.58.26.58.58v2.9c0,.32-.26.58-.58.58h-10.6c-.32,0-.58.26-.58.58v4.98c0,.32.26.58.58.58h9.25c.32,0,.58.26.58.58v2.87c0,.32-.26.58-.58.58h-9.25c-.32,0-.58.26-.58.58v5.85c0,.32.26.58.58.58h12.37c.32,0,.58.26.58.58v2.9c0,.32-.26.58-.58.58h-30.19Z"/>
            </g>
            <g>
              <path class="cls-1" d="m464.51,85.23c-.32,0-.58-.26-.58-.58v-12.89c0-.32.26-.58.58-.58h5.95c.32,0,.58-.26.58-.58v-3.28c0-.32-.26-.58-.58-.58h-8.1c-.32,0-.58-.26-.58-.58v-2.8c0-.32.26-.58.58-.58h8.1c.32,0,.58-.26.58-.58v-2.84c0-.17-.07-.33-.2-.44-.11-.09-.24-.14-.38-.14-1.95.26-3.83.48-5.66.65-.02,0-.04,0-.05,0-.27,0-.5-.19-.56-.45-.08-.37-.21-.79-.38-1.29-.13-.38-.26-.73-.39-1.04-.07-.17-.06-.36.04-.51s.25-.26.43-.28c1.22-.14,2.46-.3,3.7-.47,1.51-.21,2.99-.45,4.42-.73,1.42-.27,2.77-.58,4.02-.92,1.09-.29,2.09-.61,2.98-.95.07-.03.14-.04.21-.04.15,0,.3.06.41.17l2.3,2.35c.14.14.19.34.15.54-.04.19-.18.35-.37.41-1.45.51-3.06.97-4.77,1.37-.49.11-.99.22-1.48.32-.27.06-.46.29-.46.57v3.72c0,.32.26.58.58.58h7.72c.32,0,.58.26.58.58v2.8c0,.32-.26.58-.58.58h-7.72c-.32,0-.58.26-.58.58v3.28c0,.32.26.58.58.58h5.99c.32,0,.58.26.58.58v12.71c0,.32-.26.58-.58.58h-2.83c-.32,0-.58-.26-.58-.58,0-.41-.26-.67-.58-.67h-9.25c-.32,0-.58.26-.58.58v.27c0,.32-.26.58-.58.58h-2.66Zm3.81-10.26c-.32,0-.58.26-.58.58v3.91c0,.32.26.58.58.58h9.25c.32,0,.58-.26.58-.58v-3.91c0-.32-.26-.58-.58-.58h-9.25Zm-12.89,9.6c-.13,0-.26-.04-.36-.13l-2.57-2.06c-.24-.19-.29-.53-.11-.78.54-.79,1.13-1.68,1.75-2.66.77-1.21,1.54-2.5,2.31-3.81.66-1.14,1.29-2.27,1.87-3.38.08-.16.23-.27.41-.3.03,0,.07,0,.1,0,.14,0,.28.05.39.15l2.17,1.97c.19.17.24.46.13.69-.54,1.08-1.12,2.19-1.73,3.32-.68,1.27-1.38,2.52-2.08,3.75-.59,1.03-1.19,2.03-1.79,2.99-.09.14-.23.24-.39.26-.03,0-.07,0-.1,0Zm2.46-15.32c-.11,0-.23-.03-.32-.1-.38-.26-.83-.54-1.35-.84-.75-.44-1.54-.89-2.38-1.35-.6-.33-1.16-.63-1.69-.91-.15-.08-.26-.22-.3-.38-.04-.16,0-.34.1-.47l1.58-2.16c.11-.15.29-.24.47-.24.08,0,.16.02.24.05.54.24,1.13.52,1.79.85.83.42,1.64.83,2.43,1.23.53.27,1,.53,1.39.77.14.08.23.21.27.37.03.15,0,.32-.08.45l-1.66,2.48c-.09.13-.22.22-.37.25-.04,0-.07.01-.11.01Zm1.55-9.52c-.11,0-.23-.03-.33-.1-.38-.26-.83-.55-1.35-.85-.74-.44-1.52-.9-2.32-1.37-.58-.34-1.12-.65-1.63-.94-.15-.08-.25-.23-.28-.39s0-.34.11-.47l1.65-2.11c.11-.14.28-.22.46-.22.09,0,.18.02.26.06.54.27,1.12.57,1.76.9.81.41,1.6.83,2.38,1.25.52.28.97.54,1.36.77.14.08.23.22.27.38.03.16,0,.32-.1.45l-1.76,2.4c-.11.15-.29.24-.47.24Z"/>
              <path class="cls-1" d="m464.51,85.23c-.32,0-.58-.26-.58-.58v-12.89c0-.32.26-.58.58-.58h5.95c.32,0,.58-.26.58-.58v-3.28c0-.32-.26-.58-.58-.58h-8.1c-.32,0-.58-.26-.58-.58v-2.8c0-.32.26-.58.58-.58h8.1c.32,0,.58-.26.58-.58v-2.84c0-.17-.07-.33-.2-.44-.11-.09-.24-.14-.38-.14-1.95.26-3.83.48-5.66.65-.02,0-.04,0-.05,0-.27,0-.5-.19-.56-.45-.08-.37-.21-.79-.38-1.29-.13-.38-.26-.73-.39-1.04-.07-.17-.06-.36.04-.51s.25-.26.43-.28c1.22-.14,2.46-.3,3.7-.47,1.51-.21,2.99-.45,4.42-.73,1.42-.27,2.77-.58,4.02-.92,1.09-.29,2.09-.61,2.98-.95.07-.03.14-.04.21-.04.15,0,.3.06.41.17l2.3,2.35c.14.14.19.34.15.54-.04.19-.18.35-.37.41-1.45.51-3.06.97-4.77,1.37-.49.11-.99.22-1.48.32-.27.06-.46.29-.46.57v3.72c0,.32.26.58.58.58h7.72c.32,0,.58.26.58.58v2.8c0,.32-.26.58-.58.58h-7.72c-.32,0-.58.26-.58.58v3.28c0,.32.26.58.58.58h5.99c.32,0,.58.26.58.58v12.71c0,.32-.26.58-.58.58h-2.83c-.32,0-.58-.26-.58-.58,0-.41-.26-.67-.58-.67h-9.25c-.32,0-.58.26-.58.58v.27c0,.32-.26.58-.58.58h-2.66Zm3.81-10.26c-.32,0-.58.26-.58.58v3.91c0,.32.26.58.58.58h9.25c.32,0,.58-.26.58-.58v-3.91c0-.32-.26-.58-.58-.58h-9.25Zm-12.89,9.6c-.13,0-.26-.04-.36-.13l-2.57-2.06c-.24-.19-.29-.53-.11-.78.54-.79,1.13-1.68,1.75-2.66.77-1.21,1.54-2.5,2.31-3.81.66-1.14,1.29-2.27,1.87-3.38.08-.16.23-.27.41-.3.03,0,.07,0,.1,0,.14,0,.28.05.39.15l2.17,1.97c.19.17.24.46.13.69-.54,1.08-1.12,2.19-1.73,3.32-.68,1.27-1.38,2.52-2.08,3.75-.59,1.03-1.19,2.03-1.79,2.99-.09.14-.23.24-.39.26-.03,0-.07,0-.1,0Zm2.46-15.32c-.11,0-.23-.03-.32-.1-.38-.26-.83-.54-1.35-.84-.75-.44-1.54-.89-2.38-1.35-.6-.33-1.16-.63-1.69-.91-.15-.08-.26-.22-.3-.38-.04-.16,0-.34.1-.47l1.58-2.16c.11-.15.29-.24.47-.24.08,0,.16.02.24.05.54.24,1.13.52,1.79.85.83.42,1.64.83,2.43,1.23.53.27,1,.53,1.39.77.14.08.23.21.27.37.03.15,0,.32-.08.45l-1.66,2.48c-.09.13-.22.22-.37.25-.04,0-.07.01-.11.01Zm1.55-9.52c-.11,0-.23-.03-.33-.1-.38-.26-.83-.55-1.35-.85-.74-.44-1.52-.9-2.32-1.37-.58-.34-1.12-.65-1.63-.94-.15-.08-.25-.23-.28-.39s0-.34.11-.47l1.65-2.11c.11-.14.28-.22.46-.22.09,0,.18.02.26.06.54.27,1.12.57,1.76.9.81.41,1.6.83,2.38,1.25.52.28.97.54,1.36.77.14.08.23.22.27.38.03.16,0,.32-.1.45l-1.76,2.4c-.11.15-.29.24-.47.24Z"/>
            </g>
          </g>
        </g>
      </g>
      <polygon class="cls-3" points="410 0 385 43.13 435 43.13 410 0"/>
    </g>
  </g>
</svg>