<?xml version="1.0" encoding="UTF-8"?>
<svg id="Layer_2" data-name="Layer 2" xmlns="http://www.w3.org/2000/svg" xmlns:xlink="http://www.w3.org/1999/xlink" viewBox="0 0 660 167.16">
  <defs>
    <style>
      .cls-1 {
        fill: url(#_名称未設定グラデーション_35);
        filter: url(#drop-shadow-1);
        stroke-miterlimit: 10;
        stroke-width: 3px;
      }

      .cls-1, .cls-2 {
        stroke: #fff;
      }

      .cls-2 {
        fill: none;
        stroke-linecap: round;
        stroke-linejoin: round;
        stroke-width: 2.32px;
      }

      .cls-3 {
        fill: #fffa5a;
      }

      .cls-3, .cls-4, .cls-5, .cls-6 {
        stroke-width: 0px;
      }

      .cls-4 {
        fill: #fff;
      }

      .cls-5 {
        fill: #f2739d;
      }

      .cls-6 {
        fill: #66b1f9;
      }
    </style>
    <linearGradient id="_名称未設定グラデーション_35" data-name="名称未設定グラデーション 35" x1="330" y1="161.16" x2="330" y2="11.16" gradientUnits="userSpaceOnUse">
      <stop offset=".5" stop-color="#66b1f9"/>
      <stop offset=".5" stop-color="#94c8fb"/>
    </linearGradient>
    <filter id="drop-shadow-1" filterUnits="userSpaceOnUse">
      <feOffset dx="0" dy="6"/>
      <feGaussianBlur result="blur" stdDeviation="0"/>
      <feFlood flood-color="#000" flood-opacity=".2"/>
      <feComposite in2="blur" operator="in"/>
      <feComposite in="SourceGraphic"/>
    </filter>
  </defs>
  <g id="design">
    <g>
      <rect class="cls-1" y="11.16" width="660" height="150" rx="10" ry="10"/>
      <g>
        <g>
          <path class="cls-3" d="m256.92,99.55l4.22-5.63c1.24.43,2.53.97,3.87,1.63,1.34.66,2.61,1.35,3.81,2.08,1.19.73,2.18,1.43,2.94,2.11l-4.48,6.21c-.73-.68-1.66-1.42-2.82-2.21-1.15-.79-2.4-1.55-3.74-2.27-1.34-.72-2.61-1.36-3.81-1.92Zm.32,31.68c.85-1.75,1.77-3.79,2.75-6.11.98-2.33,1.96-4.8,2.94-7.42s1.9-5.22,2.75-7.78l6.14,3.9c-.73,2.39-1.51,4.81-2.37,7.26-.85,2.45-1.72,4.86-2.59,7.23-.88,2.37-1.76,4.62-2.66,6.75l-6.98-3.84Zm2.69-49.02l4.29-5.57c1.24.51,2.53,1.12,3.87,1.82,1.34.7,2.62,1.42,3.84,2.14,1.22.73,2.21,1.45,2.98,2.18l-4.61,6.14c-.68-.73-1.61-1.48-2.78-2.27-1.17-.79-2.42-1.58-3.74-2.37-1.32-.79-2.6-1.48-3.84-2.08Zm14.14,3.52h6.66v17.92c0,2.39-.07,5-.22,7.84-.15,2.84-.44,5.74-.86,8.7-.43,2.97-1.06,5.84-1.89,8.61s-1.93,5.27-3.3,7.49c-.38-.38-.94-.83-1.66-1.34-.73-.51-1.45-1-2.18-1.47-.73-.47-1.37-.81-1.92-1.02,1.66-2.77,2.87-5.84,3.62-9.22.75-3.37,1.23-6.75,1.44-10.14.21-3.39.32-6.54.32-9.44v-17.92Zm4.1,0h38.14v6.72h-38.14v-6.72Zm4.42,19.52h4.99v21.44h-4.99v-21.44Zm.32-9.22h13.63v5.63h-13.63v-5.63Zm2.62,9.22h11.58v18.05h-11.58v-5.63h6.53v-6.85h-6.53v-5.57Zm24-8.64l6.66,1.28c-1.96,8.53-4.83,16.01-8.61,22.43-3.78,6.42-8.54,11.64-14.3,15.65-.3-.43-.77-.95-1.41-1.57-.64-.62-1.28-1.24-1.92-1.86-.64-.62-1.22-1.12-1.73-1.5,5.67-3.46,10.24-8.12,13.7-13.98,3.46-5.87,5.99-12.68,7.62-20.45Zm-12.42-19.58h7.04c.04,5.21.19,10.26.45,15.17.26,4.91.61,9.47,1.06,13.7.45,4.22.95,7.92,1.5,11.07.55,3.16,1.15,5.63,1.79,7.42.64,1.79,1.32,2.71,2.05,2.75.47.04.85-.73,1.15-2.3.3-1.58.53-3.86.7-6.85.38.51.94,1.04,1.66,1.57.73.53,1.44,1.02,2.14,1.47s1.25.76,1.63.93c-.51,3.93-1.18,6.91-2.02,8.96-.83,2.05-1.72,3.44-2.66,4.19-.94.75-1.86,1.12-2.75,1.12-1.96-.04-3.68-1-5.15-2.88-1.47-1.88-2.72-4.56-3.74-8.06-1.02-3.5-1.87-7.68-2.53-12.54-.66-4.86-1.17-10.3-1.54-16.32-.36-6.02-.63-12.48-.8-19.39Zm7.36,3.26l4.1-3.84c1.45.77,2.98,1.73,4.58,2.88,1.6,1.15,2.83,2.22,3.68,3.2l-4.29,4.22c-.81-.98-1.98-2.09-3.52-3.33-1.54-1.24-3.05-2.28-4.54-3.14Z"/>
          <path class="cls-3" d="m335.26,88.16l6.21,1.6c-1.41,3.33-3.3,6.41-5.66,9.25-2.37,2.84-4.88,5.2-7.52,7.07-.3-.43-.75-.92-1.34-1.47-.6-.55-1.22-1.12-1.86-1.7-.64-.58-1.2-1.01-1.66-1.31,2.52-1.58,4.83-3.54,6.94-5.89,2.11-2.35,3.74-4.86,4.9-7.55Zm9.54,4.54h1.22l1.09-.32,4.35,1.98c-1.37,4.01-3.26,7.61-5.7,10.78-2.43,3.18-5.23,5.93-8.38,8.26-3.16,2.33-6.51,4.21-10.05,5.66-.38-.81-.96-1.77-1.73-2.88-.77-1.11-1.49-1.98-2.18-2.62,3.16-1.11,6.18-2.65,9.06-4.61,2.88-1.96,5.39-4.23,7.52-6.82,2.13-2.58,3.73-5.39,4.8-8.42v-1.02Zm-19.71-11.07h27.97v10.37h-6.4v-4.42h-15.42v4.42h-6.14v-10.37Zm3.58,33.28h6.46v20.29h-6.46v-20.29Zm.83-12.03l4.03-4.61c1.58,1.02,3.31,2.16,5.18,3.39,1.88,1.24,3.75,2.5,5.63,3.78,1.88,1.28,3.65,2.52,5.31,3.71,1.66,1.19,3.05,2.26,4.16,3.2l-4.35,5.44c-1.07-1.02-2.4-2.15-4-3.39-1.6-1.24-3.32-2.54-5.15-3.9-1.83-1.36-3.69-2.71-5.57-4.03-1.88-1.32-3.63-2.52-5.25-3.58Zm2.62,12.03h17.28v17.66h-17.28v-5.89h10.69v-5.89h-10.69v-5.89Zm1.22-22.21h12.67v5.12h-12.67v-5.12Zm2.11-16.26h7.1v10.05h-7.1v-10.05Zm25.02,47.36l6.14,3.97c-1.11,1.07-2.43,2.14-3.97,3.23-1.54,1.09-3.14,2.09-4.8,3.01-1.66.92-3.29,1.67-4.86,2.27-.6-.68-1.37-1.49-2.3-2.43-.94-.94-1.81-1.75-2.62-2.43,1.54-.56,3.09-1.26,4.67-2.11,1.58-.85,3.05-1.77,4.42-2.75,1.36-.98,2.47-1.9,3.33-2.75Zm-7.23-44.99h30.08v6.53h-30.08v-6.53Zm1.92,10.88h26.82v33.92h-26.82v-33.92Zm6.91,5.7v3.9h12.67v-3.9h-12.67Zm0,9.22v3.97h12.67v-3.97h-12.67Zm0,9.28v4.03h12.67v-4.03h-12.67Zm2.43-31.62l8.38,1.02c-.64,1.92-1.31,3.83-2.02,5.73-.7,1.9-1.35,3.53-1.95,4.9l-6.34-1.22c.26-1.02.5-2.14.74-3.36.23-1.22.46-2.44.67-3.68.21-1.24.38-2.37.51-3.39Zm4.93,45.44l5.57-3.58c1.15.81,2.39,1.72,3.71,2.72,1.32,1,2.58,2,3.78,2.98,1.19.98,2.18,1.88,2.94,2.69l-5.95,3.9c-.64-.81-1.54-1.73-2.69-2.75-1.15-1.02-2.38-2.07-3.68-3.14-1.3-1.07-2.53-2.01-3.68-2.82Z"/>
          <path class="cls-3" d="m391.45,86.88h24.19v6.08h-24.19v-6.08Zm2.88,26.62h6.46v22.02h-6.46v-22.02Zm.13-17.6h19.33v5.82h-19.33v-5.82Zm0,8.77h19.33v5.76h-19.33v-5.76Zm.26-26.37h18.94v5.76h-18.94v-5.76Zm3.07,35.2h16.13v19.52h-16.13v-6.08h9.54v-7.36h-9.54v-6.08Zm34.75-29.7c-1.07,1.92-2.43,3.93-4.1,6.02-1.66,2.09-3.51,4.09-5.54,5.98-2.03,1.9-4.15,3.55-6.37,4.96-.43-.98-1-2.1-1.73-3.36-.73-1.26-1.43-2.31-2.11-3.17,2.26-1.28,4.43-2.91,6.5-4.9,2.07-1.98,3.94-4.11,5.6-6.37,1.66-2.26,2.99-4.39,3.97-6.4h7.1c1.37,2.26,2.95,4.48,4.77,6.66,1.81,2.18,3.74,4.13,5.79,5.86,2.05,1.73,4.12,3.13,6.21,4.19-.73.9-1.46,1.99-2.21,3.3-.75,1.3-1.38,2.51-1.89,3.62-2.05-1.24-4.08-2.77-6.08-4.61-2.01-1.83-3.86-3.78-5.57-5.82-1.71-2.05-3.16-4.03-4.35-5.95Zm10.69,28.93l6.91,3.01c-3.29,4.99-7.52,9.2-12.7,12.61-5.18,3.41-10.87,6.14-17.06,8.19-.51-1.02-1.22-2.16-2.11-3.39-.9-1.24-1.79-2.3-2.69-3.2,3.84-.98,7.53-2.29,11.07-3.94,3.54-1.64,6.73-3.56,9.57-5.76,2.84-2.2,5.17-4.7,7.01-7.52Zm-10.82-19.33l6.66,2.62c-1.32,1.75-2.84,3.42-4.54,5.02-1.71,1.6-3.51,3.07-5.41,4.42-1.9,1.34-3.81,2.53-5.73,3.55-.56-.68-1.29-1.47-2.21-2.37-.92-.9-1.8-1.64-2.66-2.24,1.66-.85,3.38-1.87,5.15-3.04,1.77-1.17,3.42-2.45,4.96-3.84,1.54-1.39,2.79-2.76,3.78-4.13Zm5.82,9.15l6.72,2.88c-1.75,2.22-3.78,4.31-6.08,6.27-2.3,1.96-4.76,3.76-7.36,5.38-2.6,1.62-5.25,3.05-7.94,4.29-.55-.81-1.28-1.73-2.18-2.75-.9-1.02-1.77-1.88-2.62-2.56,2.43-.94,4.87-2.11,7.33-3.52,2.45-1.41,4.75-2.95,6.88-4.64,2.13-1.69,3.88-3.47,5.25-5.34Z"/>
          <path class="cls-3" d="m460.76,78.49h6.66v56.19h-6.66v-56.19Zm4.16,45.06h24.38v6.59h-24.38v-6.59Zm11.97-25.15l4.1,1.79c-.73,2.35-1.65,4.77-2.78,7.26-1.13,2.5-2.38,4.83-3.74,7.01-1.37,2.18-2.82,3.99-4.35,5.44-.3-.94-.74-2.02-1.31-3.23-.58-1.22-1.12-2.27-1.63-3.17,1.32-1.15,2.6-2.56,3.84-4.22,1.24-1.66,2.38-3.45,3.42-5.34,1.04-1.9,1.87-3.74,2.46-5.54Zm-8.26-3.58h21.7v6.4h-21.7v-6.4Zm.13-12.35l4.61-1.54c.68,1.75,1.25,3.64,1.7,5.66.45,2.03.71,3.79.8,5.28l-4.99,1.6c-.04-1.49-.27-3.27-.67-5.34-.41-2.07-.89-3.96-1.44-5.66Zm7.55-5.5h6.34v45.38h-6.34v-45.38Zm6.14,25.09c.38.34.97.85,1.76,1.54.79.68,1.62,1.43,2.5,2.24.87.81,1.68,1.57,2.43,2.27.75.7,1.29,1.21,1.63,1.5l-4.1,5.18c-.38-.64-.91-1.42-1.57-2.34-.66-.92-1.37-1.86-2.11-2.82-.75-.96-1.46-1.87-2.14-2.72-.68-.85-1.26-1.56-1.73-2.11l3.33-2.75Zm3.14-21.12l5.95,1.41c-.81,1.96-1.61,3.97-2.4,6.02-.79,2.05-1.55,3.78-2.27,5.18l-4.35-1.41c.38-1.07.77-2.25,1.15-3.55.38-1.3.75-2.62,1.09-3.97.34-1.34.62-2.57.83-3.68Zm6.91.38l8.96,2.56c-.04.55-.6.92-1.66,1.09v18.82c0,2.39-.12,5-.35,7.84-.23,2.84-.67,5.74-1.31,8.7-.64,2.97-1.61,5.83-2.91,8.61-1.3,2.77-3.02,5.31-5.15,7.62-.3-.55-.77-1.18-1.41-1.89-.64-.7-1.32-1.37-2.05-1.98-.73-.62-1.41-1.08-2.05-1.38,2.43-2.64,4.2-5.55,5.31-8.7,1.11-3.16,1.82-6.37,2.14-9.63.32-3.26.48-6.35.48-9.25v-22.4Zm20.03-4.29l6.14,5.63c-2.13.94-4.45,1.81-6.94,2.62-2.5.81-5.04,1.53-7.62,2.14-2.58.62-5.11,1.16-7.58,1.63-.17-.81-.48-1.78-.93-2.91-.45-1.13-.91-2.1-1.38-2.91,2.22-.51,4.45-1.09,6.69-1.73,2.24-.64,4.37-1.35,6.4-2.14,2.03-.79,3.77-1.57,5.22-2.34Zm-16.58,20.42h23.04v7.1h-23.04v-7.1Zm10.11,3.58h7.23v35.26h-7.23v-35.26Z"/>
        </g>
        <g>
          <path class="cls-3" d="m139.54,73.29l104.71,15.72c.14.02.24.15.22.29-.02.14-.15.23-.28.22l-105.17-12.27c-2.62-.37-2.16-4.29.53-3.96h0Z"/>
          <path class="cls-3" d="m139.01,135.26l105.17-12.27c.14-.02.27.08.29.23.02.14-.08.26-.22.28l-104.71,15.72c-2.63.33-3.21-3.57-.53-3.96h0Z"/>
        </g>
      </g>
      <g>
        <rect class="cls-4" x="182.05" y="34.16" width="294.91" height="27.65" rx="13.82" ry="13.82"/>
        <g>
          <path class="cls-6" d="m205.91,56.15c-.1,0-.2-.05-.26-.14l-.84-1.34c-.05-.09-.06-.19-.02-.29.04-.09.13-.16.23-.17.95-.15,1.75-.39,2.38-.73.73-.39,1.26-.87,1.59-1.43.33-.56.5-1.14.5-1.73,0-.54-.14-1.01-.43-1.44-.26-.39-.65-.72-1.16-.97-.04-.02-.09-.03-.14-.03-.04,0-.07,0-.11.02-.08.03-.14.09-.17.17-.22.53-.47,1.04-.74,1.52-.5.9-1.05,1.7-1.63,2.37-.4.46-.81.88-1.2,1.22-.09.08-.12.2-.09.31.07.23.14.46.21.69.01.03.03.06.05.09.06.08.08.18.05.28-.03.09-.11.17-.2.2l-1.54.47s-.06.01-.09.01c-.13,0-.25-.08-.29-.21l-.04-.13c-.02-.08-.08-.15-.17-.19-.04-.02-.08-.03-.13-.03s-.09,0-.13.03l-.2.09c-.76.33-1.54.5-2.32.5-.44,0-.85-.09-1.22-.27-.38-.18-.68-.47-.9-.86-.22-.39-.34-.9-.34-1.5,0-.65.14-1.3.4-1.93.26-.63.64-1.23,1.11-1.8.47-.57,1.03-1.08,1.66-1.52.36-.26.75-.48,1.15-.68.1-.05.16-.14.17-.25.04-.6.09-1.19.13-1.78,0-.08-.02-.17-.08-.23-.06-.06-.14-.1-.22-.1h-.26c-.31,0-.67,0-1.06-.02-.4-.01-.78-.03-1.17-.05l-.71-.03c-.16,0-.29-.14-.29-.3l-.04-1.48c0-.09.03-.17.1-.23.06-.05.13-.08.21-.08.01,0,.58.06.58.06.39.04.81.08,1.25.11.44.03.85.05,1.21.05h.46c.15,0,.28-.12.3-.27l.08-.71.04-.55c0-.08,0-.16,0-.23,0-.08.03-.16.09-.21.06-.05.13-.09.21-.09,0,0,1.67.04,1.67.04.09,0,.18.05.24.12.06.07.07.17.05.26l-.13.51c-.05.26-.09.48-.13.71-.02.09.01.18.07.25.06.07.14.1.23.1,1.08-.05,2.06-.14,3.01-.26.81-.1,1.63-.25,2.45-.44.02,0,.05,0,.07,0,.07,0,.13.02.19.07.07.06.11.14.12.24v1.47c.01.15-.09.28-.24.3-.56.09-1.17.18-1.83.26-.26.03-.52.06-.79.09-.07,0-.14.04-.19.09-.06.06-.14.09-.22.09-.06,0-.12-.02-.18-.06-.04-.03-.11-.05-.19-.05-.02,0-.8.06-.8.06-.59.04-1.17.08-1.74.11-.15,0-.27.12-.29.27-.03.32-.06.65-.09.98,0,.09.03.19.1.25.06.05.13.08.2.08l.28-.05c.71-.13,1.42-.2,2.11-.2.16,0,.35-.12.37-.25l.08-.53c.01-.1.07-.18.16-.23.04-.02.09-.03.14-.03s.1.01.14.03l1.49.36c.08.02.16.08.2.15.04.08.05.17.02.25l-.12.32c-.06.15.02.33.18.39.13.05.25.1.37.16.89.41,1.6.98,2.1,1.69.51.71.77,1.56.77,2.51,0,.64-.1,1.27-.31,1.89-.21.61-.55,1.18-1.01,1.7-.46.52-1.09.97-1.85,1.35-.72.35-1.6.62-2.62.79-.02,0-.03,0-.05,0Zm-5.18-7.07c-.07,0-.14.02-.19.07-.1.08-.2.17-.3.26-.47.44-.85.91-1.11,1.39-.27.48-.4.94-.4,1.35,0,.29.07.51.2.67.13.15.35.23.64.23.44,0,.94-.14,1.51-.43l.13-.07c.11-.06.18-.19.15-.32-.07-.43-.14-.87-.2-1.33-.06-.51-.11-1.02-.14-1.54,0-.11-.08-.22-.18-.26-.04-.02-.08-.03-.12-.03Zm4.35-1.61c-.58.03-1.11.12-1.59.25l-.21.06c-.13.04-.22.16-.21.29,0,.78.04,1.51.11,2.18.01.12.1.22.21.26.02,0,.05,0,.07,0,.13,0,.2-.04.25-.1.32-.37.63-.78.92-1.2.27-.39.52-.84.75-1.32.04-.1.04-.21-.02-.3-.06-.08-.15-.13-.25-.13v-.3l-.02.3Z"/>
          <path class="cls-6" d="m224.92,56.18c-.75,0-1.44-.11-2.04-.34-.6-.22-1.09-.56-1.46-1-.36-.44-.55-1-.55-1.67,0-.59.16-1.14.47-1.61.31-.48.78-.86,1.38-1.13.6-.27,1.33-.41,2.18-.41.3,0,.6.01.89.04h0c.1,0,.17-.03.23-.08.06-.06.1-.15.09-.23v-.23c-.04-.62-.07-1.24-.09-1.86-.02-.48-.04-.93-.06-1.32,0-.08.03-.16.08-.22s.14-.09.22-.09h1.64c.08,0,.16.03.22.09.06.06.09.14.08.22-.01.28-.02.56,0,.84,0,.38.01.77.03,1.17l.09,2.1c0,.12.08.22.19.27.63.25,1.22.55,1.76.9.62.4,1.18.81,1.64,1.21.11.1.14.26.06.39l-.89,1.43c-.05.08-.13.13-.21.14-.01,0-.03,0-.04,0-.07,0-.15-.03-.2-.08l-.85-.75c-.27-.23-.56-.46-.88-.68-.05-.04-.11-.05-.17-.05-.04,0-.09,0-.13.03-.1.05-.16.14-.17.25-.04.43-.15.83-.33,1.19-.23.45-.6.82-1.1,1.08-.5.27-1.2.4-2.07.4Zm-.16-4.33c-.52,0-.94.1-1.26.31-.31.2-.47.47-.47.8s.14.61.41.82c.27.21.66.31,1.16.31.42,0,.74-.07.98-.21.24-.14.41-.34.51-.6.1-.26.15-.56.15-.88v-.14c0-.14-.11-.26-.25-.29-.39-.08-.81-.12-1.23-.12Zm-6.09.88s-.09-.01-.14-.03l-1.64-.84c-.08-.04-.14-.12-.16-.2s0-.18.06-.25c.33-.43.67-.9.99-1.41.4-.62.78-1.26,1.13-1.91.35-.66.67-1.29.96-1.9.08-.17.15-.33.22-.48.04-.09.03-.2-.03-.29-.06-.08-.15-.13-.25-.13h-.48c-.36,0-.74,0-1.11-.01-.29,0-.59-.02-.9-.04-.15,0-.27-.13-.29-.28l-.12-1.48c0-.09.03-.18.09-.24.06-.06.13-.09.21-.09.01,0,.02,0,.03,0,.27.03.57.05.89.06.44.02.83.03,1.17.03.48,0,.95-.02,1.44-.05.13,0,.24-.1.27-.23.05-.19.09-.39.14-.59.15-.67.25-1.32.29-1.94,0-.08.04-.16.11-.21.06-.05.12-.07.2-.07.01,0,1.88.19,1.88.19.09,0,.17.06.22.13.05.07.07.16.05.25l-.21.84c-.07.27-.14.55-.22.84-.03.1,0,.21.07.28.06.06.14.1.22.1.62-.12,1.16-.24,1.65-.38.03,0,.06-.01.08-.01.06,0,.13.02.18.06.08.05.12.14.12.23l.05,1.47c0,.14-.09.27-.23.31-.47.11-1.01.23-1.63.35-.36.07-.74.13-1.12.19-.11.02-.21.09-.24.2-.24.72-.54,1.48-.89,2.25-.44.98-.92,1.95-1.42,2.88-.46.84-.93,1.6-1.4,2.28-.06.08-.15.13-.25.13Zm12.63-5.88c-.07,0-.13-.02-.18-.06-.3-.23-.66-.48-1.06-.73-.52-.33-1.06-.64-1.61-.94-.42-.22-.79-.42-1.13-.57-.08-.04-.14-.11-.16-.19-.02-.08-.01-.17.04-.25l.83-1.29c.06-.09.15-.14.25-.14.04,0,.09,0,.13.03.27.12.56.27.88.43.42.21.84.43,1.28.66.43.23.83.46,1.2.68.25.15.47.29.65.42.14.09.17.28.08.42l-.94,1.39c-.05.07-.12.12-.2.13-.02,0-.03,0-.05,0Z"/>
          <path class="cls-6" d="m239.17,55.87s-.06,0-.1-.02l-1.93-.65c-.08-.03-.15-.09-.19-.18s-.03-.18.02-.26c.22-.4.45-.86.68-1.37.3-.67.6-1.39.88-2.14.29-.77.55-1.52.79-2.28.24-.75.45-1.45.62-2.09.1-.37.21-.75.3-1.13.02-.09,0-.19-.06-.26-.06-.07-.14-.11-.24-.11-.29,0-.56.01-.83.01-.44,0-.83,0-1.18-.03l-.74-.03c-.16,0-.29-.14-.29-.3l-.04-1.65c0-.09.03-.17.1-.23.06-.05.13-.08.21-.08,0,0,.02,0,.03,0,.32.03.62.06.88.08.34.02.7.04,1.08.04.45,0,.92-.01,1.4-.04.14,0,.26-.11.28-.25.06-.32.09-.57.12-.8.04-.34.06-.68.07-1.02,0-.18,0-.34,0-.48,0-.09.03-.17.09-.23.06-.05.13-.08.21-.08,0,0,2.1.16,2.1.16.09,0,.17.05.22.13s.07.16.05.25c-.04.16-.08.35-.12.54l-.22,1.07c-.02.1.01.2.08.27.06.06.14.09.22.09l.23-.03c.69-.11,1.38-.24,2.05-.39.02,0,.04,0,.06,0,.07,0,.14.02.19.07.07.06.11.14.11.24v1.65c0,.14-.1.27-.24.3-.68.15-1.41.28-2.17.38-.31.04-.61.08-.92.12-.13.02-.23.11-.26.23l-.05.23c-.15.67-.31,1.3-.46,1.91-.16.64-.35,1.34-.58,2.09-.23.75-.48,1.51-.74,2.28-.26.77-.52,1.51-.79,2.2-.23.59-.45,1.13-.67,1.62-.05.11-.16.18-.28.18Zm8.92-.18c-1.52,0-2.7-.25-3.51-.76-.8-.5-1.21-1.22-1.21-2.14,0-.41.04-.83.11-1.26.06-.32.11-.63.17-.91.03-.14.15-.25.3-.25.01,0,1.57.16,1.57.16.09,0,.17.05.22.13s.07.16.05.25c-.04.15-.07.3-.09.46-.05.27-.07.51-.07.72,0,.2.04.38.13.55.08.17.22.32.4.45.18.13.43.23.75.3.32.07.73.11,1.21.11.61,0,1.24-.03,1.87-.1.5-.05,1.02-.13,1.55-.22.02,0,.03,0,.05,0,.07,0,.14.03.2.08.07.06.11.15.1.24l-.07,1.69c0,.15-.12.27-.27.29-.44.05-.92.1-1.44.14-.62.05-1.3.08-2.02.08Zm3.11-7.58c-.36-.04-.74-.08-1.15-.11-.54-.04-1.09-.06-1.65-.06-.62,0-1.22.02-1.79.05-.46.02-.92.06-1.38.11-.01,0-.02,0-.03,0-.07,0-.15-.03-.2-.08-.06-.06-.1-.14-.1-.23v-1.53c0-.16.12-.29.28-.3.44-.04.91-.07,1.42-.1.62-.04,1.22-.05,1.8-.05.52,0,1.05.01,1.59.04.45.02.89.05,1.33.1.16.02.28.15.27.31l-.04,1.57c0,.09-.04.17-.1.22-.06.05-.13.07-.2.07-.01,0-.02,0-.04,0Z"/>
          <path class="cls-6" d="m265.45,55.84c-.1,0-.2-.05-.26-.14l-1-1.59c-.06-.09-.06-.2-.02-.29.04-.09.13-.16.23-.17.16-.02.32-.05.46-.07.27-.05.52-.1.77-.16.58-.14,1.13-.36,1.63-.63.5-.27.95-.62,1.32-1.02.38-.41.67-.89.88-1.43.21-.54.32-1.15.32-1.8,0-.71-.11-1.38-.33-1.97-.22-.59-.54-1.12-.97-1.56-.42-.44-.94-.78-1.55-1.02-.21-.08-.44-.15-.67-.21-.02,0-.04,0-.05,0-.09,0-.14.02-.18.05-.07.05-.12.12-.13.2-.08.47-.16.96-.25,1.46-.19,1.03-.46,2.1-.78,3.17-.35,1.22-.77,2.29-1.24,3.17-.47.88-.99,1.57-1.56,2.05-.56.48-1.18.72-1.85.72s-1.29-.23-1.85-.68c-.56-.45-1.02-1.09-1.35-1.89-.33-.8-.5-1.72-.5-2.73s.21-2.06.64-2.99c.42-.93,1.02-1.77,1.78-2.49.76-.72,1.65-1.29,2.66-1.7,1.01-.41,2.12-.62,3.29-.62s2.15.18,3.05.55c.9.36,1.68.87,2.32,1.51.64.64,1.14,1.4,1.47,2.26.34.86.51,1.8.51,2.79,0,1.27-.26,2.42-.78,3.42-.52,1-1.3,1.84-2.32,2.5-.97.62-2.2,1.07-3.63,1.31-.02,0-.03,0-.05,0Zm-2.32-11.99s-.06,0-.08.01c-.27.08-.53.17-.77.29-.74.34-1.37.79-1.88,1.34-.51.54-.9,1.14-1.16,1.77-.26.63-.39,1.24-.39,1.8,0,.6.07,1.12.22,1.52.15.4.33.71.54.91.21.2.44.3.68.3s.51-.13.76-.39c.25-.26.49-.65.74-1.19.24-.53.49-1.21.73-2.02.28-.87.52-1.82.71-2.81.08-.4.15-.79.21-1.18.02-.1-.02-.21-.1-.27-.06-.05-.13-.08-.2-.08Z"/>
          <path class="cls-6" d="m282.66,56.69l-.55-.02c-.15,0-.27-.12-.29-.27-.03-.24-.07-.5-.14-.79-.05-.21-.12-.41-.2-.6-.05-.11-.03-.23.05-.32.06-.07.14-.11.23-.11.03,0,.06,0,.08.01l.35.03c.3.02.56.03.79.03s.44-.02.62-.07.35-.15.49-.31c.22-.18.39-.45.48-.79.05-.19.09-.39.11-.62,0-.12-.05-.23-.15-.29-.05-.03-.1-.04-.15-.04-.06,0-.12.02-.17.05-.61.42-1.27.82-1.96,1.21l-.46.25c-.09.05-.15.14-.16.24,0,.1-.07.2-.16.24-.04.02-.09.03-.14.03-.05,0-.11-.01-.16-.04-.05-.03-.1-.04-.16-.04-.05,0-.09.01-.13.03-.31.15-.62.3-.94.44-.68.31-1.35.58-1.99.8-.03.01-.07.02-.1.02-.11,0-.22-.06-.27-.16-.11-.22-.25-.45-.4-.7-.12-.19-.23-.36-.35-.53-.06-.08-.07-.19-.04-.28.03-.09.11-.17.21-.19.58-.16,1.17-.35,1.78-.58.76-.29,1.51-.62,2.24-.98.73-.36,1.41-.75,2.02-1.16.35-.23.68-.47.97-.7.11-.09.15-.25.08-.38l-.07-.13c-.04-.07-.11-.13-.19-.15-.03,0-.05,0-.07,0-.09,0-.13.02-.17.04-.27.18-.57.35-.88.54-.71.41-1.46.79-2.23,1.15-.67.31-1.32.58-1.93.8-.03.01-.07.02-.11.02-.11,0-.21-.06-.27-.16-.1-.19-.23-.4-.37-.63-.1-.16-.21-.31-.31-.45-.06-.08-.08-.19-.05-.28.03-.1.11-.17.21-.2.35-.1.72-.21,1.1-.34.55-.19,1.11-.4,1.64-.63.54-.23,1.05-.47,1.52-.72.22-.12.43-.24.62-.35.08-.05.13-.14.14-.23s-.03-.19-.1-.25c-.07-.06-.17-.1-.26-.1-.04,0-.07,0-.1.02-.36.17-.74.32-1.12.47-.94.37-1.89.68-2.82.94-.03,0-.05.01-.08.01-.11,0-.21-.06-.26-.15-.06-.1-.12-.21-.2-.33-.13-.21-.27-.43-.42-.65l-.11-.15c-.06-.08-.07-.19-.04-.29.04-.09.12-.17.22-.19.82-.18,1.64-.4,2.44-.65.49-.15.96-.32,1.42-.51.13-.05.21-.2.18-.34-.03-.14-.15-.25-.3-.25h-.97c-.17,0-.3-.14-.3-.3v-1.25c0-.17.14-.3.3-.3h9.23c.17,0,.3.14.3.3v1.25c0,.17-.14.3-.3.3h-1.37c-.1,0-.19.05-.25.12-.06.08-.07.18-.04.27.15.46.31.91.49,1.34.04.09.11.15.2.18.03,0,.06,0,.08,0,.09,0,.14-.02.18-.05.39-.27.74-.53,1.09-.8.35-.27.66-.53.93-.78.06-.05.13-.08.2-.08s.14.02.2.07l1.2,1.05c.07.06.11.15.1.24,0,.09-.05.18-.12.23-.33.24-.67.48-1.03.73-.47.32-.94.62-1.4.89l-.33.19c-.07.04-.12.11-.14.19-.02.08,0,.17.04.24.33.5.7.98,1.1,1.41.68.74,1.5,1.36,2.41,1.82.09.04.15.12.16.22.02.09-.01.19-.08.26-.07.08-.15.16-.23.25-.2.22-.38.45-.56.69-.11.15-.21.29-.29.42-.06.09-.15.14-.25.14-.05,0-.1-.01-.15-.04-1.03-.6-1.93-1.36-2.68-2.27-.81-.98-1.49-2.13-2.02-3.42-.4-.96-.75-2-1.04-3.09-.03-.1-.1-.18-.2-.21-.04,0-.07,0-.09,0-.1,0-.15.02-.19.05-.26.2-.53.39-.82.58-.08.05-.13.13-.14.23s.03.18.09.25c.36.34.68.71.95,1.09.52.73.91,1.49,1.15,2.24.24.76.36,1.49.35,2.19-.01.7-.13,1.32-.35,1.86-.22.54-.53.96-.93,1.25-.34.29-.68.49-1.01.6-.33.11-.75.16-1.23.16-.11,0-.23,0-.35,0s-.25,0-.38,0Zm8.01-11.6c-.17,0-.3-.14-.3-.3v-1.51c0-.17-.14-.3-.3-.3h-10.52c-.17,0-.3.14-.3.3v1.51c0,.17-.14.3-.3.3h-1.54c-.17,0-.3-.14-.3-.3v-3.49c0-.17.14-.3.3-.3h5.97c.17,0,.3-.14.3-.3v-.83c0-.17.14-.3.3-.3h1.65c.17,0,.3.14.3.3v.83c0,.17.14.3.3.3h6.08c.17,0,.3.14.3.3v3.49c0,.17-.14.3-.3.3h-1.63Z"/>
          <path class="cls-6" d="m308.39,56.65c-.17,0-.3-.14-.3-.3v-8.21c0-.17-.14-.3-.3-.3h-3.24c-.17,0-.3-.14-.3-.3v-1.56c0-.17.14-.3.3-.3h3.24c.17,0,.3-.14.3-.3v-5.44c0-.17.14-.3.3-.3h1.6c.17,0,.3.14.3.3v5.44c0,.17.14.3.3.3h3.22c.17,0,.3.14.3.3v1.56c0,.17-.14.3-.3.3h-3.22c-.17,0-.3.14-.3.3v8.21c0,.17-.14.3-.3.3h-1.6Zm-10.42-.25c-.17,0-.3-.14-.3-.3v-5.66c0-.17.14-.3.3-.3h5.28c.17,0,.3.14.3.3v4.95c0,.17-.14.3-.3.3h-3.38c-.17,0-.3.14-.3.3v.1c0,.17-.14.3-.3.3h-1.29Zm1.89-4.54c-.17,0-.3.14-.3.3v1.49c0,.17.14.3.3.3h1.45c.17,0,.3-.14.3-.3v-1.49c0-.17-.14-.3-.3-.3h-1.45Zm-1.84-2.6c-.17,0-.3-.14-.3-.3v-1.03c0-.17.14-.3.3-.3h5.28c.17,0,.3.14.3.3v1.03c0,.17-.14.3-.3.3h-5.28Zm0-2.48c-.17,0-.3-.14-.3-.3v-1.05c0-.17.14-.3.3-.3h5.28c.17,0,.3.14.3.3v1.05c0,.17-.14.3-.3.3h-5.28Zm-.89-2.5c-.17,0-.3-.14-.3-.3v-1.12c0-.17.14-.3.3-.3h6.88c.17,0,.3.14.3.3v1.12c0,.17-.14.3-.3.3h-6.88Zm1-2.53c-.17,0-.3-.14-.3-.3v-1.03c0-.17.14-.3.3-.3h5.19c.17,0,.3.14.3.3v1.03c0,.17-.14.3-.3.3h-5.19Z"/>
          <path class="cls-6" d="m319.51,55.92c-.14,0-.26-.09-.29-.22-.16-.6-.31-1.35-.44-2.23-.15-1-.22-2.13-.22-3.36,0-.68.03-1.4.09-2.14.06-.75.13-1.47.21-2.16.08-.69.16-1.33.25-1.9.09-.58.15-1.04.2-1.39.04-.25.07-.54.11-.87.02-.21.04-.41.06-.61,0-.08.04-.16.11-.21.06-.05.12-.07.2-.07,0,0,1.86.16,1.86.16.09,0,.17.06.23.13.05.08.07.17.04.26l-.05.15c-.07.22-.12.43-.16.64l-.1.47c-.06.25-.13.6-.2,1.03-.07.43-.15.92-.23,1.46-.08.54-.15,1.09-.23,1.66-.07.56-.13,1.1-.16,1.6-.03.45-.05.84-.05,1.18,0,.14.1.27.24.3,0,0,.02,0,.03,0,.17,0,.27-.07.32-.17l.16-.34c.04-.09.12-.15.21-.17.02,0,.05,0,.07,0,.07,0,.14.02.19.07l.64.52c.1.08.14.21.1.33-.15.44-.3.89-.45,1.37-.18.55-.33,1.06-.47,1.55-.14.49-.25.89-.32,1.22-.02.12-.05.27-.06.44-.02.17-.03.31-.03.42,0,.1.01.41.01.45,0,.16-.11.31-.28.32,0,0-1.53.12-1.53.12Zm7.92-.07c-1.26,0-2.26-.26-2.99-.76-.73-.51-1.09-1.25-1.09-2.2,0-.62.17-1.16.49-1.63.33-.47.8-.83,1.4-1.09.6-.26,1.33-.39,2.15-.39.29,0,.57.01.85.03h0c.1,0,.17-.03.23-.09.06-.06.1-.15.09-.23l-.02-.39c-.03-.63-.06-1.29-.08-1.98l-.02-.72c0-.17-.14-.3-.3-.3-.33,0-.66.01-.99.01-.53,0-1.06,0-1.59-.03-.43-.02-.87-.04-1.31-.06-.16-.01-.28-.14-.28-.3v-1.55c0-.09.04-.17.1-.22.06-.05.13-.08.21-.08,0,0,.02,0,.03,0,.4.04.82.07,1.25.09.53.03,1.07.05,1.61.05.33,0,.65,0,.97-.01.16,0,.3-.14.3-.31,0,0-.01-1.44-.01-1.72,0-.13-.01-.32-.04-.56-.01-.1-.02-.2-.03-.29-.01-.09.01-.17.07-.24.06-.07.14-.1.23-.1h1.9c.09,0,.17.04.23.1s.09.15.08.23l-.02.23c-.02.21-.03.41-.05.62-.01.19-.02.45-.04.78,0,.24-.01.49-.02.77,0,.09.04.17.1.23.06.05.13.08.2.08.78-.08,1.49-.19,2.16-.32.02,0,.04,0,.06,0,.07,0,.14.02.19.07.07.06.11.14.11.23v1.64c0,.15-.11.28-.26.3-.71.09-1.47.18-2.27.24-.16.01-.28.15-.28.31,0,.41.02.8.03,1.17.02.72.06,1.39.09,2l.05.8c0,.12.08.22.18.26.2.09.4.18.59.28.58.3,1.1.64,1.56.99.37.3.72.58,1.03.85.11.1.14.27.05.4l-.92,1.39c-.05.07-.13.12-.22.13-.01,0-.02,0-.04,0-.08,0-.15-.03-.21-.08-.52-.48-1.03-.91-1.53-1.28-.05-.04-.12-.06-.18-.06-.04,0-.08,0-.11.02-.1.04-.17.12-.19.23-.03.17-.07.33-.12.48-.13.4-.33.75-.61,1.06-.28.3-.65.54-1.1.7-.45.16-1.02.25-1.67.25Zm-.22-4.32c-.51,0-.93.1-1.25.29-.32.19-.48.47-.48.82s.17.63.49.8c.33.17.73.26,1.2.26.38,0,.67-.06.89-.19.22-.13.37-.31.46-.56.09-.25.14-.55.14-.9,0-.16-.12-.35-.24-.37-.4-.09-.81-.14-1.22-.14Z"/>
          <path class="cls-6" d="m343.63,55.42c-.65,0-1.28-.22-1.87-.66-.59-.44-1.09-1.15-1.5-2.12-.41-.97-.7-2.29-.87-3.91-.06-.56-.11-1.15-.14-1.77-.03-.62-.05-1.21-.06-1.77,0-.56,0-1.02,0-1.38,0-.26-.01-.56-.04-.91-.02-.21-.03-.41-.06-.6-.01-.09.02-.17.08-.24.06-.06.14-.1.23-.1,0,0,2.09.03,2.09.03.09,0,.17.04.23.11s.08.16.07.24c-.02.13-.04.26-.05.4-.03.28-.05.55-.07.82-.02.27-.03.49-.03.66-.01.4-.02.81,0,1.24,0,.43.02.86.04,1.3.02.44.04.88.08,1.32.08.87.21,1.65.36,2.31.16.66.36,1.19.62,1.56.26.37.57.56.96.56.21,0,.41-.12.61-.35.2-.23.38-.53.55-.9.16-.37.31-.76.44-1.17.06-.21.12-.41.18-.61.03-.11.12-.19.23-.21.02,0,.04,0,.06,0,.09,0,.18.04.23.11l1.34,1.63c.07.08.09.2.05.3-.38.97-.76,1.76-1.13,2.36-.39.62-.81,1.08-1.23,1.35-.42.27-.89.41-1.38.41Zm8.5-2.77c-.06,0-.11-.01-.16-.04-.08-.05-.13-.13-.14-.23-.06-.63-.16-1.31-.29-2.03-.16-.86-.37-1.75-.64-2.64-.27-.88-.59-1.73-.96-2.51-.3-.64-.64-1.21-1.03-1.7-.06-.08-.08-.18-.05-.28s.1-.17.2-.2l1.69-.55s.06-.01.09-.01c.09,0,.18.04.24.12.29.38.58.83.85,1.34.32.6.61,1.24.87,1.91.26.67.5,1.37.71,2.09.21.71.37,1.41.5,2.08.11.59.19,1.13.23,1.62.01.13-.07.26-.19.31l-1.82.7s-.07.02-.11.02Z"/>
          <path class="cls-6" d="m367.4,56.38c-.08,0-.16-.04-.21-.1-.45-.49-.91-.98-1.38-1.47-.28-.28-.64-.62-1.08-1.03-.44-.41-.92-.83-1.44-1.28l-1.54-1.34c-.51-.44-.97-.84-1.38-1.19-.61-.51-1-.97-1.18-1.4-.18-.43-.15-.84.07-1.27.23-.42.63-.87,1.25-1.38.36-.28.78-.61,1.24-.99l1.42-1.18c.49-.41.95-.8,1.38-1.18.44-.38.81-.72,1.11-1.01.27-.27.53-.54.8-.82.16-.17.3-.33.41-.47.05-.07.13-.11.21-.11,0,0,.02,0,.03,0,.07,0,.15.03.2.08l1.6,1.4c.07.06.11.15.1.24,0,.09-.05.18-.12.23-.19.14-.37.28-.55.43-.28.22-.52.43-.73.61-.31.23-.67.51-1.08.85,0,0-2.39,1.9-2.63,2.09-.42.34-.79.64-1.09.91-.31.28-.53.51-.64.68-.11.18-.11.35,0,.52.11.17.34.4.67.69.27.23.61.52,1.03.86.42.34.87.71,1.37,1.12l1.51,1.26c.52.43,1.01.86,1.49,1.27.38.33.73.65,1.05.95.06.06.1.14.1.22,0,.08-.04.16-.1.22l-1.67,1.52c-.06.05-.13.08-.2.08,0,0,0,0-.01,0Z"/>
          <path class="cls-6" d="m380.29,56.05c-.65,0-1.35-.03-2.08-.09-.13,0-.23-.1-.27-.22l-.51-1.74c-.03-.1,0-.2.06-.28.06-.07.14-.11.23-.11.01,0,.02,0,.04,0,.86.1,1.68.16,2.42.16.62,0,1.2-.04,1.72-.11,1.23-.17,2.18-.53,2.81-1.06.63-.53.96-1.18.96-1.94,0-.4-.12-.76-.35-1.07-.23-.31-.55-.55-.97-.73-.41-.18-.88-.26-1.4-.26-1.02,0-1.98.19-2.87.56-.89.37-1.63.91-2.2,1.59-.16.19-.29.37-.39.54-.06.1-.12.21-.18.31-.05.1-.16.16-.27.16-.02,0-.05,0-.08,0l-1.57-.4c-.15-.04-.25-.19-.22-.35.05-.29.11-.61.16-.97.07-.48.15-1,.22-1.55s.14-1.11.2-1.67c.06-.56.12-1.11.16-1.66.04-.42.07-.81.09-1.17,0-.08.05-.16.11-.22.05-.04.12-.07.19-.07.01,0,1.83.26,1.83.26.08.01.16.06.21.13.05.07.07.15.05.24-.04.18-.08.39-.12.62-.07.38-.13.78-.19,1.19l-.21,1.46c-.02.12.04.23.13.3.05.03.11.05.17.05s.11-.02.16-.05c.65-.41,1.34-.72,2.04-.94.9-.28,1.84-.42,2.78-.42,1.06,0,1.98.2,2.73.58.75.39,1.33.9,1.72,1.53.39.63.59,1.32.59,2.06,0,.82-.18,1.6-.53,2.3-.35.7-.93,1.31-1.73,1.8-.8.5-1.86.85-3.15,1.06-.73.12-1.57.18-2.5.18Zm4.54-12.09c-.3-.04-.65-.1-1.05-.17-.52-.09-1.06-.19-1.64-.3-.58-.11-1.14-.22-1.7-.34s-1.07-.23-1.53-.34l-.83-.2c-.08-.02-.15-.07-.19-.14-.04-.07-.05-.15-.03-.23l.42-1.59c.02-.08.07-.15.15-.19.05-.03.1-.04.15-.04.03,0,.06,0,.09.01.34.1.8.22,1.34.34.66.15,1.34.29,2.06.43.72.14,1.39.26,2.03.36.47.07.88.13,1.22.18.09.01.16.06.21.13.05.07.06.16.04.24l-.4,1.63c-.03.14-.16.23-.29.23-.01,0-.03,0-.04,0Z"/>
          <path class="cls-6" d="m397.36,55.94c-.44,0-.91-.09-1.4-.26-.49-.17-.96-.42-1.39-.74-.43-.31-.78-.69-1.06-1.1-.27-.42-.41-.87-.41-1.36,0-.58.22-1.16.67-1.74.44-.57,1.03-1.11,1.77-1.59.45-.3.94-.57,1.44-.79.11-.05.18-.16.18-.28,0-.37,0-.73,0-1.09,0-.4,0-.8,0-1.2,0-.08-.03-.16-.09-.22-.06-.06-.13-.09-.21-.09-.25,0-.47.01-.67.01-.61,0-1.11,0-1.49-.02-.28,0-.54-.02-.78-.04-.15-.01-.27-.14-.28-.3l-.03-1.59c0-.09.03-.17.1-.23.06-.05.13-.08.21-.08.01,0,.02,0,.03,0,.39.04.75.07,1.07.08.41.02.77.03,1.1.03.24,0,.5,0,.77-.02.16,0,.29-.14.29-.3,0,0,.01-.99.01-1.2,0-.13,0-.3-.02-.51-.01-.21-.03-.42-.04-.63v-.13c-.02-.09,0-.17.06-.23.06-.06.14-.1.23-.1h1.82c.09,0,.17.04.23.1s.08.15.07.24v.11c-.04.2-.06.4-.08.6l-.04.53c-.02.29-.04.6-.05.93,0,.09.03.18.1.24.06.05.13.08.2.08.57-.08,1.05-.16,1.51-.25.42-.08.81-.17,1.17-.26.03,0,.05,0,.08,0,.07,0,.13.02.18.06.07.06.12.14.12.24l.04,1.62c0,.15-.1.27-.24.3-.44.1-.92.19-1.42.26-.52.08-1.04.15-1.56.22-.15.02-.26.15-.27.3,0,.51-.01.94-.01,1.37v.27c0,.09.04.18.11.24.05.04.12.07.19.07.33-.07.59-.12.86-.16.86-.14,1.64-.21,2.33-.21.93,0,1.78.16,2.53.46.75.31,1.36.76,1.8,1.36.45.59.67,1.32.67,2.15,0,.7-.13,1.36-.4,1.95-.27.59-.7,1.11-1.28,1.54-.59.43-1.38.77-2.34,1.01-.41.08-.82.15-1.23.19-.32.03-.63.06-.93.08,0,0-.02,0-.02,0-.13,0-.24-.08-.29-.2l-.62-1.73c-.03-.09-.02-.19.04-.28.06-.08.15-.13.24-.13.26,0,.52-.01.77-.02.38-.02.73-.05,1.05-.1.5-.1.94-.24,1.35-.44.4-.19.72-.45.95-.76.23-.31.35-.69.35-1.13,0-.41-.11-.77-.34-1.06-.23-.29-.53-.51-.94-.67-.4-.16-.87-.24-1.4-.24-.76,0-1.54.08-2.32.24-.29.06-.58.13-.86.2-.14.04-.23.16-.23.3v.51c.03.59.05,1.13.05,1.61s0,.86,0,1.13c0,.75-.08,1.34-.25,1.75-.16.41-.4.7-.7.86-.3.16-.66.25-1.06.25Zm-.62-5.26c-.45.29-.8.58-1.04.87-.24.29-.36.57-.36.84,0,.15.04.28.14.41.09.13.21.24.35.34.14.1.29.17.45.23.15.06.28.08.39.08.17,0,.31-.05.42-.15.11-.13.16-.31.16-.61,0-.33,0-.8-.03-1.41v-.35c-.01-.11-.08-.21-.17-.26-.04-.02-.09-.04-.14-.04-.06,0-.11.02-.16.05,0,0,0,0,0,0Zm11.32-4.22c-.07,0-.13-.02-.18-.06-.18-.14-.4-.29-.63-.44-.37-.24-.77-.49-1.2-.75-.43-.25-.85-.49-1.25-.72-.28-.15-.52-.29-.75-.4-.07-.04-.13-.1-.16-.18-.02-.08-.01-.17.03-.24l.7-1.24c.06-.1.16-.15.26-.15.04,0,.09.01.13.03.39.19.83.42,1.3.68.58.32,1.13.63,1.66.94.41.24.76.46,1.04.66.13.09.17.27.09.4l-.78,1.32c-.04.07-.12.13-.2.14-.02,0-.04,0-.06,0Z"/>
          <path class="cls-6" d="m415.02,56.64c-.17,0-.3-.14-.3-.3v-6.57c0-.12-.07-.23-.18-.28-.04-.02-.08-.03-.12-.03-.08,0-.15.03-.21.08-.27.25-.54.49-.8.71-.06.05-.12.07-.19.07-.03,0-.05,0-.08,0-.09-.02-.17-.09-.21-.18l-.12-.29c-.12-.28-.24-.57-.38-.87-.08-.18-.16-.33-.24-.46-.08-.13-.04-.31.08-.4.47-.35.94-.74,1.41-1.17.55-.51,1.07-1.05,1.57-1.62.43-.5.82-1.02,1.14-1.54.06-.09.16-.14.26-.14.04,0,.08,0,.12.02l1.35.57c.08.03.14.1.17.19.03.08.02.18-.03.25-.39.64-.84,1.28-1.34,1.92-.04.05-.06.12-.06.19v9.56c0,.17-.14.3-.3.3h-1.52Zm8.24,0c-.14,0-.27-.1-.3-.24-.05-.23-.12-.48-.22-.74-.07-.19-.14-.37-.22-.54-.05-.11-.03-.23.05-.32.06-.07.14-.11.23-.11.02,0,.05,0,.07,0,.23.01,1.18.03,1.31.03.04,0,.15-.02.19-.04.12-.05.2-.16.2-.29l-.05-2.22c0-.16-.14-.3-.3-.3h-2.8c-.12,0-.23.07-.28.19-.05.11-.02.24.07.33.18.18.37.37.56.57.36.38.65.73.87,1.03.06.08.07.19.04.28-.01.04-.02.07-.02.11,0,.1-.05.19-.13.25-.05.04-.11.06-.18.06-.03,0-.07,0-.1-.02l-.11-.02c-.06,0-.12.02-.18.06l-.57.41c-.05.04-.11.06-.18.06-.02,0-.04,0-.05,0-.08-.01-.15-.06-.2-.13-.11-.16-.24-.34-.39-.52-.24-.29-.49-.59-.76-.9-.18-.21-.36-.4-.54-.59-.06-.06-.09-.15-.08-.24,0-.09.06-.17.13-.22l.23-.15c.11-.07.16-.21.12-.34-.04-.13-.16-.22-.29-.22h-1.26c-.17,0-.3-.14-.3-.3v-1.25c0-.17.14-.3.3-.3h6.1c.17,0,.3-.14.3-.3v-.41c0-.17-.14-.3-.3-.3h-5.64c-.17,0-.3-.14-.3-.3v-1.18c0-.17.14-.3.3-.3h9.98c.17,0,.3.14.3.3v1.18c0,.17-.14.3-.3.3h-1.52c-.17,0-.3.14-.3.3v.41c0,.17.14.3.3.3h1.91c.17,0,.3.14.3.3v1.25c0,.17-.14.3-.3.3h-1.91c-.17,0-.3.14-.3.3v2.3c0,.49-.06.89-.17,1.18-.11.28-.35.5-.7.65-.34.16-.75.25-1.21.28-.4.03-.86.04-1.37.04,0,0,0,0,0,0Zm-3.76-10.22c-.17,0-.3-.14-.3-.3v-5.75c0-.17.14-.3.3-.3h8.46c.17,0,.3.14.3.3v5.75c0,.17-.14.3-.3.3h-8.46Zm2.1-2.46c-.17,0-.3.14-.3.3v.3c0,.17.14.3.3.3h4.17c.17,0,.3-.14.3-.3v-.3c0-.17-.14-.3-.3-.3h-4.17Zm0-2.35c-.17,0-.3.14-.3.3v.29c0,.17.14.3.3.3h4.17c.17,0,.3-.14.3-.3v-.29c0-.17-.14-.3-.3-.3h-4.17Zm-8.16,3.24s-.05,0-.08,0c-.08-.02-.16-.08-.2-.16-.05-.09-.1-.19-.15-.29-.13-.23-.26-.46-.4-.69-.07-.11-.13-.22-.2-.31-.04-.07-.06-.15-.04-.23s.06-.15.13-.19c.39-.25.78-.55,1.18-.87.49-.4.94-.83,1.36-1.27.35-.37.64-.72.88-1.06.06-.08.15-.13.25-.13.04,0,.08,0,.11.02l1.48.6c.09.04.15.11.18.2.03.09,0,.19-.05.26-.34.45-.73.91-1.16,1.37-.53.56-1.09,1.1-1.67,1.59-.48.41-.97.79-1.45,1.11-.05.03-.11.05-.17.05Z"/>
          <path class="cls-6" d="m435.13,55.78c-.14,0-.26-.09-.29-.23-.16-.6-.29-1.34-.43-2.28-.14-1.04-.22-2.2-.22-3.43,0-.69.03-1.39.09-2.08.06-.7.13-1.38.22-2.03.08-.65.17-1.24.24-1.78.08-.53.15-.98.21-1.33.02-.26.06-.54.1-.87.03-.21.05-.42.06-.61,0-.08.04-.16.11-.21.06-.05.12-.07.2-.07,0,0,1.88.16,1.88.16.09,0,.17.06.22.13.05.07.07.17.04.26-.02.05-.22.79-.22.79-.06.21-.09.36-.12.47-.04.26-.09.59-.17.99-.08.41-.16.86-.24,1.37-.08.5-.16,1.02-.23,1.54-.07.52-.13,1.03-.17,1.51-.04.46-.06.86-.06,1.21,0,.14.1.27.24.3,0,0,.02,0,.03,0,.17,0,.27-.07.32-.17,0,0,.13-.29.16-.37.04-.09.11-.15.2-.18.02,0,.05,0,.08,0,.07,0,.13.02.19.07l.64.51c.1.08.14.21.1.34-.15.44-.3.91-.45,1.4-.18.57-.33,1.11-.47,1.61-.14.5-.25.92-.32,1.25-.02.13-.05.29-.06.46-.02.17-.03.3-.03.4s.01.42.01.45c0,.16-.12.31-.28.32,0,0-1.57.11-1.58.11Zm9.06-.57c-1.56,0-2.74-.27-3.5-.79-.76-.53-1.15-1.26-1.15-2.19,0-.35.03-.72.08-1.1.04-.31.1-.64.17-1,.03-.14.15-.24.3-.24.01,0,1.51.14,1.51.14.09,0,.16.05.22.12.05.07.07.16.05.24-.04.17-.07.33-.09.48-.04.24-.05.48-.05.72,0,.19.05.37.15.54.1.16.25.3.45.42.2.11.46.2.78.25.32.05.71.08,1.17.08.81,0,1.58-.04,2.29-.12.6-.07,1.25-.16,1.92-.29.02,0,.04,0,.06,0,.07,0,.14.02.19.07.07.06.11.14.11.23l.03,1.84c0,.15-.11.28-.25.3-.52.09-1.11.16-1.76.21-.76.06-1.66.09-2.69.09Zm.24-10.44c-.7,0-1.39-.02-2.07-.05-.57-.03-1.09-.06-1.59-.1-.16-.01-.28-.14-.28-.3v-1.71c0-.09.04-.17.1-.23.06-.05.13-.08.2-.08.01,0,.02,0,.03,0,.46.05.98.09,1.55.12.58.03,1.17.04,1.77.04h.36c.72,0,1.42-.03,2.09-.07.52-.03.99-.07,1.4-.11,0,0,.02,0,.03,0,.08,0,.15.03.21.08.06.06.1.14.1.22v1.74c0,.16-.12.29-.28.3-.48.04-1,.07-1.56.09-.67.03-1.35.05-2.06.05Z"/>
          <path class="cls-6" d="m458.44,55.18c-.46,0-.84-.15-1.15-.46-.3-.3-.46-.69-.46-1.15s.15-.86.46-1.17c.3-.3.69-.46,1.15-.46s.84.15,1.15.46c.3.3.46.69.46,1.17s-.15.85-.46,1.15c-.3.3-.69.46-1.15.46Zm-.91-4.85c-.16,0-.3-.13-.3-.29-.02-.36.03-.7.14-.98.14-.36.34-.69.6-.98.26-.29.56-.56.88-.8.32-.24.62-.48.91-.71.29-.23.52-.47.7-.71.18-.24.27-.51.27-.8,0-.36-.09-.68-.27-.93-.18-.25-.45-.45-.79-.58-.34-.13-.76-.2-1.25-.2-.56,0-1.07.12-1.53.36-.39.21-.78.5-1.16.87-.06.06-.14.09-.21.09-.07,0-.15-.03-.21-.08l-1.06-.98c-.06-.06-.09-.13-.1-.21,0-.08.03-.16.08-.22.54-.56,1.16-1.03,1.86-1.38.79-.4,1.68-.61,2.63-.61.88,0,1.67.13,2.36.4.68.27,1.23.67,1.62,1.21.39.54.59,1.22.59,2.03,0,.45-.1.84-.28,1.17-.19.33-.43.63-.73.89-.3.26-.61.51-.94.75-.33.24-.63.48-.91.74-.28.25-.5.54-.66.86-.12.24-.18.51-.19.82,0,.16-.14.3-.3.3h-1.76Z"/>
        </g>
      </g>
      <g>
        <g>
          <path class="cls-5" d="m589,1.16c-24.3,0-44,19.7-44,44,0,9.56,3.06,18.41,8.24,25.62l-8.24,18.38,18.38-8.24c7.22,5.18,16.06,8.24,25.62,8.24,24.3,0,44-19.7,44-44S613.3,1.16,589,1.16Z"/>
          <path class="cls-2" d="m589,1.16c-24.3,0-44,19.7-44,44,0,9.56,3.06,18.41,8.24,25.62l-8.24,18.38,18.38-8.24c7.22,5.18,16.06,8.24,25.62,8.24,24.3,0,44-19.7,44-44S613.3,1.16,589,1.16Z"/>
        </g>
        <g>
          <path class="cls-4" d="m572.66,36.88c-.2,0-.35-.16-.35-.36v-1c0-.1-.04-.2-.12-.26-.06-.06-.15-.09-.24-.09-.07,0-1.81.17-2.66.25-1.27.12-2.42.23-3.45.32-.01,0-.02,0-.03,0-.08,0-.16-.03-.23-.08-.07-.06-.12-.15-.13-.24l-.13-1.5c0-.1.02-.19.08-.26s.15-.12.25-.12l1.18-.08c.19-.01.33-.17.33-.35v-5.82c0-.2-.16-.35-.36-.35h-.97c-.2,0-.35-.16-.35-.36v-1.31c0-.2.16-.36.35-.36h18.34c.2,0,.35.16.35.36v1.31c0,.2-.16.36-.35.36h-9.09c-.2,0-.36.16-.36.35v.13c0,.13.07.24.18.31.05.03.12.05.18.05.04,0,.09,0,.13-.02.04-.02.08-.02.13-.02h6.59s.37-.05.39-.05c.04,0,.09,0,.13.02l1.18.45c.18.07.27.26.21.44-.42,1.34-1,2.54-1.71,3.57-.2.29-.42.57-.64.84-.07.08-.09.18-.08.29.02.1.08.19.17.25.85.51,1.81.91,2.85,1.2.12.03.21.12.25.24s0,.24-.07.34l-.13.16c-.2.23-.38.48-.55.73-.11.16-.2.31-.29.45-.07.11-.18.17-.3.17-.04,0-.07,0-.11-.02-1.31-.42-2.49-1.01-3.5-1.75-.06-.04-.13-.07-.21-.07s-.15.02-.21.07c-.95.69-2,1.26-3.13,1.72-.04.02-.09.03-.13.03-.13,0-.25-.07-.31-.19-.1-.18-.21-.37-.34-.56-.07-.1-.18-.16-.3-.16-.03,0-.07,0-.1.01-.15.05-.26.19-.26.34v.32c0,.2-.16.36-.35.36h-1.72Zm2.43-7.25c-.06,0-.12.02-.18.05-.11.06-.18.18-.18.31v4.28c0,.12.06.23.15.29.06.04.13.06.2.06.04,0,.09,0,.13-.02.56-.21,1.1-.47,1.62-.77.22-.12.43-.25.63-.39.08-.06.14-.14.15-.24.02-.1-.01-.2-.07-.28-.66-.83-1.23-1.77-1.69-2.8-.02-.04-.03-.08-.03-.12,0-.08-.04-.16-.09-.22-.07-.07-.16-.11-.26-.11h-.12s-.09,0-.13-.02c-.04-.02-.08-.02-.13-.02Zm-5.24,2.6c-.2,0-.36.16-.36.35v.29c0,.1.04.19.11.26.07.06.15.09.24.09.07,0,2.13-.17,2.13-.17.18-.01.33-.17.33-.35v-.12c0-.2-.16-.35-.36-.35h-2.1Zm8.7-2.56c-.13,0-.24.07-.31.18-.06.11-.06.25,0,.36.26.44.55.86.89,1.25.07.08.17.12.27.12.11,0,.21-.05.27-.13.28-.34.55-.7.78-1.08l.1-.17c.06-.11.06-.24,0-.35-.06-.11-.18-.18-.31-.18h-1.7Zm-8.7-.13c-.2,0-.36.16-.36.35v.21c0,.2.16.35.36.35h2.1c.2,0,.36-.16.36-.35v-.21c0-.2-.16-.35-.36-.35h-2.1Zm0-2.62c-.2,0-.36.16-.36.35v.14c0,.2.16.35.36.35h2.1c.2,0,.36-.16.36-.35v-.14c0-.2-.16-.35-.36-.35h-2.1Zm-1.49-2.79c-.2,0-.35-.16-.35-.36v-5.9c0-.2.16-.36.35-.36h13.37c.2,0,.35.16.35.36v5.9c0,.2-.16.36-.35.36h-13.37Zm2.45-2.54c-.2,0-.36.16-.36.35v.16c0,.2.16.35.36.35h8.37c.2,0,.36-.16.36-.35v-.16c0-.2-.16-.35-.36-.35h-8.37Zm0-2.41c-.2,0-.36.16-.36.35v.14c0,.2.16.35.36.35h8.37c.2,0,.36-.16.36-.35v-.14c0-.2-.16-.35-.36-.35h-8.37Z"/>
          <path class="cls-4" d="m590.91,36.7c-.1,0-.19-.06-.25-.13-.08-.1-.17-.21-.28-.33-.22-.24-.44-.47-.67-.68-.09-.09-.18-.17-.27-.24-.08-.07-.12-.16-.13-.26,0-.1.04-.2.11-.27.72-.66,1.3-1.38,1.74-2.14.5-.87.88-1.78,1.14-2.72.2-.72.34-1.43.43-2.13.01-.1-.02-.2-.08-.28-.07-.08-.17-.12-.27-.12h-2.75c-.2,0-.35-.16-.35-.36v-1.66c0-.2.16-.36.35-.36h.98c.06,0,.13-.02.18-.05.06-.03.12-.05.18-.05s.13.02.18.05c.05.03.12.05.18.05h1.22c.2,0,.35-.16.36-.36v-2.54c0-.17-.12-.32-.29-.35,0,0-.01,0-.02,0-.2,0-.33.09-.38.22-.06.17-.13.33-.2.5-.26.63-.54,1.2-.82,1.69-.05.08-.13.14-.22.17-.03,0-.06.01-.09.01-.07,0-.13-.02-.19-.05l-.34-.21c-.26-.16-.53-.3-.81-.44l-.33-.16c-.09-.04-.16-.12-.19-.22-.03-.1-.01-.2.04-.29.45-.72.85-1.58,1.19-2.57.35-1.04.62-2.12.81-3.22.02-.09.07-.18.15-.23.06-.04.13-.06.2-.06.02,0,.05,0,.07,0l1.7.34c.19.04.32.22.28.41-.08.44-.18.87-.29,1.3-.03.11,0,.22.06.3.07.09.17.14.28.14h3.93c.2,0,.36-.16.36-.35v-.99c0-.2.16-.36.35-.36h10.26c.2,0,.35.16.35.36v1.66c0,.2-.16.36-.35.36h-10.35c-.2,0-.36.16-.36.35v.95c0,.2-.16.36-.35.36h-1.68c-.2,0-.36.16-.36.35v2.57c0,.2.16.35.36.35h2.15c.08,0,.15.02.21.07.06.05.14.07.21.07.04,0,.08,0,.11-.02.14-.05.24-.18.24-.34v-2.73c0-.2.16-.36.35-.36h8.77c.2,0,.35.16.35.36v6.34c0,.2-.16.36-.35.36h-.66c-.18,0-.33.14-.35.32-.02.18.1.35.28.38l.21.04c.1.02.19.08.24.17s.06.2.02.29c-.14.4-.28.8-.43,1.19-.19.53-.38,1.03-.56,1.5-.13.34-.26.66-.39.94-.05.11-.04.24.03.34.07.1.18.16.3.16h2.33c.2,0,.35.16.35.36v1.66c0,.2-.16.36-.35.36h-11.54c-.2,0-.35-.16-.35-.36v-1.67c0-.1.05-.2.12-.27.06-.05.15-.08.23-.08.02,0,.04,0,.06,0h2.44c.1,0,.2-.04.26-.11.07-.07.1-.17.09-.27-.03-.34-.09-.72-.17-1.15-.09-.48-.2-.98-.33-1.48-.09-.36-.19-.7-.31-1.02-.03-.1-.02-.2.02-.29.05-.09.13-.15.23-.18l.61-.14c.18-.04.29-.21.27-.39-.02-.18-.17-.31-.35-.31h-1.06c-.2,0-.35-.16-.35-.36v-.82c0-.15-.1-.29-.24-.34-.04-.01-.07-.02-.11-.02-.08,0-.15.02-.21.07-.06.05-.14.07-.21.07h-2.33c-.18,0-.33.14-.35.32l-.04.32c-.01.11.02.22.1.3l.23.24c.24.27.51.56.8.89.29.33.57.66.84.99.27.33.52.63.75.9l.3.34c.11.13.12.32.01.45,0,0-1.08,1.38-1.13,1.46-.07.09-.17.14-.29.14,0,0-.01,0-.02,0-.12,0-.23-.07-.29-.17-.13-.22-.29-.45-.46-.69-.29-.42-.98-1.39-1.01-1.44-.07-.09-.17-.15-.29-.15-.19.02-.29.11-.34.24-.29.88-.68,1.74-1.15,2.57-.52.92-1.2,1.76-2.01,2.5-.07.06-.15.09-.24.09,0,0-.02,0-.03,0Zm10.74-7.92c-.12,0-.23.06-.3.16-.07.1-.08.22-.03.33.17.41.33.85.46,1.31.14.49.27.97.37,1.44.08.34.14.65.18.94.03.18-.09.35-.26.4l-.29.07c-.17.04-.29.21-.26.39.02.18.17.31.35.31h1.86c.18,0,.33-.13.35-.31.01-.1-.02-.21-.09-.28-.1-.1-.12-.25-.07-.38.13-.32.26-.67.38-1.07.16-.51.32-1.03.47-1.56.14-.47.24-.92.33-1.32.02-.1,0-.21-.07-.3-.07-.08-.17-.13-.28-.13h-3.11Zm-.32-4.82c-.2,0-.36.16-.36.35v1.87c0,.2.16.35.36.35h3.94c.2,0,.36-.16.36-.35v-1.87c0-.2-.16-.35-.36-.35h-3.94Z"/>
        </g>
        <g>
          <path class="cls-4" d="m602.99,71.29c-.2,0-.36-.16-.36-.36v-5.77c0-.17-.11-.31-.28-.35-.01,0-.02,0-.03,0-.2,0-.31.08-.37.19-.15.31-.31.61-.46.9-.26.49-.54.94-.82,1.35-.07.1-.18.16-.3.16-.01,0-.02,0-.03,0-.13-.01-.24-.09-.3-.21-.09-.21-.2-.44-.32-.67-.19-.37-.36-.7-.53-.98-.08-.13-.06-.29.03-.41.32-.39.64-.83.95-1.33.36-.57.71-1.2,1.05-1.87.32-.65.62-1.3.87-1.95.04-.11.03-.24-.04-.34-.07-.1-.18-.16-.3-.16h-1.89c-.2,0-.36-.16-.36-.36v-1.68c0-.2.16-.36.36-.36h2.39c.2,0,.36-.16.36-.36v-1.73c0-.11-.05-.21-.13-.28-.06-.05-.15-.08-.23-.08-.72.12-1.35.22-1.95.31-.02,0-.03,0-.05,0-.16,0-.3-.11-.35-.27-.06-.21-.14-.45-.23-.7-.08-.2-.15-.39-.23-.56-.04-.1-.04-.22.01-.32s.15-.17.26-.19c.64-.11,1.3-.24,1.96-.39.83-.18,1.62-.39,2.36-.62.64-.2,1.21-.4,1.7-.6.04-.02.09-.03.13-.03.1,0,.2.04.27.12l1.23,1.4c.08.09.11.21.08.33s-.12.21-.23.25c-.57.2-1.19.38-1.82.55-.16.04-.27.19-.27.35v2.43c0,.2.16.36.36.36h1.59c.2,0,.36.16.36.36v.77c0,.18.13.33.3.36h.02c.21,0,.34-.1.39-.24l.04-.11c.34-1.03.59-2.1.77-3.15.02-.09.07-.18.15-.24.06-.04.14-.07.21-.07.02,0,.04,0,.06,0l1.75.29c.1.02.18.07.24.15.06.08.08.18.06.27-.23,1.22-.54,2.42-.92,3.57-.37,1.1-.79,2.06-1.26,2.85-.05.08-.13.14-.23.17-.03,0-.06.01-.08.01-.07,0-.13-.02-.19-.06-.1-.06-.22-.13-.35-.21-.27-.16-.55-.31-.83-.47-.12-.07-.24-.13-.34-.18-.09-.05-.16-.13-.19-.23-.03-.1,0-.21.05-.29.13-.2.26-.42.38-.64.06-.11.06-.25,0-.36-.06-.11-.18-.17-.31-.17h-1.63c-.2,0-.36.16-.36.36v.11c0,.1.04.2.12.27.12.1.26.24.43.41l.53.53c.05.05.11.09.18.1.14.03.25.14.28.29.01.07.05.13.1.18.22.23.43.45.61.65l.33.36c.12.13.13.32.03.46l-.97,1.34c-.07.09-.18.15-.29.15,0,0-.01,0-.02,0-.12,0-.23-.08-.29-.18-.07-.13-.16-.27-.24-.42l-.12-.2c-.06-.1-.18-.17-.31-.17-.25.06-.36.2-.36.36v6.86c0,.2-.16.36-.36.36h-1.79Zm5.63-.05c-.15,0-.28-.09-.34-.23-.12-.3-.28-.63-.48-.96-.15-.25-.31-.49-.46-.7-.07-.1-.09-.23-.04-.34.04-.11.15-.2.27-.22,1.42-.28,2.68-.68,3.75-1.18,1.21-.57,2.23-1.34,3.04-2.28.2-.24.39-.49.57-.76.03-.05.05-.1.06-.15.01-.1.07-.19.15-.25.04-.03.08-.07.11-.12.34-.6.64-1.28.88-2.01.05-.15.19-.25.34-.25.03,0,.06,0,.09.01l.44.12s.07,0,.1,0c.05,0,.08,0,.1-.01.04-.01.08-.02.12-.02.1,0,.19.04.26.11.05.05.11.09.18.1l.63.16c.1.02.18.09.23.17.05.09.06.19.03.29-.51,1.56-1.19,2.9-2.03,3.97-.9,1.16-2.04,2.11-3.39,2.83-1.26.68-2.78,1.26-4.51,1.7-.03,0-.06.01-.09.01Zm2.56-6.25c-.17,0-.32-.12-.35-.29-.06-.3-.15-.63-.27-.99-.09-.27-.18-.52-.28-.75-.05-.11-.04-.24.03-.34.07-.1.18-.16.3-.16,0,0,.38,0,.56,0h.72c.09,0,.19-.04.25-.11.07-.07.11-.16.11-.26v-10.74c-.01-.1.02-.19.09-.26.07-.07.16-.11.25-.11h1.87c.2,0,.36.16.36.36v3.54c0,.07.02.13.05.19.07.12.07.26,0,.38-.04.06-.05.12-.05.19v6.52c0,.57-.07,1.05-.19,1.43,0,0-.04.1-.04.1-.01.1-.1.29-.18.35-.19.2-.34.33-.51.43-.36.2-.8.34-1.29.4-.42.05-.9.09-1.43.09h0Zm6.54-3.6c-.06,0-.13-.02-.18-.05-.09-.05-.15-.15-.17-.25-.08-.47-.2-.99-.35-1.54-.2-.73-.45-1.48-.72-2.23-.23-.62-.48-1.2-.74-1.74-.05-.09-.05-.2,0-.3s.12-.17.22-.2l1.57-.51s.07-.02.11-.02c.13,0,.26.07.32.2.29.56.56,1.17.82,1.82.29.74.56,1.47.78,2.19.18.59.32,1.14.41,1.63.03.18-.07.35-.24.41l-1.7.58s-.08.02-.12.02Z"/>
          <g>
            <path class="cls-4" d="m563.94,54.91h2.01c3.02,0,4.65-1.59,4.65-4.32,0-2.1-1.63-3.81-4.11-3.81-2.35,0-3.9,1.55-4.11,3.56h-4.44c.13-4.65,4.07-7.71,8.72-7.71,5.07,0,8.76,3.48,8.76,7.84,0,3.14-1.84,5.32-4.11,6.46,2.64,1.17,4.53,3.44,4.53,7,0,4.57-3.27,8.38-8.84,8.38-5.87,0-9.18-3.35-9.43-7.92h4.44c.33,2.1,1.8,3.69,4.78,3.69,2.51,0,4.23-1.84,4.23-4.28,0-2.93-1.72-4.69-5.07-4.69h-2.01v-4.19Z"/>
            <path class="cls-4" d="m587.54,72.3c-4.82,0-9.1-2.85-9.1-8.84v-11.95c0-6.16,4.28-8.89,9.1-8.89s9.1,2.72,9.1,8.84v11.99c0,5.99-4.28,8.84-9.1,8.84Zm0-25.44c-2.64,0-4.28,1.8-4.28,4.9v11.4c0,3.1,1.63,4.9,4.28,4.9s4.23-1.8,4.23-4.9v-11.4c0-3.1-1.63-4.9-4.23-4.9Z"/>
          </g>
        </g>
      </g>
      <g>
        <path class="cls-3" d="m157.25,71.57c-.7,1.29-1.54,2.62-2.52,3.99-.97,1.38-2.05,2.77-3.21,4.19-1.17,1.42-2.4,2.79-3.71,4.14-1.3,1.34-2.66,2.59-4.06,3.74-.16-.45-.39-.96-.68-1.54-.29-.58-.61-1.15-.94-1.7-.33-.55-.65-1.03-.97-1.42,1.45-1.1,2.87-2.35,4.25-3.74,1.38-1.39,2.68-2.85,3.89-4.39,1.21-1.54,2.31-3.05,3.28-4.55.97-1.49,1.78-2.91,2.41-4.26,1.65.18,2.47.27,4.11.46.93,1.82,1.96,3.57,3.08,5.26,1.12,1.68,2.31,3.25,3.57,4.7,1.26,1.45,2.56,2.74,3.91,3.89,1.35,1.15,2.69,2.11,4.03,2.91-.52.59-1.01,1.27-1.46,2.03-.45.77-.86,1.54-1.22,2.32-1.32-.94-2.62-2.03-3.93-3.28-1.3-1.24-2.57-2.58-3.81-4-1.24-1.42-2.37-2.89-3.4-4.38-1.03-1.49-1.91-2.95-2.64-4.36Zm-11.87,18.11c7.88-.08,11.81-.12,19.69-.2v4.91c-7.88.29-11.81.43-19.69.72v-5.43Zm4.69-9.63c5.79.22,8.69.33,14.49.55v4.79c-5.8-.07-8.69-.1-14.49-.17v-5.16Zm14.32,9.44c.24,0,.37,0,.61,0,.29-.09.43-.13.71-.22,1.31.45,1.96.67,3.26,1.11-.57,1.75-1.2,3.64-1.9,5.67-.7,2.03-1.42,4.09-2.16,6.17-.74,2.08-1.47,4.1-2.19,6.03-1.74-.42-2.61-.63-4.35-1.08.54-1.45,1.11-2.98,1.68-4.57.58-1.59,1.14-3.16,1.68-4.71.54-1.55,1.05-2.99,1.51-4.34.46-1.35.84-2.49,1.14-3.45v-.6Z"/>
        <path class="cls-3" d="m177.72,75.52c1,.07,2.13.14,3.4.2,1.27.06,2.6.13,3.98.2,1.38.07,2.74.14,4.08.21,1.34.07,2.6.14,3.78.21,1.18.07,2.2.14,3.06.2.86.06,1.8.12,2.82.19,1.02.06,2.03.13,3.03.2,1,.07,1.91.14,2.74.2.83.06,1.47.11,1.92.14-.01,1.57-.02,2.36-.03,3.94-1.07-.09-2.47-.19-4.22-.31-1.75-.11-3.88-.23-6.39-.34-1.54-.07-3.11-.12-4.69-.16-1.59-.04-3.16-.06-4.73-.08-1.56-.02-3.07-.03-4.52-.03-1.45,0-2.82.03-4.12.08-.04-1.94-.06-2.91-.1-4.86Zm18.4,11.89c0,1.96-.22,3.58-.66,4.89-.44,1.31-1.11,2.32-1.99,3.03-.88.71-1.98,1.11-3.3,1.19-.64.04-1.3-.08-1.99-.34-.69-.26-1.33-.67-1.92-1.23-.59-.56-1.06-1.27-1.41-2.13-.35-.86-.53-1.89-.53-3.07,0-1.47.31-2.73.92-3.79.61-1.05,1.43-1.86,2.47-2.43,1.03-.57,2.17-.82,3.42-.78,1.5.05,2.75.45,3.76,1.18,1.01.73,1.77,1.69,2.28,2.88.51,1.19.77,2.52.77,4,0,1.16-.18,2.36-.54,3.63-.36,1.27-.96,2.53-1.79,3.8-.83,1.27-1.94,2.46-3.33,3.59-1.39,1.13-3.13,2.13-5.22,3.01-1.46-1.45-2.18-2.2-3.64-3.72,1.45-.45,2.8-.99,4.05-1.61,1.25-.62,2.34-1.36,3.28-2.2.94-.85,1.68-1.85,2.21-3.02.53-1.17.8-2.54.8-4.14,0-1.16-.27-2.03-.8-2.62-.53-.58-1.17-.88-1.92-.89-.43,0-.85.11-1.26.33-.41.22-.74.56-.99,1.01-.25.45-.37,1-.37,1.66,0,.85.27,1.53.8,2.03.53.5,1.14.73,1.82.71.54-.02,1.03-.22,1.45-.59.42-.38.7-.99.83-1.85.14-.85.02-1.99-.34-3.43,1.26.37,1.9.56,3.16.92Zm.82-14.96c-.02.19-.05.49-.09.9-.03.41-.06.83-.08,1.24-.02.41-.05.72-.07.9-.04.46-.03,1.11-.03,1.91v2.66c0,.98,0,1.96.02,2.94.01.99.02,1.91.03,2.78.01.87.02,1.59.02,2.16-1.7-.6-2.55-.9-4.25-1.53v-4.38c0-.92,0-1.83-.02-2.73-.01-.9-.03-1.72-.05-2.46-.02-.74-.05-1.29-.07-1.66-.05-.76-.1-1.43-.17-2.01-.07-.58-.12-.99-.17-1.21,1.97.2,2.96.29,4.93.49Z"/>
        <path class="cls-3" d="m230.54,78.49c-.52.28-1.05.57-1.58.88-.53.31-1.01.61-1.41.86-.53.33-1.21.73-1.99,1.23-.78.49-1.6,1.01-2.47,1.56-.86.55-1.68,1.1-2.47,1.64-.78.54-1.46,1.05-2.02,1.48-.6.46-1.01.85-1.21,1.14-.19.3-.18.59.03.88.22.29.63.69,1.24,1.16.51.38,1.17.85,1.94,1.39.77.54,1.62,1.13,2.55,1.75.93.62,1.87,1.25,2.82,1.88.95.63,1.88,1.24,2.77,1.82.9.59,1.68,1.12,2.36,1.62-1.56,1.32-2.35,2-3.91,3.39-.48-.4-.97-.8-1.48-1.19-.51-.39-1.02-.8-1.51-1.19-.51-.4-1.19-.9-2.01-1.5-.82-.6-1.71-1.25-2.67-1.94-.96-.69-1.93-1.39-2.89-2.11-.96-.71-1.83-1.37-2.6-1.96-1.13-.86-1.87-1.67-2.19-2.42-.33-.75-.28-1.5.15-2.23.43-.74,1.21-1.53,2.35-2.37.66-.47,1.42-1.02,2.28-1.64.86-.62,1.75-1.25,2.65-1.88.91-.63,1.77-1.23,2.6-1.8.83-.57,1.55-1.06,2.09-1.49.47-.37.96-.79,1.46-1.19.5-.4.87-.75,1.12-1.05,1.59,1.34,2.39,1.99,3.98,3.26Zm-2.14,3.85c.32.37.65.83,1,1.36.35.54.7,1.07,1.04,1.59.34.53.61.95.82,1.29-1.12.38-1.67.57-2.79.97-.23-.4-.5-.85-.83-1.38-.33-.53-.66-1.06-.99-1.59-.33-.53-.65-1-.97-1.4,1.09-.34,1.63-.51,2.72-.84Zm4.11-1.11c.29.34.62.78.99,1.3.36.52.71,1.03,1.05,1.54.34.5.62.92.85,1.27-1.1.34-1.65.52-2.75.87-.27-.39-.57-.83-.9-1.33-.33-.5-.67-1.01-1.02-1.52-.35-.51-.69-.95-1-1.32,1.12-.33,1.67-.49,2.79-.8Z"/>
      </g>
    </g>
  </g>
</svg>